<?xml version="1.0" encoding="UTF-8" standalone="no"?><!DOCTYPE svg PUBLIC "-//W3C//DTD SVG 1.1//EN" "http://www.w3.org/Graphics/SVG/1.1/DTD/svg11.dtd"><svg width="100%" height="100%" viewBox="0 0 96 128" version="1.1" xmlns="http://www.w3.org/2000/svg" xmlns:xlink="http://www.w3.org/1999/xlink" xml:space="preserve" xmlns:serif="http://www.serif.com/" style="fill-rule:evenodd;clip-rule:evenodd;stroke-linejoin:round;stroke-miterlimit:2;"><g id="Esperando"><path d="M79.484,127.34l-59.27,0c-5.086,0 -9.208,-4.123 -9.208,-9.208l0,-108.661c0,-5.086 4.123,-9.208 9.208,-9.208l59.27,0c5.086,0 9.208,4.123 9.208,9.208l0,108.661c0,5.086 -4.123,9.208 -9.208,9.208Z" style="fill:#4b4926;fill-rule:nonzero;"/><path d="M52.281,76.326c-0.112,0.476 -0.307,0.908 -0.797,1.093c0.421,0.039 0.693,0.505 0.792,0.871c0.094,0.355 0.1,0.729 0.193,1.085c0.088,-0.605 0.153,-1.367 0.693,-1.755c0.137,-0.098 0.292,-0.167 0.445,-0.235c-0.132,-0.055 -0.265,-0.111 -0.383,-0.191c-0.268,-0.182 -0.439,-0.483 -0.526,-0.796c-0.051,-0.183 -0.093,-0.375 -0.112,-0.565c-0.011,-0.107 -0.017,-0.215 -0.029,-0.323c-0.008,-0.063 -0.066,-0.216 -0.049,-0.272c-0.109,0.358 -0.141,0.726 -0.227,1.087Z" style="fill:#ffdcb3;fill-rule:nonzero;"/><path d="M54.811,38.819c-0.112,0.476 -0.307,0.908 -0.797,1.093c0.421,0.039 0.693,0.505 0.791,0.871c0.095,0.355 0.101,0.729 0.194,1.085c0.087,-0.604 0.153,-1.366 0.693,-1.754c0.137,-0.099 0.292,-0.167 0.445,-0.236c-0.132,-0.054 -0.266,-0.11 -0.383,-0.19c-0.269,-0.182 -0.439,-0.483 -0.527,-0.797c-0.051,-0.183 -0.092,-0.375 -0.111,-0.565c-0.012,-0.107 -0.018,-0.216 -0.03,-0.323c-0.007,-0.063 -0.065,-0.216 -0.048,-0.272c-0.11,0.359 -0.141,0.726 -0.227,1.088Z" style="fill:#ffdcb3;fill-rule:nonzero;"/><path d="M44.964,46.165c-0.217,0.92 -0.593,1.754 -1.539,2.112c0.813,0.075 1.34,0.976 1.528,1.682c0.183,0.686 0.194,1.408 0.373,2.096c0.17,-1.168 0.296,-2.64 1.339,-3.391c0.264,-0.189 0.564,-0.322 0.861,-0.454c-0.254,-0.106 -0.512,-0.212 -0.74,-0.368c-0.519,-0.354 -0.847,-0.935 -1.017,-1.539c-0.099,-0.354 -0.178,-0.726 -0.217,-1.091c-0.021,-0.207 -0.033,-0.416 -0.057,-0.624c-0.015,-0.123 -0.126,-0.417 -0.093,-0.526c-0.211,0.693 -0.274,1.402 -0.439,2.101Z" style="fill:#ffdcb3;fill-rule:nonzero;"/><path d="M47.89,68.66c-0.111,0.476 -0.306,0.908 -0.796,1.094c0.421,0.039 0.693,0.505 0.791,0.87c0.094,0.355 0.101,0.729 0.194,1.084c0.087,-0.604 0.152,-1.365 0.693,-1.754c0.136,-0.099 0.291,-0.168 0.445,-0.236c-0.132,-0.055 -0.266,-0.111 -0.383,-0.191c-0.269,-0.182 -0.439,-0.483 -0.527,-0.796c-0.051,-0.183 -0.093,-0.375 -0.112,-0.565c-0.011,-0.108 -0.017,-0.216 -0.029,-0.323c-0.008,-0.064 -0.065,-0.217 -0.048,-0.272c-0.11,0.358 -0.142,0.725 -0.228,1.087Z" style="fill:#ffdcb3;fill-rule:nonzero;"/><path d="M48.052,85.895c-0.124,0.057 -0.249,0.116 -0.365,0.182c-0.083,0.041 -0.166,0.083 -0.249,0.14c-0.738,0.54 -0.83,1.586 -0.954,2.424c-0.124,-0.49 -0.133,-1.005 -0.266,-1.494c-0.033,-0.108 -0.066,-0.233 -0.124,-0.349c-0.183,-0.415 -0.507,-0.814 -0.963,-0.855c0.672,-0.257 0.946,-0.846 1.096,-1.51c0.025,-0.117 0.05,-0.233 0.066,-0.349c0.075,-0.373 0.133,-0.747 0.241,-1.112c0,0.091 0.067,0.257 0.075,0.34c0.017,0.149 0.025,0.298 0.042,0.448c0.008,0.108 0.025,0.216 0.05,0.324c0.025,0.149 0.058,0.298 0.099,0.448c0.125,0.432 0.357,0.846 0.731,1.103c0.158,0.108 0.34,0.183 0.523,0.258Z" style="fill:#ffdcb3;fill-rule:nonzero;"/><path d="M26.476,27.827c-0.618,0 -1.122,0.503 -1.122,1.121l0,2.617c0,0.619 0.504,1.121 1.122,1.121l46.747,0c0.618,0 1.121,-0.503 1.121,-1.121l0,-2.617c0,-0.619 -0.503,-1.121 -1.121,-1.121l-46.747,0Zm46.747,5.357l-46.747,0c-0.893,0 -1.62,-0.726 -1.62,-1.619l0,-2.617c0,-0.893 0.726,-1.619 1.62,-1.619l46.747,0c0.893,0 1.619,0.726 1.619,1.619l0,2.617c0,0.893 -0.726,1.619 -1.619,1.619Z" style="fill:#ffdcb3;fill-rule:nonzero;"/><path d="M28.789,27.827l-0.008,0c-0.137,-0.004 -0.245,-0.119 -0.242,-0.256c0.012,-0.388 0.169,-0.752 0.443,-1.026c0.286,-0.287 0.666,-0.444 1.071,-0.444l39.516,0c0.825,0 1.49,0.646 1.513,1.47c0.004,0.138 -0.104,0.252 -0.242,0.256c-0.142,-0.003 -0.253,-0.104 -0.255,-0.242c-0.016,-0.553 -0.463,-0.987 -1.016,-0.987l-39.516,0c-0.272,0 -0.527,0.105 -0.719,0.297c-0.184,0.185 -0.29,0.429 -0.297,0.69c-0.003,0.134 -0.115,0.242 -0.248,0.242Z" style="fill:#ffdcb3;fill-rule:nonzero;"/><path d="M26.476,94.915c-0.618,0 -1.122,0.504 -1.122,1.122l0,2.617c0,0.618 0.504,1.122 1.122,1.122l46.747,0c0.618,0 1.121,-0.504 1.121,-1.122l0,-2.617c0,-0.618 -0.503,-1.122 -1.121,-1.122l-46.747,0Zm46.747,5.359l-46.747,0c-0.893,0 -1.62,-0.726 -1.62,-1.62l0,-2.617c0,-0.893 0.726,-1.619 1.62,-1.619l46.747,0c0.893,0 1.619,0.726 1.619,1.619l0,2.617c0,0.893 -0.726,1.62 -1.619,1.62Z" style="fill:#ffdcb3;fill-rule:nonzero;"/><path d="M69.644,101.501l-39.516,0c-0.825,0 -1.49,-0.646 -1.514,-1.47c-0.003,-0.137 0.105,-0.252 0.242,-0.255c0.137,0 0.253,0.104 0.256,0.241c0.016,0.553 0.463,0.987 1.016,0.987l39.516,0c0.272,0 0.528,-0.105 0.72,-0.298c0.184,-0.183 0.29,-0.428 0.297,-0.689c0.003,-0.137 0.111,-0.248 0.255,-0.241c0.138,0.003 0.246,0.118 0.242,0.255c-0.012,0.387 -0.169,0.751 -0.443,1.026c-0.287,0.286 -0.667,0.444 -1.072,0.444Z" style="fill:#ffdcb3;fill-rule:nonzero;"/><path d="M47.74,61.383c-0.411,-1.211 -1.038,-2.346 -1.922,-3.477c-0.935,-1.087 -2.017,-1.951 -3.164,-2.866c-0.723,-0.577 -1.469,-1.173 -2.183,-1.835c-2.826,-2.632 -4.423,-7.097 -4.27,-11.942c0.086,-2.75 1.266,-5.721 3.24,-8.15l0.056,-0.069l0,-0.036c0.004,-0.021 0,-0.04 0,-0.062c-0.002,-0.039 -0.006,-0.077 -0.026,-0.115c-0.004,-0.007 -0.001,-0.015 -0.005,-0.022c-0.003,-0.004 -0.009,-0.003 -0.012,-0.008c-0.009,-0.013 -0.011,-0.027 -0.022,-0.038c-0.029,-0.03 -0.069,-0.033 -0.105,-0.045c-0.011,-0.003 -0.02,-0.01 -0.031,-0.012c-0.051,-0.008 -0.101,0.007 -0.149,0.028c-0.011,0.005 -0.026,0 -0.037,0.007c-1.537,0.983 -2.803,2.389 -3.567,3.962c-0.671,1.385 -1.09,2.963 -1.244,4.689c-0.179,2.002 0.011,4.097 0.551,6.062c0.659,2.402 1.875,4.502 3.517,6.074c0.815,0.78 1.742,1.435 2.638,2.069c0.224,0.158 0.449,0.317 0.672,0.478c1.76,1.267 3.914,3.03 4.962,5.434c0.271,0.618 0.583,1.434 0.595,2.268c0.012,0.816 -0.312,1.664 -0.595,2.312c-1.049,2.404 -3.203,4.167 -4.962,5.434c-0.224,0.161 -0.448,0.32 -0.672,0.478c-0.896,0.633 -1.823,1.288 -2.638,2.068c-1.642,1.573 -2.859,3.673 -3.517,6.075c-0.54,1.963 -0.73,4.06 -0.551,6.062c0.154,1.727 0.573,3.304 1.245,4.689c0.116,0.237 0.242,0.471 0.379,0.7c0.774,1.294 1.872,2.417 3.179,3.256c0.006,0.003 0.011,0.009 0.017,0.013l0.003,-0.004c0.039,0.028 0.081,0.053 0.133,0.053c0.138,0 0.249,-0.111 0.249,-0.248l-0.003,-0.11l-0.06,-0.063c-0.748,-0.92 -1.39,-1.932 -1.91,-3.005l-0.237,-0.515c-0.677,-1.548 -1.044,-3.105 -1.092,-4.631c-0.025,-0.765 -0.005,-1.517 0.057,-2.238c0.321,-4.029 1.817,-7.476 4.213,-9.705c0.718,-0.669 1.468,-1.268 2.195,-1.848c1.142,-0.911 2.221,-1.772 3.158,-2.87c0.875,-1.11 1.503,-2.243 1.916,-3.459c0.241,-0.708 0.519,-1.621 0.527,-2.423c-0.008,-0.798 -0.286,-1.712 -0.527,-2.417Z" style="fill:#ffdcb3;fill-rule:nonzero;"/><path d="M61.332,74.072c-0.814,-0.78 -1.741,-1.435 -2.638,-2.068c-0.224,-0.158 -0.449,-0.317 -0.672,-0.478c-1.76,-1.267 -3.915,-3.031 -4.963,-5.434c-0.341,-0.784 -0.656,-1.604 -0.646,-2.303c0.012,-0.765 0.312,-1.515 0.646,-2.279c1.049,-2.403 3.203,-4.167 4.962,-5.434c0.222,-0.16 0.445,-0.318 0.668,-0.475c0.899,-0.634 1.826,-1.29 2.642,-2.071c1.643,-1.573 2.859,-3.673 3.517,-6.074c0.54,-1.963 0.73,-4.059 0.551,-6.062c-0.154,-1.727 -0.573,-3.305 -1.244,-4.689c-0.762,-1.572 -2.029,-2.979 -3.6,-3.982c-0.117,-0.069 -0.254,-0.023 -0.326,0.093c-0.057,0.092 -0.024,0.201 0.044,0.284l-0.012,0.011c1.974,2.44 3.153,5.41 3.238,8.15c0.147,4.848 -1.45,9.312 -4.276,11.943c-0.714,0.666 -1.463,1.264 -2.187,1.843c-1.143,0.913 -2.223,1.777 -3.16,2.873c-0.885,1.12 -1.512,2.253 -1.919,3.463c-0.269,0.799 -0.52,1.646 -0.527,2.421c0.007,0.774 0.258,1.62 0.527,2.419c0.408,1.21 1.035,2.343 1.926,3.471c0.931,1.088 2.011,1.951 3.153,2.865c0.724,0.578 1.473,1.177 2.187,1.843c2.826,2.631 4.424,7.095 4.276,11.942c-0.051,1.628 -0.491,3.365 -1.275,5.024c-0.523,1.11 -1.184,2.162 -1.969,3.131l-0.012,0.016c-0.083,0.108 -0.057,0.254 0.05,0.339c0.044,0.034 0.096,0.051 0.149,0.051c0.051,0 0.099,-0.021 0.142,-0.049l0.003,0.004c1.539,-0.983 2.805,-2.39 3.567,-3.963c0.671,-1.383 1.09,-2.961 1.244,-4.688c0.179,-2.003 -0.011,-4.099 -0.551,-6.062c-0.659,-2.401 -1.874,-4.502 -3.517,-6.075Z" style="fill:#ffdcb3;fill-rule:nonzero;"/><path d="M49.97,49.032c-0.773,0 -1.537,-0.099 -2.284,-0.193l-1.032,-0.132c-0.137,-0.018 -0.232,-0.143 -0.215,-0.279c0.018,-0.137 0.145,-0.236 0.279,-0.214l1.031,0.131c0.981,0.125 1.995,0.253 2.989,0.151c0.774,-0.081 1.547,-0.306 2.274,-0.529c0.787,-0.243 1.575,-0.5 2.363,-0.758c2.611,-0.853 5.311,-1.736 8.045,-2.064c0.128,-0.021 0.26,0.081 0.277,0.218c0.017,0.136 -0.081,0.26 -0.218,0.277c-2.685,0.323 -5.361,1.198 -7.95,2.044c-0.79,0.258 -1.58,0.517 -2.37,0.76c-0.75,0.231 -1.551,0.463 -2.369,0.549c-0.274,0.029 -0.547,0.041 -0.82,0.041Z" style="fill:#ffdcb3;fill-rule:nonzero;"/><path d="M43.984,48.317c-0.014,0 -0.027,-0.001 -0.041,-0.003c-1.15,-0.193 -2.159,-0.406 -3.084,-0.651c-0.47,-0.124 -0.943,-0.263 -1.418,-0.401c-1.004,-0.291 -2.042,-0.595 -3.056,-0.764c-0.135,-0.022 -0.227,-0.151 -0.205,-0.286c0.022,-0.136 0.153,-0.23 0.286,-0.205c1.045,0.175 2.097,0.481 3.114,0.777c0.471,0.137 0.94,0.274 1.407,0.397c0.91,0.242 1.903,0.451 3.038,0.642c0.135,0.022 0.227,0.151 0.205,0.287c-0.021,0.121 -0.126,0.207 -0.246,0.207Z" style="fill:#ffdcb3;fill-rule:nonzero;"/><path d="M49.802,68.309c-0.05,0 -0.1,-0.003 -0.152,-0.01c-0.385,-0.052 -0.696,-0.303 -0.959,-0.534c-0.494,-0.438 -0.961,-0.921 -1.388,-1.437c-0.088,-0.106 -0.074,-0.263 0.033,-0.351c0.106,-0.087 0.263,-0.074 0.35,0.033c0.411,0.496 0.86,0.96 1.335,1.381c0.206,0.182 0.448,0.38 0.696,0.414c0.383,0.055 0.768,-0.266 1.091,-0.585c0.412,-0.405 0.806,-0.842 1.169,-1.298c0.087,-0.107 0.243,-0.124 0.35,-0.039c0.107,0.086 0.125,0.242 0.039,0.35c-0.377,0.471 -0.784,0.922 -1.21,1.342c-0.353,0.347 -0.818,0.733 -1.355,0.733Z" style="fill:#ffdcb3;fill-rule:nonzero;"/><path d="M62.451,91.723c-0.036,0 -0.073,-0.008 -0.107,-0.024c-0.845,-0.402 -1.725,-0.766 -2.576,-1.117c-1.871,-0.773 -3.805,-1.572 -5.504,-2.83l-0.371,-0.278c-0.89,-0.668 -1.81,-1.359 -2.854,-1.644c-0.74,-0.203 -1.572,-0.144 -2.47,0.176c-0.101,0.036 -0.202,0.076 -0.304,0.116c-0.17,0.066 -0.339,0.132 -0.511,0.185c-0.233,0.071 -0.479,0.161 -0.695,0.337c-0.105,0.087 -0.263,0.071 -0.35,-0.036c-0.087,-0.106 -0.07,-0.264 0.036,-0.35c0.283,-0.23 0.595,-0.344 0.864,-0.427c0.159,-0.048 0.317,-0.111 0.475,-0.172c0.105,-0.041 0.212,-0.082 0.319,-0.12c0.995,-0.355 1.927,-0.416 2.768,-0.188c1.135,0.309 2.094,1.03 3.021,1.727l0.369,0.276c1.648,1.222 3.553,2.009 5.396,2.77c0.857,0.354 1.743,0.72 2.601,1.127c0.123,0.059 0.176,0.207 0.117,0.332c-0.043,0.09 -0.132,0.142 -0.224,0.142Z" style="fill:#ffdcb3;fill-rule:nonzero;"/><path d="M37.064,91.323c-0.098,0 -0.19,-0.058 -0.23,-0.154c-0.052,-0.128 0.008,-0.273 0.134,-0.326c0.907,-0.373 1.846,-0.736 2.873,-1.108l0.351,-0.128c0.379,-0.136 0.762,-0.275 1.14,-0.432c0.975,-0.416 1.905,-0.982 2.805,-1.529c0.59,-0.359 1.199,-0.73 1.823,-1.06l0.069,-0.028c0.146,-0.04 0.312,0.081 0.312,0.241c0,0.099 -0.066,0.188 -0.153,0.23c-0.608,0.322 -1.21,0.688 -1.792,1.043c-0.915,0.556 -1.861,1.132 -2.87,1.562c-0.387,0.162 -0.777,0.302 -1.165,0.442l-0.35,0.127c-1.021,0.37 -1.954,0.73 -2.853,1.1c-0.031,0.014 -0.063,0.02 -0.095,0.02Z" style="fill:#ffdcb3;fill-rule:nonzero;"/><path d="M30.11,93.668c-0.138,0 -0.248,-0.111 -0.248,-0.248l0,-59.237c0,-0.137 0.111,-0.249 0.248,-0.249c0.137,0 0.249,0.112 0.249,0.249l0,59.237c0,0.137 -0.112,0.248 -0.249,0.248Z" style="fill:#ffdcb3;fill-rule:nonzero;"/><path d="M28.174,93.668c-0.137,0 -0.248,-0.111 -0.248,-0.248l0,-59.237c0,-0.137 0.111,-0.249 0.248,-0.249c0.137,0 0.249,0.112 0.249,0.249l0,59.237c0,0.137 -0.112,0.248 -0.249,0.248Z" style="fill:#ffdcb3;fill-rule:nonzero;"/><path d="M30.441,34.431l-2.597,0c-0.509,0 -0.923,-0.414 -0.923,-0.922l0,-0.573c0,-0.137 0.111,-0.249 0.248,-0.249c0.138,0 0.249,0.112 0.249,0.249l0,0.573c0,0.234 0.19,0.424 0.425,0.424l2.597,0c0.234,0 0.424,-0.19 0.424,-0.424l0,-0.573c0,-0.137 0.112,-0.249 0.249,-0.249c0.138,0 0.248,0.112 0.248,0.249l0,0.573c0,0.508 -0.413,0.922 -0.922,0.922Z" style="fill:#ffdcb3;fill-rule:nonzero;"/><path d="M31.151,94.915c-0.137,0 -0.248,-0.111 -0.248,-0.249l0,-0.573c0,-0.234 -0.191,-0.425 -0.425,-0.425l-2.597,0c-0.234,0 -0.425,0.191 -0.425,0.425l0,0.573c0,0.138 -0.111,0.249 -0.248,0.249c-0.137,0 -0.249,-0.111 -0.249,-0.249l0,-0.573c0,-0.508 0.415,-0.922 0.923,-0.922l2.597,0c0.509,0 0.922,0.414 0.922,0.922l0,0.573c0,0.138 -0.111,0.249 -0.248,0.249Z" style="fill:#ffdcb3;fill-rule:nonzero;"/><path d="M71.487,93.668c-0.137,0 -0.249,-0.111 -0.249,-0.248l0,-59.237c0,-0.137 0.112,-0.249 0.249,-0.249c0.138,0 0.248,0.112 0.248,0.249l0,59.237c0,0.137 -0.111,0.248 -0.248,0.248Z" style="fill:#ffdcb3;fill-rule:nonzero;"/><path d="M69.551,93.668c-0.137,0 -0.248,-0.111 -0.248,-0.248l0,-59.237c0,-0.137 0.111,-0.249 0.248,-0.249c0.138,0 0.249,0.112 0.249,0.249l0,59.237c0,0.137 -0.111,0.248 -0.249,0.248Z" style="fill:#ffdcb3;fill-rule:nonzero;"/><path d="M71.818,34.431l-2.597,0c-0.509,0 -0.923,-0.414 -0.923,-0.922l0,-0.573c0,-0.137 0.111,-0.249 0.249,-0.249c0.137,0 0.248,0.112 0.248,0.249l0,0.573c0,0.234 0.19,0.424 0.425,0.424l2.597,0c0.234,0 0.424,-0.19 0.424,-0.424l0,-0.573c0,-0.137 0.111,-0.249 0.249,-0.249c0.137,0 0.248,0.112 0.248,0.249l0,0.573c0,0.508 -0.414,0.922 -0.922,0.922Z" style="fill:#ffdcb3;fill-rule:nonzero;"/><path d="M72.528,94.915c-0.137,0 -0.248,-0.111 -0.248,-0.249l0,-0.573c0,-0.234 -0.191,-0.425 -0.425,-0.425l-2.597,0c-0.235,0 -0.425,0.191 -0.425,0.425l0,0.573c0,0.138 -0.111,0.249 -0.248,0.249c-0.138,0 -0.249,-0.111 -0.249,-0.249l0,-0.573c0,-0.508 0.414,-0.922 0.923,-0.922l2.597,0c0.509,0 0.923,0.414 0.923,0.922l0,0.573c0,0.138 -0.111,0.249 -0.249,0.249Z" style="fill:#ffdcb3;fill-rule:nonzero;"/><path d="M20.214,0.461c-4.95,0 -8.978,4.028 -8.978,8.978l0,108.661c0,4.95 4.027,8.978 8.978,8.978l59.27,0c4.95,0 8.978,-4.028 8.978,-8.978l0,-108.661c0,-4.95 -4.027,-8.978 -8.978,-8.978l-59.27,0Zm59.27,127.077l-59.27,0c-5.204,0 -9.438,-4.234 -9.438,-9.439l0,-108.661c0,-5.204 4.234,-9.439 9.438,-9.439l59.27,0c5.204,0 9.438,4.234 9.438,9.439l0,108.661c0,5.205 -4.234,9.439 -9.438,9.439Z" style="fill:#ffdcb3;fill-rule:nonzero;"/><path d="M20.995,3.993l-0.192,0c-0.053,0 -0.096,-0.043 -0.096,-0.096c0,-0.053 0.043,-0.096 0.096,-0.096l0.192,0c0.053,0 0.096,0.043 0.096,0.096c0,0.053 -0.043,0.096 -0.096,0.096Zm1.344,0l-0.192,0c-0.053,0 -0.096,-0.043 -0.096,-0.096c0,-0.053 0.043,-0.096 0.096,-0.096l0.192,0c0.053,0 0.096,0.043 0.096,0.096c0,0.053 -0.043,0.096 -0.096,0.096Zm1.344,0l-0.192,0c-0.053,0 -0.096,-0.043 -0.096,-0.096c0,-0.053 0.043,-0.096 0.096,-0.096l0.192,0c0.053,0 0.096,0.043 0.096,0.096c0,0.053 -0.043,0.096 -0.096,0.096Zm1.344,0l-0.192,0c-0.053,0 -0.096,-0.043 -0.096,-0.096c0,-0.053 0.043,-0.096 0.096,-0.096l0.192,0c0.053,0 0.096,0.043 0.096,0.096c0,0.053 -0.043,0.096 -0.096,0.096Zm1.344,0l-0.192,0c-0.053,0 -0.096,-0.043 -0.096,-0.096c0,-0.053 0.043,-0.096 0.096,-0.096l0.192,0c0.053,0 0.096,0.043 0.096,0.096c0,0.053 -0.043,0.096 -0.096,0.096Zm1.344,0l-0.192,0c-0.053,0 -0.096,-0.043 -0.096,-0.096c0,-0.053 0.043,-0.096 0.096,-0.096l0.192,0c0.053,0 0.096,0.043 0.096,0.096c0,0.053 -0.043,0.096 -0.096,0.096Zm1.344,0l-0.192,0c-0.053,0 -0.096,-0.043 -0.096,-0.096c0,-0.053 0.043,-0.096 0.096,-0.096l0.192,0c0.053,0 0.096,0.043 0.096,0.096c0,0.053 -0.043,0.096 -0.096,0.096Zm1.344,0l-0.192,0c-0.053,0 -0.096,-0.043 -0.096,-0.096c0,-0.053 0.043,-0.096 0.096,-0.096l0.192,0c0.053,0 0.096,0.043 0.096,0.096c0,0.053 -0.043,0.096 -0.096,0.096Zm1.344,0l-0.192,0c-0.053,0 -0.096,-0.043 -0.096,-0.096c0,-0.053 0.043,-0.096 0.096,-0.096l0.192,0c0.053,0 0.096,0.043 0.096,0.096c0,0.053 -0.043,0.096 -0.096,0.096Zm1.344,0l-0.192,0c-0.053,0 -0.096,-0.043 -0.096,-0.096c0,-0.053 0.043,-0.096 0.096,-0.096l0.192,0c0.053,0 0.096,0.043 0.096,0.096c0,0.053 -0.043,0.096 -0.096,0.096Zm1.344,0l-0.192,0c-0.053,0 -0.096,-0.043 -0.096,-0.096c0,-0.053 0.043,-0.096 0.096,-0.096l0.192,0c0.053,0 0.096,0.043 0.096,0.096c0,0.053 -0.043,0.096 -0.096,0.096Zm-14.967,0.127c-0.045,0 -0.084,-0.031 -0.094,-0.077c-0.01,-0.052 0.023,-0.103 0.075,-0.113c0.064,-0.013 0.128,-0.025 0.192,-0.036c0.056,-0.01 0.102,0.026 0.111,0.078c0.009,0.052 -0.026,0.102 -0.078,0.111c-0.062,0.011 -0.124,0.022 -0.186,0.035c-0.007,0.002 -0.013,0.002 -0.02,0.002Zm-1.275,0.412c-0.037,0 -0.071,-0.021 -0.088,-0.057c-0.022,-0.048 0,-0.105 0.048,-0.127c0.059,-0.026 0.118,-0.052 0.179,-0.077c0.047,-0.021 0.105,0.003 0.126,0.052c0.02,0.049 -0.003,0.105 -0.053,0.125c-0.058,0.024 -0.116,0.049 -0.173,0.074c-0.013,0.006 -0.027,0.008 -0.04,0.008Zm-1.157,0.679c-0.029,0 -0.058,-0.013 -0.077,-0.039c-0.031,-0.043 -0.022,-0.103 0.02,-0.134c0.052,-0.038 0.104,-0.076 0.157,-0.114c0.043,-0.03 0.103,-0.02 0.134,0.023c0.03,0.044 0.02,0.103 -0.024,0.134c-0.051,0.036 -0.103,0.073 -0.154,0.111c-0.017,0.013 -0.037,0.019 -0.057,0.019Zm-0.983,0.911c-0.023,0 -0.045,-0.008 -0.063,-0.023c-0.04,-0.035 -0.044,-0.095 -0.01,-0.136c0.043,-0.049 0.086,-0.098 0.13,-0.145c0.037,-0.038 0.097,-0.041 0.136,-0.005c0.039,0.036 0.041,0.097 0.005,0.136c-0.043,0.046 -0.085,0.093 -0.127,0.141c-0.018,0.022 -0.046,0.033 -0.072,0.033Zm-0.765,1.102c-0.016,0 -0.031,-0.004 -0.046,-0.012c-0.046,-0.025 -0.063,-0.084 -0.038,-0.131c0.031,-0.057 0.063,-0.113 0.096,-0.169c0.026,-0.046 0.085,-0.062 0.131,-0.035c0.046,0.026 0.061,0.085 0.035,0.131c-0.032,0.055 -0.063,0.109 -0.093,0.165c-0.017,0.032 -0.05,0.05 -0.084,0.05Zm-0.51,1.241c-0.009,0 -0.018,-0.001 -0.026,-0.004c-0.051,-0.015 -0.081,-0.068 -0.066,-0.119c0.018,-0.063 0.037,-0.125 0.057,-0.187c0.016,-0.05 0.07,-0.077 0.121,-0.062c0.051,0.016 0.078,0.07 0.062,0.121c-0.019,0.06 -0.038,0.12 -0.055,0.181c-0.012,0.042 -0.05,0.07 -0.092,0.07Zm-0.228,1.321l-0.006,0c-0.053,-0.003 -0.093,-0.049 -0.089,-0.102c0.004,-0.065 0.009,-0.13 0.015,-0.194c0.005,-0.053 0.051,-0.091 0.104,-0.086c0.053,0.005 0.092,0.052 0.087,0.104c-0.006,0.063 -0.011,0.126 -0.015,0.189c-0.003,0.051 -0.045,0.089 -0.096,0.089Zm-0.012,1.344c-0.053,0 -0.096,-0.043 -0.096,-0.096l0,-0.192c0,-0.053 0.043,-0.096 0.096,-0.096c0.053,0 0.096,0.043 0.096,0.096l0,0.192c0,0.053 -0.043,0.096 -0.096,0.096Zm0,1.344c-0.053,0 -0.096,-0.043 -0.096,-0.096l0,-0.192c0,-0.053 0.043,-0.096 0.096,-0.096c0.053,0 0.096,0.043 0.096,0.096l0,0.192c0,0.053 -0.043,0.096 -0.096,0.096Zm0,1.344c-0.053,0 -0.096,-0.043 -0.096,-0.096l0,-0.192c0,-0.053 0.043,-0.096 0.096,-0.096c0.053,0 0.096,0.043 0.096,0.096l0,0.192c0,0.053 -0.043,0.096 -0.096,0.096Zm0,1.344c-0.053,0 -0.096,-0.043 -0.096,-0.096l0,-0.192c0,-0.053 0.043,-0.096 0.096,-0.096c0.053,0 0.096,0.043 0.096,0.096l0,0.192c0,0.053 -0.043,0.096 -0.096,0.096Zm0,1.344c-0.053,0 -0.096,-0.043 -0.096,-0.096l0,-0.192c0,-0.053 0.043,-0.096 0.096,-0.096c0.053,0 0.096,0.043 0.096,0.096l0,0.192c0,0.053 -0.043,0.096 -0.096,0.096Zm0,1.344c-0.053,0 -0.096,-0.043 -0.096,-0.096l0,-0.192c0,-0.053 0.043,-0.096 0.096,-0.096c0.053,0 0.096,0.043 0.096,0.096l0,0.192c0,0.053 -0.043,0.096 -0.096,0.096Zm0,1.344c-0.053,0 -0.096,-0.043 -0.096,-0.096l0,-0.192c0,-0.053 0.043,-0.096 0.096,-0.096c0.053,0 0.096,0.043 0.096,0.096l0,0.192c0,0.053 -0.043,0.096 -0.096,0.096Zm0,1.344c-0.053,0 -0.096,-0.043 -0.096,-0.096l0,-0.192c0,-0.053 0.043,-0.096 0.096,-0.096c0.053,0 0.096,0.043 0.096,0.096l0,0.192c0,0.053 -0.043,0.096 -0.096,0.096Zm0,1.344c-0.053,0 -0.096,-0.043 -0.096,-0.096l0,-0.192c0,-0.053 0.043,-0.096 0.096,-0.096c0.053,0 0.096,0.043 0.096,0.096l0,0.192c0,0.053 -0.043,0.096 -0.096,0.096Zm0,1.344c-0.053,0 -0.096,-0.043 -0.096,-0.096l0,-0.192c0,-0.053 0.043,-0.096 0.096,-0.096c0.053,0 0.096,0.043 0.096,0.096l0,0.192c0,0.053 -0.043,0.096 -0.096,0.096Zm0,1.344c-0.053,0 -0.096,-0.043 -0.096,-0.096l0,-0.192c0,-0.053 0.043,-0.096 0.096,-0.096c0.053,0 0.096,0.043 0.096,0.096l0,0.192c0,0.053 -0.043,0.096 -0.096,0.096Zm0,1.344c-0.053,0 -0.096,-0.043 -0.096,-0.096l0,-0.192c0,-0.053 0.043,-0.096 0.096,-0.096c0.053,0 0.096,0.043 0.096,0.096l0,0.192c0,0.053 -0.043,0.096 -0.096,0.096Zm0,1.344c-0.053,0 -0.096,-0.043 -0.096,-0.096l0,-0.192c0,-0.053 0.043,-0.096 0.096,-0.096c0.053,0 0.096,0.043 0.096,0.096l0,0.192c0,0.053 -0.043,0.096 -0.096,0.096Zm0,1.344c-0.053,0 -0.096,-0.043 -0.096,-0.096l0,-0.192c0,-0.053 0.043,-0.096 0.096,-0.096c0.053,0 0.096,0.043 0.096,0.096l0,0.192c0,0.053 -0.043,0.096 -0.096,0.096Zm0,1.344c-0.053,0 -0.096,-0.043 -0.096,-0.096l0,-0.192c0,-0.053 0.043,-0.096 0.096,-0.096c0.053,0 0.096,0.043 0.096,0.096l0,0.192c0,0.053 -0.043,0.096 -0.096,0.096Zm0,1.344c-0.053,0 -0.096,-0.043 -0.096,-0.096l0,-0.192c0,-0.053 0.043,-0.096 0.096,-0.096c0.053,0 0.096,0.043 0.096,0.096l0,0.192c0,0.053 -0.043,0.096 -0.096,0.096Zm0,1.344c-0.053,0 -0.096,-0.043 -0.096,-0.096l0,-0.192c0,-0.053 0.043,-0.096 0.096,-0.096c0.053,0 0.096,0.043 0.096,0.096l0,0.192c0,0.053 -0.043,0.096 -0.096,0.096Zm0,1.344c-0.053,0 -0.096,-0.043 -0.096,-0.096l0,-0.192c0,-0.053 0.043,-0.096 0.096,-0.096c0.053,0 0.096,0.043 0.096,0.096l0,0.192c0,0.053 -0.043,0.096 -0.096,0.096Zm0,1.344c-0.053,0 -0.096,-0.043 -0.096,-0.096l0,-0.192c0,-0.053 0.043,-0.096 0.096,-0.096c0.053,0 0.096,0.043 0.096,0.096l0,0.192c0,0.053 -0.043,0.096 -0.096,0.096Zm0,1.344c-0.053,0 -0.096,-0.043 -0.096,-0.096l0,-0.192c0,-0.053 0.043,-0.096 0.096,-0.096c0.053,0 0.096,0.043 0.096,0.096l0,0.192c0,0.053 -0.043,0.096 -0.096,0.096Zm0,1.344c-0.053,0 -0.096,-0.043 -0.096,-0.096l0,-0.192c0,-0.053 0.043,-0.096 0.096,-0.096c0.053,0 0.096,0.043 0.096,0.096l0,0.192c0,0.053 -0.043,0.096 -0.096,0.096Zm0,1.344c-0.053,0 -0.096,-0.043 -0.096,-0.096l0,-0.192c0,-0.053 0.043,-0.096 0.096,-0.096c0.053,0 0.096,0.043 0.096,0.096l0,0.192c0,0.053 -0.043,0.096 -0.096,0.096Zm0,1.344c-0.053,0 -0.096,-0.043 -0.096,-0.096l0,-0.192c0,-0.053 0.043,-0.096 0.096,-0.096c0.053,0 0.096,0.043 0.096,0.096l0,0.192c0,0.053 -0.043,0.096 -0.096,0.096Zm0,1.344c-0.053,0 -0.096,-0.043 -0.096,-0.096l0,-0.192c0,-0.053 0.043,-0.096 0.096,-0.096c0.053,0 0.096,0.043 0.096,0.096l0,0.192c0,0.053 -0.043,0.096 -0.096,0.096Zm0,1.344c-0.053,0 -0.096,-0.043 -0.096,-0.096l0,-0.192c0,-0.053 0.043,-0.096 0.096,-0.096c0.053,0 0.096,0.043 0.096,0.096l0,0.192c0,0.053 -0.043,0.096 -0.096,0.096Zm0,1.344c-0.053,0 -0.096,-0.043 -0.096,-0.096l0,-0.192c0,-0.053 0.043,-0.096 0.096,-0.096c0.053,0 0.096,0.043 0.096,0.096l0,0.192c0,0.053 -0.043,0.096 -0.096,0.096Zm0,1.344c-0.053,0 -0.096,-0.043 -0.096,-0.096l0,-0.192c0,-0.053 0.043,-0.096 0.096,-0.096c0.053,0 0.096,0.043 0.096,0.096l0,0.192c0,0.053 -0.043,0.096 -0.096,0.096Zm0,1.344c-0.053,0 -0.096,-0.043 -0.096,-0.096l0,-0.192c0,-0.053 0.043,-0.096 0.096,-0.096c0.053,0 0.096,0.043 0.096,0.096l0,0.192c0,0.053 -0.043,0.096 -0.096,0.096Zm0,1.344c-0.053,0 -0.096,-0.043 -0.096,-0.096l0,-0.192c0,-0.053 0.043,-0.096 0.096,-0.096c0.053,0 0.096,0.043 0.096,0.096l0,0.192c0,0.053 -0.043,0.096 -0.096,0.096Zm0,1.344c-0.053,0 -0.096,-0.043 -0.096,-0.096l0,-0.192c0,-0.053 0.043,-0.096 0.096,-0.096c0.053,0 0.096,0.043 0.096,0.096l0,0.192c0,0.053 -0.043,0.096 -0.096,0.096Zm0,1.344c-0.053,0 -0.096,-0.043 -0.096,-0.096l0,-0.192c0,-0.053 0.043,-0.096 0.096,-0.096c0.053,0 0.096,0.043 0.096,0.096l0,0.192c0,0.053 -0.043,0.096 -0.096,0.096Zm0,1.344c-0.053,0 -0.096,-0.043 -0.096,-0.096l0,-0.192c0,-0.053 0.043,-0.096 0.096,-0.096c0.053,0 0.096,0.043 0.096,0.096l0,0.192c0,0.053 -0.043,0.096 -0.096,0.096Zm0,1.344c-0.053,0 -0.096,-0.043 -0.096,-0.096l0,-0.192c0,-0.053 0.043,-0.096 0.096,-0.096c0.053,0 0.096,0.043 0.096,0.096l0,0.192c0,0.053 -0.043,0.096 -0.096,0.096Zm0,1.344c-0.053,0 -0.096,-0.043 -0.096,-0.096l0,-0.192c0,-0.053 0.043,-0.096 0.096,-0.096c0.053,0 0.096,0.043 0.096,0.096l0,0.192c0,0.053 -0.043,0.096 -0.096,0.096Zm0,1.344c-0.053,0 -0.096,-0.043 -0.096,-0.096l0,-0.192c0,-0.053 0.043,-0.096 0.096,-0.096c0.053,0 0.096,0.043 0.096,0.096l0,0.192c0,0.053 -0.043,0.096 -0.096,0.096Zm0,1.344c-0.053,0 -0.096,-0.043 -0.096,-0.096l0,-0.192c0,-0.053 0.043,-0.096 0.096,-0.096c0.053,0 0.096,0.043 0.096,0.096l0,0.192c0,0.053 -0.043,0.096 -0.096,0.096Zm0,1.344c-0.053,0 -0.096,-0.043 -0.096,-0.096l0,-0.192c0,-0.053 0.043,-0.096 0.096,-0.096c0.053,0 0.096,0.043 0.096,0.096l0,0.192c0,0.053 -0.043,0.096 -0.096,0.096Zm0,1.344c-0.053,0 -0.096,-0.043 -0.096,-0.096l0,-0.192c0,-0.053 0.043,-0.096 0.096,-0.096c0.053,0 0.096,0.043 0.096,0.096l0,0.192c0,0.053 -0.043,0.096 -0.096,0.096Zm0,1.344c-0.053,0 -0.096,-0.043 -0.096,-0.096l0,-0.192c0,-0.053 0.043,-0.096 0.096,-0.096c0.053,0 0.096,0.043 0.096,0.096l0,0.192c0,0.053 -0.043,0.096 -0.096,0.096Zm0,1.344c-0.053,0 -0.096,-0.043 -0.096,-0.096l0,-0.192c0,-0.053 0.043,-0.096 0.096,-0.096c0.053,0 0.096,0.043 0.096,0.096l0,0.192c0,0.053 -0.043,0.096 -0.096,0.096Zm0,1.344c-0.053,0 -0.096,-0.043 -0.096,-0.096l0,-0.192c0,-0.053 0.043,-0.096 0.096,-0.096c0.053,0 0.096,0.043 0.096,0.096l0,0.192c0,0.053 -0.043,0.096 -0.096,0.096Zm0,1.344c-0.053,0 -0.096,-0.043 -0.096,-0.096l0,-0.192c0,-0.053 0.043,-0.096 0.096,-0.096c0.053,0 0.096,0.043 0.096,0.096l0,0.192c0,0.053 -0.043,0.096 -0.096,0.096Zm0,1.344c-0.053,0 -0.096,-0.043 -0.096,-0.096l0,-0.192c0,-0.053 0.043,-0.096 0.096,-0.096c0.053,0 0.096,0.043 0.096,0.096l0,0.192c0,0.053 -0.043,0.096 -0.096,0.096Zm0,1.344c-0.053,0 -0.096,-0.043 -0.096,-0.096l0,-0.192c0,-0.053 0.043,-0.096 0.096,-0.096c0.053,0 0.096,0.043 0.096,0.096l0,0.192c0,0.053 -0.043,0.096 -0.096,0.096Zm0,1.344c-0.053,0 -0.096,-0.043 -0.096,-0.096l0,-0.192c0,-0.053 0.043,-0.096 0.096,-0.096c0.053,0 0.096,0.043 0.096,0.096l0,0.192c0,0.053 -0.043,0.096 -0.096,0.096Zm0,1.344c-0.053,0 -0.096,-0.043 -0.096,-0.096l0,-0.192c0,-0.053 0.043,-0.096 0.096,-0.096c0.053,0 0.096,0.043 0.096,0.096l0,0.192c0,0.053 -0.043,0.096 -0.096,0.096Zm0,1.344c-0.053,0 -0.096,-0.043 -0.096,-0.096l0,-0.192c0,-0.053 0.043,-0.096 0.096,-0.096c0.053,0 0.096,0.043 0.096,0.096l0,0.192c0,0.053 -0.043,0.096 -0.096,0.096Zm0,1.344c-0.053,0 -0.096,-0.043 -0.096,-0.096l0,-0.192c0,-0.053 0.043,-0.096 0.096,-0.096c0.053,0 0.096,0.043 0.096,0.096l0,0.192c0,0.053 -0.043,0.096 -0.096,0.096Zm0,1.344c-0.053,0 -0.096,-0.043 -0.096,-0.096l0,-0.192c0,-0.053 0.043,-0.096 0.096,-0.096c0.053,0 0.096,0.043 0.096,0.096l0,0.192c0,0.053 -0.043,0.096 -0.096,0.096Zm0,1.344c-0.053,0 -0.096,-0.043 -0.096,-0.096l0,-0.192c0,-0.053 0.043,-0.096 0.096,-0.096c0.053,0 0.096,0.043 0.096,0.096l0,0.192c0,0.053 -0.043,0.096 -0.096,0.096Zm0,1.344c-0.053,0 -0.096,-0.043 -0.096,-0.096l0,-0.192c0,-0.053 0.043,-0.096 0.096,-0.096c0.053,0 0.096,0.043 0.096,0.096l0,0.192c0,0.053 -0.043,0.096 -0.096,0.096Zm0,1.344c-0.053,0 -0.096,-0.043 -0.096,-0.096l0,-0.192c0,-0.053 0.043,-0.096 0.096,-0.096c0.053,0 0.096,0.043 0.096,0.096l0,0.192c0,0.053 -0.043,0.096 -0.096,0.096Zm0,1.344c-0.053,0 -0.096,-0.043 -0.096,-0.096l0,-0.192c0,-0.053 0.043,-0.096 0.096,-0.096c0.053,0 0.096,0.043 0.096,0.096l0,0.192c0,0.053 -0.043,0.096 -0.096,0.096Zm0,1.344c-0.053,0 -0.096,-0.043 -0.096,-0.096l0,-0.192c0,-0.053 0.043,-0.096 0.096,-0.096c0.053,0 0.096,0.043 0.096,0.096l0,0.192c0,0.053 -0.043,0.096 -0.096,0.096Zm0,1.344c-0.053,0 -0.096,-0.043 -0.096,-0.096l0,-0.192c0,-0.053 0.043,-0.096 0.096,-0.096c0.053,0 0.096,0.043 0.096,0.096l0,0.192c0,0.053 -0.043,0.096 -0.096,0.096Zm0,1.344c-0.053,0 -0.096,-0.043 -0.096,-0.096l0,-0.192c0,-0.053 0.043,-0.096 0.096,-0.096c0.053,0 0.096,0.043 0.096,0.096l0,0.192c0,0.053 -0.043,0.096 -0.096,0.096Zm0,1.344c-0.053,0 -0.096,-0.043 -0.096,-0.096l0,-0.192c0,-0.053 0.043,-0.096 0.096,-0.096c0.053,0 0.096,0.043 0.096,0.096l0,0.192c0,0.053 -0.043,0.096 -0.096,0.096Zm0,1.344c-0.053,0 -0.096,-0.043 -0.096,-0.096l0,-0.192c0,-0.053 0.043,-0.096 0.096,-0.096c0.053,0 0.096,0.043 0.096,0.096l0,0.192c0,0.053 -0.043,0.096 -0.096,0.096Zm0,1.344c-0.053,0 -0.096,-0.043 -0.096,-0.096l0,-0.192c0,-0.053 0.043,-0.096 0.096,-0.096c0.053,0 0.096,0.043 0.096,0.096l0,0.192c0,0.053 -0.043,0.096 -0.096,0.096Zm0,1.344c-0.053,0 -0.096,-0.043 -0.096,-0.096l0,-0.192c0,-0.053 0.043,-0.096 0.096,-0.096c0.053,0 0.096,0.043 0.096,0.096l0,0.192c0,0.053 -0.043,0.096 -0.096,0.096Zm0,1.344c-0.053,0 -0.096,-0.043 -0.096,-0.096l0,-0.192c0,-0.053 0.043,-0.096 0.096,-0.096c0.053,0 0.096,0.043 0.096,0.096l0,0.192c0,0.053 -0.043,0.096 -0.096,0.096Zm0,1.344c-0.053,0 -0.096,-0.043 -0.096,-0.096l0,-0.192c0,-0.053 0.043,-0.096 0.096,-0.096c0.053,0 0.096,0.043 0.096,0.096l0,0.192c0,0.053 -0.043,0.096 -0.096,0.096Zm0,1.344c-0.053,0 -0.096,-0.043 -0.096,-0.096l0,-0.192c0,-0.053 0.043,-0.096 0.096,-0.096c0.053,0 0.096,0.043 0.096,0.096l0,0.192c0,0.053 -0.043,0.096 -0.096,0.096Zm0,1.344c-0.053,0 -0.096,-0.043 -0.096,-0.096l0,-0.192c0,-0.053 0.043,-0.096 0.096,-0.096c0.053,0 0.096,0.043 0.096,0.096l0,0.192c0,0.053 -0.043,0.096 -0.096,0.096Zm0,1.344c-0.053,0 -0.096,-0.043 -0.096,-0.096l0,-0.192c0,-0.053 0.043,-0.096 0.096,-0.096c0.053,0 0.096,0.043 0.096,0.096l0,0.192c0,0.053 -0.043,0.096 -0.096,0.096Zm0,1.344c-0.053,0 -0.096,-0.043 -0.096,-0.096l0,-0.192c0,-0.053 0.043,-0.096 0.096,-0.096c0.053,0 0.096,0.043 0.096,0.096l0,0.192c0,0.053 -0.043,0.096 -0.096,0.096Zm0,1.344c-0.053,0 -0.096,-0.043 -0.096,-0.096l0,-0.192c0,-0.053 0.043,-0.096 0.096,-0.096c0.053,0 0.096,0.043 0.096,0.096l0,0.192c0,0.053 -0.043,0.096 -0.096,0.096Zm0,1.344c-0.053,0 -0.096,-0.043 -0.096,-0.096l0,-0.192c0,-0.053 0.043,-0.096 0.096,-0.096c0.053,0 0.096,0.043 0.096,0.096l0,0.192c0,0.053 -0.043,0.096 -0.096,0.096Zm0,1.344c-0.053,0 -0.096,-0.043 -0.096,-0.096l0,-0.192c0,-0.053 0.043,-0.096 0.096,-0.096c0.053,0 0.096,0.043 0.096,0.096l0,0.192c0,0.053 -0.043,0.096 -0.096,0.096Zm0,1.344c-0.053,0 -0.096,-0.043 -0.096,-0.096l0,-0.192c0,-0.053 0.043,-0.096 0.096,-0.096c0.053,0 0.096,0.043 0.096,0.096l0,0.192c0,0.053 -0.043,0.096 -0.096,0.096Zm0,1.344c-0.053,0 -0.096,-0.043 -0.096,-0.096l0,-0.192c0,-0.053 0.043,-0.096 0.096,-0.096c0.053,0 0.096,0.043 0.096,0.096l0,0.192c0,0.053 -0.043,0.096 -0.096,0.096Zm0,1.344c-0.053,0 -0.096,-0.043 -0.096,-0.096l0,-0.192c0,-0.053 0.043,-0.096 0.096,-0.096c0.053,0 0.096,0.043 0.096,0.096l0,0.192c0,0.053 -0.043,0.096 -0.096,0.096Zm0,1.344c-0.053,0 -0.096,-0.043 -0.096,-0.096l0,-0.192c0,-0.053 0.043,-0.096 0.096,-0.096c0.053,0 0.096,0.043 0.096,0.096l0,0.192c0,0.053 -0.043,0.096 -0.096,0.096Zm0,1.344c-0.053,0 -0.096,-0.043 -0.096,-0.096l0,-0.192c0,-0.053 0.043,-0.096 0.096,-0.096c0.053,0 0.096,0.043 0.096,0.096l0,0.192c0,0.053 -0.043,0.096 -0.096,0.096Zm0,1.344c-0.053,0 -0.096,-0.043 -0.096,-0.096l0,-0.192c0,-0.053 0.043,-0.096 0.096,-0.096c0.053,0 0.096,0.043 0.096,0.096l0,0.192c0,0.053 -0.043,0.096 -0.096,0.096Zm0,1.344c-0.053,0 -0.096,-0.043 -0.096,-0.096l0,-0.192c0,-0.053 0.043,-0.096 0.096,-0.096c0.053,0 0.096,0.043 0.096,0.096l0,0.192c0,0.053 -0.043,0.096 -0.096,0.096Zm0,1.344c-0.053,0 -0.096,-0.043 -0.096,-0.096l0,-0.192c0,-0.053 0.043,-0.096 0.096,-0.096c0.053,0 0.096,0.043 0.096,0.096l0,0.192c0,0.053 -0.043,0.096 -0.096,0.096Zm0,1.344c-0.053,0 -0.096,-0.043 -0.096,-0.096l0,-0.192c0,-0.053 0.043,-0.096 0.096,-0.096c0.053,0 0.096,0.043 0.096,0.096l0,0.192c0,0.053 -0.043,0.096 -0.096,0.096Zm0,1.344c-0.053,0 -0.096,-0.043 -0.096,-0.096l0,-0.192c0,-0.053 0.043,-0.096 0.096,-0.096c0.053,0 0.096,0.043 0.096,0.096l0,0.192c0,0.053 -0.043,0.096 -0.096,0.096Zm0,1.344c-0.053,0 -0.096,-0.043 -0.096,-0.096l0,-0.192c0,-0.053 0.043,-0.096 0.096,-0.096c0.053,0 0.096,0.043 0.096,0.096l0,0.192c0,0.053 -0.043,0.096 -0.096,0.096Zm0.096,1.338c-0.046,0 -0.086,-0.033 -0.094,-0.079c-0.012,-0.064 -0.022,-0.128 -0.031,-0.193c-0.007,-0.052 0.03,-0.101 0.082,-0.108c0.05,-0.009 0.101,0.029 0.109,0.081c0.009,0.063 0.019,0.124 0.03,0.186c0.009,0.052 -0.026,0.102 -0.078,0.112c-0.006,0.001 -0.012,0.001 -0.017,0.001Zm0.376,1.286c-0.038,0 -0.073,-0.022 -0.089,-0.059c-0.025,-0.06 -0.048,-0.12 -0.072,-0.18c-0.019,-0.05 0.006,-0.105 0.055,-0.124c0.048,-0.02 0.105,0.005 0.124,0.055c0.023,0.059 0.046,0.118 0.07,0.175c0.02,0.049 -0.003,0.105 -0.052,0.126c-0.012,0.005 -0.025,0.007 -0.037,0.007Zm0.647,1.174c-0.03,0 -0.06,-0.014 -0.078,-0.041c-0.038,-0.053 -0.074,-0.107 -0.11,-0.161c-0.029,-0.045 -0.017,-0.104 0.028,-0.133c0.045,-0.029 0.104,-0.017 0.133,0.027c0.035,0.053 0.07,0.105 0.106,0.156c0.031,0.043 0.02,0.104 -0.023,0.134c-0.017,0.012 -0.036,0.018 -0.055,0.018Zm0.884,1.008c-0.023,0 -0.046,-0.008 -0.065,-0.025c-0.048,-0.044 -0.095,-0.088 -0.142,-0.134c-0.037,-0.038 -0.038,-0.098 -0.001,-0.136c0.038,-0.037 0.098,-0.038 0.136,-0.001c0.045,0.044 0.09,0.088 0.137,0.13c0.039,0.036 0.042,0.096 0.006,0.136c-0.019,0.02 -0.045,0.031 -0.071,0.031Zm1.081,0.795c-0.016,0 -0.033,-0.004 -0.048,-0.013c-0.056,-0.033 -0.112,-0.066 -0.167,-0.101c-0.045,-0.028 -0.059,-0.087 -0.031,-0.132c0.028,-0.045 0.088,-0.059 0.132,-0.031c0.054,0.033 0.108,0.066 0.163,0.098c0.046,0.026 0.061,0.085 0.035,0.131c-0.018,0.03 -0.05,0.048 -0.083,0.048Zm1.227,0.543c-0.01,0 -0.02,-0.002 -0.029,-0.005c-0.062,-0.02 -0.124,-0.04 -0.185,-0.062c-0.05,-0.017 -0.076,-0.072 -0.059,-0.122c0.018,-0.05 0.073,-0.076 0.123,-0.059c0.06,0.021 0.119,0.041 0.18,0.06c0.051,0.016 0.078,0.07 0.062,0.121c-0.013,0.041 -0.051,0.067 -0.091,0.067Zm1.315,0.264c-0.003,0 -0.006,0 -0.008,-0c-0.065,-0.005 -0.13,-0.013 -0.195,-0.02c-0.053,-0.007 -0.09,-0.055 -0.083,-0.108c0.006,-0.052 0.051,-0.088 0.107,-0.083c0.062,0.008 0.125,0.014 0.187,0.02c0.053,0.005 0.092,0.051 0.088,0.104c-0.005,0.05 -0.046,0.088 -0.096,0.088Zm1.343,0.025l-0.192,0c-0.053,0 -0.096,-0.043 -0.096,-0.096c0,-0.053 0.043,-0.096 0.096,-0.096l0.192,0c0.053,0 0.096,0.043 0.096,0.096c0,0.053 -0.043,0.096 -0.096,0.096Zm1.344,0l-0.192,0c-0.053,0 -0.096,-0.043 -0.096,-0.096c0,-0.053 0.043,-0.096 0.096,-0.096l0.192,0c0.053,0 0.096,0.043 0.096,0.096c0,0.053 -0.043,0.096 -0.096,0.096Zm1.344,0l-0.192,0c-0.053,0 -0.096,-0.043 -0.096,-0.096c0,-0.053 0.043,-0.096 0.096,-0.096l0.192,0c0.053,0 0.096,0.043 0.096,0.096c0,0.053 -0.043,0.096 -0.096,0.096Zm1.344,0l-0.192,0c-0.053,0 -0.096,-0.043 -0.096,-0.096c0,-0.053 0.043,-0.096 0.096,-0.096l0.192,0c0.053,0 0.096,0.043 0.096,0.096c0,0.053 -0.043,0.096 -0.096,0.096Zm1.344,0l-0.192,0c-0.053,0 -0.096,-0.043 -0.096,-0.096c0,-0.053 0.043,-0.096 0.096,-0.096l0.192,0c0.053,0 0.096,0.043 0.096,0.096c0,0.053 -0.043,0.096 -0.096,0.096Zm1.344,0l-0.192,0c-0.053,0 -0.096,-0.043 -0.096,-0.096c0,-0.053 0.043,-0.096 0.096,-0.096l0.192,0c0.053,0 0.096,0.043 0.096,0.096c0,0.053 -0.043,0.096 -0.096,0.096Zm1.344,0l-0.192,0c-0.053,0 -0.096,-0.043 -0.096,-0.096c0,-0.053 0.043,-0.096 0.096,-0.096l0.192,0c0.053,0 0.096,0.043 0.096,0.096c0,0.053 -0.043,0.096 -0.096,0.096Zm1.344,0l-0.192,0c-0.053,0 -0.096,-0.043 -0.096,-0.096c0,-0.053 0.043,-0.096 0.096,-0.096l0.192,0c0.053,0 0.096,0.043 0.096,0.096c0,0.053 -0.043,0.096 -0.096,0.096Zm1.344,0l-0.192,0c-0.053,0 -0.096,-0.043 -0.096,-0.096c0,-0.053 0.043,-0.096 0.096,-0.096l0.192,0c0.053,0 0.096,0.043 0.096,0.096c0,0.053 -0.043,0.096 -0.096,0.096Zm1.344,0l-0.192,0c-0.053,0 -0.096,-0.043 -0.096,-0.096c0,-0.053 0.043,-0.096 0.096,-0.096l0.192,0c0.053,0 0.096,0.043 0.096,0.096c0,0.053 -0.043,0.096 -0.096,0.096Zm1.344,0l-0.192,0c-0.053,0 -0.096,-0.043 -0.096,-0.096c0,-0.053 0.043,-0.096 0.096,-0.096l0.192,0c0.053,0 0.096,0.043 0.096,0.096c0,0.053 -0.043,0.096 -0.096,0.096Z" style="fill:#ffdcb3;fill-rule:nonzero;"/><path d="M64.344,3.993l-0.192,0c-0.053,0 -0.096,-0.043 -0.096,-0.096c0,-0.053 0.043,-0.096 0.096,-0.096l0.192,0c0.053,0 0.096,0.043 0.096,0.096c0,0.053 -0.043,0.096 -0.096,0.096Zm1.344,0l-0.192,0c-0.053,0 -0.096,-0.043 -0.096,-0.096c0,-0.053 0.043,-0.096 0.096,-0.096l0.192,0c0.053,0 0.096,0.043 0.096,0.096c0,0.053 -0.043,0.096 -0.096,0.096Zm1.344,0l-0.192,0c-0.053,0 -0.096,-0.043 -0.096,-0.096c0,-0.053 0.043,-0.096 0.096,-0.096l0.192,0c0.053,0 0.096,0.043 0.096,0.096c0,0.053 -0.043,0.096 -0.096,0.096Zm1.344,0l-0.192,0c-0.053,0 -0.096,-0.043 -0.096,-0.096c0,-0.053 0.043,-0.096 0.096,-0.096l0.192,0c0.053,0 0.096,0.043 0.096,0.096c0,0.053 -0.043,0.096 -0.096,0.096Zm1.344,0l-0.192,0c-0.053,0 -0.096,-0.043 -0.096,-0.096c0,-0.053 0.043,-0.096 0.096,-0.096l0.192,0c0.053,0 0.096,0.043 0.096,0.096c0,0.053 -0.043,0.096 -0.096,0.096Zm1.344,0l-0.192,0c-0.053,0 -0.096,-0.043 -0.096,-0.096c0,-0.053 0.043,-0.096 0.096,-0.096l0.192,0c0.053,0 0.096,0.043 0.096,0.096c0,0.053 -0.043,0.096 -0.096,0.096Zm1.344,0l-0.192,0c-0.053,0 -0.096,-0.043 -0.096,-0.096c0,-0.053 0.043,-0.096 0.096,-0.096l0.192,0c0.053,0 0.096,0.043 0.096,0.096c0,0.053 -0.043,0.096 -0.096,0.096Zm1.344,0l-0.192,0c-0.053,0 -0.096,-0.043 -0.096,-0.096c0,-0.053 0.043,-0.096 0.096,-0.096l0.192,0c0.053,0 0.096,0.043 0.096,0.096c0,0.053 -0.043,0.096 -0.096,0.096Zm1.344,0l-0.192,0c-0.053,0 -0.096,-0.043 -0.096,-0.096c0,-0.053 0.043,-0.096 0.096,-0.096l0.192,0c0.053,0 0.096,0.043 0.096,0.096c0,0.053 -0.043,0.096 -0.096,0.096Zm1.344,0l-0.192,0c-0.053,0 -0.096,-0.043 -0.096,-0.096c0,-0.053 0.043,-0.096 0.096,-0.096l0.192,0c0.053,0 0.096,0.043 0.096,0.096c0,0.053 -0.043,0.096 -0.096,0.096Zm1.344,0l-0.192,0c-0.053,0 -0.096,-0.043 -0.096,-0.096c0,-0.053 0.043,-0.096 0.096,-0.096l0.192,0c0.053,0 0.096,0.043 0.096,0.096c0,0.053 -0.043,0.096 -0.096,0.096Zm1.344,0.002l-0.003,0c-0.049,-0.001 -0.099,-0.002 -0.149,-0.002l-0.04,0c-0.053,0 -0.096,-0.043 -0.096,-0.096c0,-0.053 0.043,-0.096 0.096,-0.096l0.04,0c0.051,0 0.103,0 0.154,0.002c0.053,0.002 0.095,0.046 0.093,0.099c-0.002,0.052 -0.045,0.093 -0.096,0.093Zm1.329,0.177c-0.008,0 -0.015,-0.001 -0.023,-0.003c-0.061,-0.015 -0.122,-0.029 -0.184,-0.042c-0.052,-0.011 -0.085,-0.062 -0.074,-0.114c0.011,-0.051 0.06,-0.084 0.114,-0.074c0.064,0.014 0.127,0.028 0.19,0.044c0.052,0.013 0.083,0.065 0.071,0.116c-0.011,0.044 -0.05,0.073 -0.093,0.073Zm1.26,0.46c-0.014,0 -0.029,-0.003 -0.043,-0.01c-0.056,-0.028 -0.113,-0.055 -0.171,-0.081c-0.048,-0.022 -0.07,-0.079 -0.048,-0.127c0.022,-0.049 0.08,-0.069 0.127,-0.048c0.06,0.027 0.118,0.055 0.177,0.084c0.047,0.024 0.067,0.081 0.043,0.129c-0.016,0.034 -0.05,0.053 -0.086,0.053Zm1.13,0.722c-0.021,0 -0.042,-0.007 -0.06,-0.021c-0.049,-0.04 -0.099,-0.078 -0.15,-0.116c-0.042,-0.032 -0.05,-0.093 -0.018,-0.135c0.032,-0.042 0.092,-0.05 0.135,-0.018c0.051,0.039 0.103,0.079 0.153,0.119c0.041,0.033 0.048,0.094 0.015,0.135c-0.019,0.023 -0.047,0.036 -0.075,0.036Zm0.949,0.948c-0.028,0 -0.056,-0.012 -0.074,-0.036c-0.04,-0.049 -0.08,-0.097 -0.121,-0.145c-0.035,-0.04 -0.03,-0.101 0.01,-0.135c0.041,-0.034 0.101,-0.03 0.135,0.01c0.042,0.049 0.084,0.099 0.124,0.149c0.033,0.041 0.027,0.102 -0.014,0.135c-0.018,0.014 -0.039,0.021 -0.06,0.021Zm0.723,1.129c-0.035,0 -0.069,-0.02 -0.086,-0.053c-0.028,-0.056 -0.057,-0.113 -0.086,-0.168c-0.025,-0.047 -0.007,-0.105 0.04,-0.13c0.046,-0.025 0.104,-0.008 0.13,0.04c0.03,0.057 0.06,0.114 0.089,0.172c0.024,0.047 0.005,0.105 -0.043,0.129c-0.013,0.007 -0.028,0.01 -0.043,0.01Zm0.462,1.259c-0.043,0 -0.083,-0.03 -0.093,-0.073c-0.015,-0.061 -0.031,-0.122 -0.048,-0.183c-0.014,-0.051 0.016,-0.104 0.067,-0.118c0.051,-0.014 0.104,0.016 0.118,0.067c0.018,0.062 0.035,0.125 0.05,0.188c0.012,0.052 -0.019,0.104 -0.071,0.116c-0.007,0.002 -0.015,0.003 -0.023,0.003Zm0.178,1.329c-0.052,0 -0.095,-0.041 -0.096,-0.094c-0.002,-0.063 -0.004,-0.126 -0.008,-0.188c-0.003,-0.053 0.038,-0.098 0.091,-0.102c0.052,-0.008 0.098,0.037 0.101,0.09c0.004,0.065 0.007,0.13 0.008,0.195c0.001,0.053 -0.041,0.097 -0.094,0.098l-0.002,0Zm0.002,1.344c-0.053,0 -0.096,-0.043 -0.096,-0.096l0,-0.192c0,-0.053 0.043,-0.096 0.096,-0.096c0.053,0 0.096,0.043 0.096,0.096l0,0.192c0,0.053 -0.043,0.096 -0.096,0.096Zm0,1.344c-0.053,0 -0.096,-0.043 -0.096,-0.096l0,-0.192c0,-0.053 0.043,-0.096 0.096,-0.096c0.053,0 0.096,0.043 0.096,0.096l0,0.192c0,0.053 -0.043,0.096 -0.096,0.096Zm0,1.344c-0.053,0 -0.096,-0.043 -0.096,-0.096l0,-0.192c0,-0.053 0.043,-0.096 0.096,-0.096c0.053,0 0.096,0.043 0.096,0.096l0,0.192c0,0.053 -0.043,0.096 -0.096,0.096Zm0,1.344c-0.053,0 -0.096,-0.043 -0.096,-0.096l0,-0.192c0,-0.053 0.043,-0.096 0.096,-0.096c0.053,0 0.096,0.043 0.096,0.096l0,0.192c0,0.053 -0.043,0.096 -0.096,0.096Zm0,1.344c-0.053,0 -0.096,-0.043 -0.096,-0.096l0,-0.192c0,-0.053 0.043,-0.096 0.096,-0.096c0.053,0 0.096,0.043 0.096,0.096l0,0.192c0,0.053 -0.043,0.096 -0.096,0.096Zm0,1.344c-0.053,0 -0.096,-0.043 -0.096,-0.096l0,-0.192c0,-0.053 0.043,-0.096 0.096,-0.096c0.053,0 0.096,0.043 0.096,0.096l0,0.192c0,0.053 -0.043,0.096 -0.096,0.096Zm0,1.344c-0.053,0 -0.096,-0.043 -0.096,-0.096l0,-0.192c0,-0.053 0.043,-0.096 0.096,-0.096c0.053,0 0.096,0.043 0.096,0.096l0,0.192c0,0.053 -0.043,0.096 -0.096,0.096Zm0,1.344c-0.053,0 -0.096,-0.043 -0.096,-0.096l0,-0.192c0,-0.053 0.043,-0.096 0.096,-0.096c0.053,0 0.096,0.043 0.096,0.096l0,0.192c0,0.053 -0.043,0.096 -0.096,0.096Zm0,1.344c-0.053,0 -0.096,-0.043 -0.096,-0.096l0,-0.192c0,-0.053 0.043,-0.096 0.096,-0.096c0.053,0 0.096,0.043 0.096,0.096l0,0.192c0,0.053 -0.043,0.096 -0.096,0.096Zm0,1.344c-0.053,0 -0.096,-0.043 -0.096,-0.096l0,-0.192c0,-0.053 0.043,-0.096 0.096,-0.096c0.053,0 0.096,0.043 0.096,0.096l0,0.192c0,0.053 -0.043,0.096 -0.096,0.096Zm0,1.344c-0.053,0 -0.096,-0.043 -0.096,-0.096l0,-0.192c0,-0.053 0.043,-0.096 0.096,-0.096c0.053,0 0.096,0.043 0.096,0.096l0,0.192c0,0.053 -0.043,0.096 -0.096,0.096Zm0,1.344c-0.053,0 -0.096,-0.043 -0.096,-0.096l0,-0.192c0,-0.053 0.043,-0.096 0.096,-0.096c0.053,0 0.096,0.043 0.096,0.096l0,0.192c0,0.053 -0.043,0.096 -0.096,0.096Zm0,1.344c-0.053,0 -0.096,-0.043 -0.096,-0.096l0,-0.192c0,-0.053 0.043,-0.096 0.096,-0.096c0.053,0 0.096,0.043 0.096,0.096l0,0.192c0,0.053 -0.043,0.096 -0.096,0.096Zm0,1.344c-0.053,0 -0.096,-0.043 -0.096,-0.096l0,-0.192c0,-0.053 0.043,-0.096 0.096,-0.096c0.053,0 0.096,0.043 0.096,0.096l0,0.192c0,0.053 -0.043,0.096 -0.096,0.096Zm0,1.344c-0.053,0 -0.096,-0.043 -0.096,-0.096l0,-0.192c0,-0.053 0.043,-0.096 0.096,-0.096c0.053,0 0.096,0.043 0.096,0.096l0,0.192c0,0.053 -0.043,0.096 -0.096,0.096Zm0,1.344c-0.053,0 -0.096,-0.043 -0.096,-0.096l0,-0.192c0,-0.053 0.043,-0.096 0.096,-0.096c0.053,0 0.096,0.043 0.096,0.096l0,0.192c0,0.053 -0.043,0.096 -0.096,0.096Zm0,1.344c-0.053,0 -0.096,-0.043 -0.096,-0.096l0,-0.192c0,-0.053 0.043,-0.096 0.096,-0.096c0.053,0 0.096,0.043 0.096,0.096l0,0.192c0,0.053 -0.043,0.096 -0.096,0.096Zm0,1.344c-0.053,0 -0.096,-0.043 -0.096,-0.096l0,-0.192c0,-0.053 0.043,-0.096 0.096,-0.096c0.053,0 0.096,0.043 0.096,0.096l0,0.192c0,0.053 -0.043,0.096 -0.096,0.096Zm0,1.344c-0.053,0 -0.096,-0.043 -0.096,-0.096l0,-0.192c0,-0.053 0.043,-0.096 0.096,-0.096c0.053,0 0.096,0.043 0.096,0.096l0,0.192c0,0.053 -0.043,0.096 -0.096,0.096Zm0,1.344c-0.053,0 -0.096,-0.043 -0.096,-0.096l0,-0.192c0,-0.053 0.043,-0.096 0.096,-0.096c0.053,0 0.096,0.043 0.096,0.096l0,0.192c0,0.053 -0.043,0.096 -0.096,0.096Zm0,1.344c-0.053,0 -0.096,-0.043 -0.096,-0.096l0,-0.192c0,-0.053 0.043,-0.096 0.096,-0.096c0.053,0 0.096,0.043 0.096,0.096l0,0.192c0,0.053 -0.043,0.096 -0.096,0.096Zm0,1.344c-0.053,0 -0.096,-0.043 -0.096,-0.096l0,-0.192c0,-0.053 0.043,-0.096 0.096,-0.096c0.053,0 0.096,0.043 0.096,0.096l0,0.192c0,0.053 -0.043,0.096 -0.096,0.096Zm0,1.344c-0.053,0 -0.096,-0.043 -0.096,-0.096l0,-0.192c0,-0.053 0.043,-0.096 0.096,-0.096c0.053,0 0.096,0.043 0.096,0.096l0,0.192c0,0.053 -0.043,0.096 -0.096,0.096Zm0,1.344c-0.053,0 -0.096,-0.043 -0.096,-0.096l0,-0.192c0,-0.053 0.043,-0.096 0.096,-0.096c0.053,0 0.096,0.043 0.096,0.096l0,0.192c0,0.053 -0.043,0.096 -0.096,0.096Zm0,1.344c-0.053,0 -0.096,-0.043 -0.096,-0.096l0,-0.192c0,-0.053 0.043,-0.096 0.096,-0.096c0.053,0 0.096,0.043 0.096,0.096l0,0.192c0,0.053 -0.043,0.096 -0.096,0.096Zm0,1.344c-0.053,0 -0.096,-0.043 -0.096,-0.096l0,-0.192c0,-0.053 0.043,-0.096 0.096,-0.096c0.053,0 0.096,0.043 0.096,0.096l0,0.192c0,0.053 -0.043,0.096 -0.096,0.096Zm0,1.344c-0.053,0 -0.096,-0.043 -0.096,-0.096l0,-0.192c0,-0.053 0.043,-0.096 0.096,-0.096c0.053,0 0.096,0.043 0.096,0.096l0,0.192c0,0.053 -0.043,0.096 -0.096,0.096Zm0,1.344c-0.053,0 -0.096,-0.043 -0.096,-0.096l0,-0.192c0,-0.053 0.043,-0.096 0.096,-0.096c0.053,0 0.096,0.043 0.096,0.096l0,0.192c0,0.053 -0.043,0.096 -0.096,0.096Zm0,1.344c-0.053,0 -0.096,-0.043 -0.096,-0.096l0,-0.192c0,-0.053 0.043,-0.096 0.096,-0.096c0.053,0 0.096,0.043 0.096,0.096l0,0.192c0,0.053 -0.043,0.096 -0.096,0.096Zm0,1.344c-0.053,0 -0.096,-0.043 -0.096,-0.096l0,-0.192c0,-0.053 0.043,-0.096 0.096,-0.096c0.053,0 0.096,0.043 0.096,0.096l0,0.192c0,0.053 -0.043,0.096 -0.096,0.096Zm0,1.344c-0.053,0 -0.096,-0.043 -0.096,-0.096l0,-0.192c0,-0.053 0.043,-0.096 0.096,-0.096c0.053,0 0.096,0.043 0.096,0.096l0,0.192c0,0.053 -0.043,0.096 -0.096,0.096Zm0,1.344c-0.053,0 -0.096,-0.043 -0.096,-0.096l0,-0.192c0,-0.053 0.043,-0.096 0.096,-0.096c0.053,0 0.096,0.043 0.096,0.096l0,0.192c0,0.053 -0.043,0.096 -0.096,0.096Zm0,1.344c-0.053,0 -0.096,-0.043 -0.096,-0.096l0,-0.192c0,-0.053 0.043,-0.096 0.096,-0.096c0.053,0 0.096,0.043 0.096,0.096l0,0.192c0,0.053 -0.043,0.096 -0.096,0.096Zm0,1.344c-0.053,0 -0.096,-0.043 -0.096,-0.096l0,-0.192c0,-0.053 0.043,-0.096 0.096,-0.096c0.053,0 0.096,0.043 0.096,0.096l0,0.192c0,0.053 -0.043,0.096 -0.096,0.096Zm0,1.344c-0.053,0 -0.096,-0.043 -0.096,-0.096l0,-0.192c0,-0.053 0.043,-0.096 0.096,-0.096c0.053,0 0.096,0.043 0.096,0.096l0,0.192c0,0.053 -0.043,0.096 -0.096,0.096Zm0,1.344c-0.053,0 -0.096,-0.043 -0.096,-0.096l0,-0.192c0,-0.053 0.043,-0.096 0.096,-0.096c0.053,0 0.096,0.043 0.096,0.096l0,0.192c0,0.053 -0.043,0.096 -0.096,0.096Zm0,1.344c-0.053,0 -0.096,-0.043 -0.096,-0.096l0,-0.192c0,-0.053 0.043,-0.096 0.096,-0.096c0.053,0 0.096,0.043 0.096,0.096l0,0.192c0,0.053 -0.043,0.096 -0.096,0.096Zm0,1.344c-0.053,0 -0.096,-0.043 -0.096,-0.096l0,-0.192c0,-0.053 0.043,-0.096 0.096,-0.096c0.053,0 0.096,0.043 0.096,0.096l0,0.192c0,0.053 -0.043,0.096 -0.096,0.096Zm0,1.344c-0.053,0 -0.096,-0.043 -0.096,-0.096l0,-0.192c0,-0.053 0.043,-0.096 0.096,-0.096c0.053,0 0.096,0.043 0.096,0.096l0,0.192c0,0.053 -0.043,0.096 -0.096,0.096Zm0,1.344c-0.053,0 -0.096,-0.043 -0.096,-0.096l0,-0.192c0,-0.053 0.043,-0.096 0.096,-0.096c0.053,0 0.096,0.043 0.096,0.096l0,0.192c0,0.053 -0.043,0.096 -0.096,0.096Zm0,1.344c-0.053,0 -0.096,-0.043 -0.096,-0.096l0,-0.192c0,-0.053 0.043,-0.096 0.096,-0.096c0.053,0 0.096,0.043 0.096,0.096l0,0.192c0,0.053 -0.043,0.096 -0.096,0.096Zm0,1.344c-0.053,0 -0.096,-0.043 -0.096,-0.096l0,-0.192c0,-0.053 0.043,-0.096 0.096,-0.096c0.053,0 0.096,0.043 0.096,0.096l0,0.192c0,0.053 -0.043,0.096 -0.096,0.096Zm0,1.344c-0.053,0 -0.096,-0.043 -0.096,-0.096l0,-0.192c0,-0.053 0.043,-0.096 0.096,-0.096c0.053,0 0.096,0.043 0.096,0.096l0,0.192c0,0.053 -0.043,0.096 -0.096,0.096Zm0,1.344c-0.053,0 -0.096,-0.043 -0.096,-0.096l0,-0.192c0,-0.053 0.043,-0.096 0.096,-0.096c0.053,0 0.096,0.043 0.096,0.096l0,0.192c0,0.053 -0.043,0.096 -0.096,0.096Zm0,1.344c-0.053,0 -0.096,-0.043 -0.096,-0.096l0,-0.192c0,-0.053 0.043,-0.096 0.096,-0.096c0.053,0 0.096,0.043 0.096,0.096l0,0.192c0,0.053 -0.043,0.096 -0.096,0.096Zm0,1.344c-0.053,0 -0.096,-0.043 -0.096,-0.096l0,-0.192c0,-0.053 0.043,-0.096 0.096,-0.096c0.053,0 0.096,0.043 0.096,0.096l0,0.192c0,0.053 -0.043,0.096 -0.096,0.096Zm0,1.344c-0.053,0 -0.096,-0.043 -0.096,-0.096l0,-0.192c0,-0.053 0.043,-0.096 0.096,-0.096c0.053,0 0.096,0.043 0.096,0.096l0,0.192c0,0.053 -0.043,0.096 -0.096,0.096Zm0,1.344c-0.053,0 -0.096,-0.043 -0.096,-0.096l0,-0.192c0,-0.053 0.043,-0.096 0.096,-0.096c0.053,0 0.096,0.043 0.096,0.096l0,0.192c0,0.053 -0.043,0.096 -0.096,0.096Zm0,1.344c-0.053,0 -0.096,-0.043 -0.096,-0.096l0,-0.192c0,-0.053 0.043,-0.096 0.096,-0.096c0.053,0 0.096,0.043 0.096,0.096l0,0.192c0,0.053 -0.043,0.096 -0.096,0.096Zm0,1.344c-0.053,0 -0.096,-0.043 -0.096,-0.096l0,-0.192c0,-0.053 0.043,-0.096 0.096,-0.096c0.053,0 0.096,0.043 0.096,0.096l0,0.192c0,0.053 -0.043,0.096 -0.096,0.096Zm0,1.344c-0.053,0 -0.096,-0.043 -0.096,-0.096l0,-0.192c0,-0.053 0.043,-0.096 0.096,-0.096c0.053,0 0.096,0.043 0.096,0.096l0,0.192c0,0.053 -0.043,0.096 -0.096,0.096Zm0,1.344c-0.053,0 -0.096,-0.043 -0.096,-0.096l0,-0.192c0,-0.053 0.043,-0.096 0.096,-0.096c0.053,0 0.096,0.043 0.096,0.096l0,0.192c0,0.053 -0.043,0.096 -0.096,0.096Zm0,1.344c-0.053,0 -0.096,-0.043 -0.096,-0.096l0,-0.192c0,-0.053 0.043,-0.096 0.096,-0.096c0.053,0 0.096,0.043 0.096,0.096l0,0.192c0,0.053 -0.043,0.096 -0.096,0.096Zm0,1.344c-0.053,0 -0.096,-0.043 -0.096,-0.096l0,-0.192c0,-0.053 0.043,-0.096 0.096,-0.096c0.053,0 0.096,0.043 0.096,0.096l0,0.192c0,0.053 -0.043,0.096 -0.096,0.096Zm0,1.344c-0.053,0 -0.096,-0.043 -0.096,-0.096l0,-0.192c0,-0.053 0.043,-0.096 0.096,-0.096c0.053,0 0.096,0.043 0.096,0.096l0,0.192c0,0.053 -0.043,0.096 -0.096,0.096Zm0,1.344c-0.053,0 -0.096,-0.043 -0.096,-0.096l0,-0.192c0,-0.053 0.043,-0.096 0.096,-0.096c0.053,0 0.096,0.043 0.096,0.096l0,0.192c0,0.053 -0.043,0.096 -0.096,0.096Zm0,1.344c-0.053,0 -0.096,-0.043 -0.096,-0.096l0,-0.192c0,-0.053 0.043,-0.096 0.096,-0.096c0.053,0 0.096,0.043 0.096,0.096l0,0.192c0,0.053 -0.043,0.096 -0.096,0.096Zm0,1.344c-0.053,0 -0.096,-0.043 -0.096,-0.096l0,-0.192c0,-0.053 0.043,-0.096 0.096,-0.096c0.053,0 0.096,0.043 0.096,0.096l0,0.192c0,0.053 -0.043,0.096 -0.096,0.096Zm0,1.344c-0.053,0 -0.096,-0.043 -0.096,-0.096l0,-0.192c0,-0.053 0.043,-0.096 0.096,-0.096c0.053,0 0.096,0.043 0.096,0.096l0,0.192c0,0.053 -0.043,0.096 -0.096,0.096Zm0,1.344c-0.053,0 -0.096,-0.043 -0.096,-0.096l0,-0.192c0,-0.053 0.043,-0.096 0.096,-0.096c0.053,0 0.096,0.043 0.096,0.096l0,0.192c0,0.053 -0.043,0.096 -0.096,0.096Zm0,1.344c-0.053,0 -0.096,-0.043 -0.096,-0.096l0,-0.192c0,-0.053 0.043,-0.096 0.096,-0.096c0.053,0 0.096,0.043 0.096,0.096l0,0.192c0,0.053 -0.043,0.096 -0.096,0.096Zm0,1.344c-0.053,0 -0.096,-0.043 -0.096,-0.096l0,-0.192c0,-0.053 0.043,-0.096 0.096,-0.096c0.053,0 0.096,0.043 0.096,0.096l0,0.192c0,0.053 -0.043,0.096 -0.096,0.096Zm0,1.344c-0.053,0 -0.096,-0.043 -0.096,-0.096l0,-0.192c0,-0.053 0.043,-0.096 0.096,-0.096c0.053,0 0.096,0.043 0.096,0.096l0,0.192c0,0.053 -0.043,0.096 -0.096,0.096Zm0,1.344c-0.053,0 -0.096,-0.043 -0.096,-0.096l0,-0.192c0,-0.053 0.043,-0.096 0.096,-0.096c0.053,0 0.096,0.043 0.096,0.096l0,0.192c0,0.053 -0.043,0.096 -0.096,0.096Zm0,1.344c-0.053,0 -0.096,-0.043 -0.096,-0.096l0,-0.192c0,-0.053 0.043,-0.096 0.096,-0.096c0.053,0 0.096,0.043 0.096,0.096l0,0.192c0,0.053 -0.043,0.096 -0.096,0.096Zm0,1.344c-0.053,0 -0.096,-0.043 -0.096,-0.096l0,-0.192c0,-0.053 0.043,-0.096 0.096,-0.096c0.053,0 0.096,0.043 0.096,0.096l0,0.192c0,0.053 -0.043,0.096 -0.096,0.096Zm0,1.344c-0.053,0 -0.096,-0.043 -0.096,-0.096l0,-0.192c0,-0.053 0.043,-0.096 0.096,-0.096c0.053,0 0.096,0.043 0.096,0.096l0,0.192c0,0.053 -0.043,0.096 -0.096,0.096Zm0,1.344c-0.053,0 -0.096,-0.043 -0.096,-0.096l0,-0.192c0,-0.053 0.043,-0.096 0.096,-0.096c0.053,0 0.096,0.043 0.096,0.096l0,0.192c0,0.053 -0.043,0.096 -0.096,0.096Zm0,1.344c-0.053,0 -0.096,-0.043 -0.096,-0.096l0,-0.192c0,-0.053 0.043,-0.096 0.096,-0.096c0.053,0 0.096,0.043 0.096,0.096l0,0.192c0,0.053 -0.043,0.096 -0.096,0.096Zm0,1.344c-0.053,0 -0.096,-0.043 -0.096,-0.096l0,-0.192c0,-0.053 0.043,-0.096 0.096,-0.096c0.053,0 0.096,0.043 0.096,0.096l0,0.192c0,0.053 -0.043,0.096 -0.096,0.096Zm0,1.344c-0.053,0 -0.096,-0.043 -0.096,-0.096l0,-0.192c0,-0.053 0.043,-0.096 0.096,-0.096c0.053,0 0.096,0.043 0.096,0.096l0,0.192c0,0.053 -0.043,0.096 -0.096,0.096Zm0,1.344c-0.053,0 -0.096,-0.043 -0.096,-0.096l0,-0.192c0,-0.053 0.043,-0.096 0.096,-0.096c0.053,0 0.096,0.043 0.096,0.096l0,0.192c0,0.053 -0.043,0.096 -0.096,0.096Zm0,1.344c-0.053,0 -0.096,-0.043 -0.096,-0.096l0,-0.192c0,-0.053 0.043,-0.096 0.096,-0.096c0.053,0 0.096,0.043 0.096,0.096l0,0.192c0,0.053 -0.043,0.096 -0.096,0.096Zm0,1.344c-0.053,0 -0.096,-0.043 -0.096,-0.096l0,-0.192c0,-0.053 0.043,-0.096 0.096,-0.096c0.053,0 0.096,0.043 0.096,0.096l0,0.192c0,0.053 -0.043,0.096 -0.096,0.096Zm0,1.344c-0.053,0 -0.096,-0.043 -0.096,-0.096l0,-0.192c0,-0.053 0.043,-0.096 0.096,-0.096c0.053,0 0.096,0.043 0.096,0.096l0,0.192c0,0.053 -0.043,0.096 -0.096,0.096Zm0,1.344c-0.053,0 -0.096,-0.043 -0.096,-0.096l0,-0.192c0,-0.053 0.043,-0.096 0.096,-0.096c0.053,0 0.096,0.043 0.096,0.096l0,0.192c0,0.053 -0.043,0.096 -0.096,0.096Zm0,1.344c-0.053,0 -0.096,-0.043 -0.096,-0.096l0,-0.192c0,-0.053 0.043,-0.096 0.096,-0.096c0.053,0 0.096,0.043 0.096,0.096l0,0.192c0,0.053 -0.043,0.096 -0.096,0.096Zm0,1.344c-0.053,0 -0.096,-0.043 -0.096,-0.096l0,-0.192c0,-0.053 0.043,-0.096 0.096,-0.096c0.053,0 0.096,0.043 0.096,0.096l0,0.192c0,0.053 -0.043,0.096 -0.096,0.096Zm0,1.344c-0.053,0 -0.096,-0.043 -0.096,-0.096l0,-0.192c0,-0.053 0.043,-0.096 0.096,-0.096c0.053,0 0.096,0.043 0.096,0.096l0,0.192c0,0.053 -0.043,0.096 -0.096,0.096Zm0,1.344c-0.053,0 -0.096,-0.043 -0.096,-0.096l0,-0.192c0,-0.053 0.043,-0.096 0.096,-0.096c0.053,0 0.096,0.043 0.096,0.096l0,0.192c0,0.053 -0.043,0.096 -0.096,0.096Zm-0.141,1.334c-0.007,0 -0.013,-0.001 -0.02,-0.002c-0.052,-0.011 -0.085,-0.062 -0.074,-0.114c0.013,-0.061 0.026,-0.123 0.037,-0.185c0.01,-0.053 0.06,-0.088 0.112,-0.077c0.052,0.01 0.087,0.06 0.077,0.112c-0.012,0.064 -0.025,0.127 -0.038,0.191c-0.01,0.045 -0.05,0.076 -0.094,0.076Zm-0.426,1.272c-0.013,0 -0.027,-0.003 -0.04,-0.009c-0.048,-0.022 -0.069,-0.079 -0.047,-0.127c0.027,-0.057 0.052,-0.115 0.077,-0.173c0.02,-0.048 0.076,-0.072 0.126,-0.051c0.049,0.021 0.071,0.077 0.051,0.126c-0.026,0.061 -0.052,0.12 -0.079,0.179c-0.016,0.035 -0.051,0.056 -0.087,0.056Zm-0.691,1.149c-0.02,0 -0.041,-0.007 -0.058,-0.02c-0.043,-0.032 -0.05,-0.093 -0.018,-0.135c0.038,-0.05 0.075,-0.101 0.112,-0.152c0.031,-0.043 0.09,-0.053 0.134,-0.023c0.043,0.031 0.053,0.091 0.022,0.134c-0.038,0.053 -0.076,0.105 -0.116,0.157c-0.019,0.025 -0.048,0.038 -0.076,0.038Zm-0.922,0.974c-0.027,0 -0.055,-0.012 -0.073,-0.034c-0.034,-0.04 -0.029,-0.101 0.012,-0.135c0.048,-0.041 0.095,-0.083 0.141,-0.125c0.039,-0.035 0.1,-0.033 0.136,0.007c0.036,0.039 0.033,0.1 -0.007,0.136c-0.048,0.044 -0.097,0.087 -0.147,0.128c-0.018,0.015 -0.04,0.023 -0.062,0.023Zm-1.109,0.753c-0.034,0 -0.068,-0.018 -0.085,-0.051c-0.025,-0.046 -0.007,-0.104 0.04,-0.13c0.055,-0.03 0.111,-0.06 0.166,-0.091c0.046,-0.026 0.104,-0.01 0.131,0.036c0.026,0.046 0.01,0.104 -0.036,0.131c-0.056,0.032 -0.113,0.063 -0.17,0.094c-0.014,0.007 -0.03,0.011 -0.045,0.011Zm-1.246,0.497c-0.042,0 -0.081,-0.028 -0.092,-0.07c-0.015,-0.051 0.015,-0.104 0.066,-0.118c0.061,-0.017 0.121,-0.035 0.182,-0.054c0.051,-0.014 0.105,0.013 0.12,0.064c0.015,0.051 -0.013,0.104 -0.064,0.12c-0.062,0.019 -0.124,0.037 -0.187,0.055c-0.008,0.003 -0.017,0.004 -0.026,0.004Zm-1.323,0.213c-0.051,0 -0.093,-0.04 -0.096,-0.091c-0.002,-0.053 0.038,-0.098 0.091,-0.101c0.063,-0.003 0.126,-0.007 0.188,-0.012c0.055,-0.008 0.099,0.035 0.104,0.088c0.004,0.053 -0.035,0.099 -0.088,0.103c-0.065,0.005 -0.13,0.01 -0.195,0.013l-0.004,0Zm-14.592,0.009l-0.192,0c-0.053,0 -0.096,-0.043 -0.096,-0.096c0,-0.053 0.043,-0.096 0.096,-0.096l0.192,0c0.053,0 0.096,0.043 0.096,0.096c0,0.053 -0.043,0.096 -0.096,0.096Zm1.344,0l-0.192,0c-0.053,0 -0.096,-0.043 -0.096,-0.096c0,-0.053 0.043,-0.096 0.096,-0.096l0.192,0c0.053,0 0.096,0.043 0.096,0.096c0,0.053 -0.043,0.096 -0.096,0.096Zm1.344,0l-0.192,0c-0.053,0 -0.096,-0.043 -0.096,-0.096c0,-0.053 0.043,-0.096 0.096,-0.096l0.192,0c0.053,0 0.096,0.043 0.096,0.096c0,0.053 -0.043,0.096 -0.096,0.096Zm1.344,0l-0.192,0c-0.053,0 -0.096,-0.043 -0.096,-0.096c0,-0.053 0.043,-0.096 0.096,-0.096l0.192,0c0.053,0 0.096,0.043 0.096,0.096c0,0.053 -0.043,0.096 -0.096,0.096Zm1.344,0l-0.192,0c-0.053,0 -0.096,-0.043 -0.096,-0.096c0,-0.053 0.043,-0.096 0.096,-0.096l0.192,0c0.053,0 0.096,0.043 0.096,0.096c0,0.053 -0.043,0.096 -0.096,0.096Zm1.344,0l-0.192,0c-0.053,0 -0.096,-0.043 -0.096,-0.096c0,-0.053 0.043,-0.096 0.096,-0.096l0.192,0c0.053,0 0.096,0.043 0.096,0.096c0,0.053 -0.043,0.096 -0.096,0.096Zm1.344,0l-0.192,0c-0.053,0 -0.096,-0.043 -0.096,-0.096c0,-0.053 0.043,-0.096 0.096,-0.096l0.192,0c0.053,0 0.096,0.043 0.096,0.096c0,0.053 -0.043,0.096 -0.096,0.096Zm1.344,0l-0.192,0c-0.053,0 -0.096,-0.043 -0.096,-0.096c0,-0.053 0.043,-0.096 0.096,-0.096l0.192,0c0.053,0 0.096,0.043 0.096,0.096c0,0.053 -0.043,0.096 -0.096,0.096Zm1.344,0l-0.192,0c-0.053,0 -0.096,-0.043 -0.096,-0.096c0,-0.053 0.043,-0.096 0.096,-0.096l0.192,0c0.053,0 0.096,0.043 0.096,0.096c0,0.053 -0.043,0.096 -0.096,0.096Zm1.344,0l-0.192,0c-0.053,0 -0.096,-0.043 -0.096,-0.096c0,-0.053 0.043,-0.096 0.096,-0.096l0.192,0c0.053,0 0.096,0.043 0.096,0.096c0,0.053 -0.043,0.096 -0.096,0.096Zm1.344,0l-0.192,0c-0.053,0 -0.096,-0.043 -0.096,-0.096c0,-0.053 0.043,-0.096 0.096,-0.096l0.192,0c0.053,0 0.096,0.043 0.096,0.096c0,0.053 -0.043,0.096 -0.096,0.096Z" style="fill:#ffdcb3;fill-rule:nonzero;"/><path d="M49.957,0.584c-1.827,0 -3.313,1.486 -3.313,3.313c0,1.826 1.486,3.312 3.313,3.312c0.064,0 0.128,-0.002 0.192,-0.005c-1.284,-0.566 -2.144,-1.838 -2.144,-3.307c0,-1.446 0.879,-2.736 2.155,-3.307c-0.068,-0.004 -0.135,-0.006 -0.203,-0.006Zm0,7.086c-2.08,0 -3.773,-1.693 -3.773,-3.774c0,-2.081 1.693,-3.774 3.773,-3.774c0.42,0 0.834,0.07 1.231,0.207c0.101,0.035 0.164,0.133 0.154,0.239c-0.01,0.105 -0.09,0.191 -0.195,0.207c-1.529,0.233 -2.682,1.575 -2.682,3.121c0,1.546 1.153,2.888 2.682,3.121c0.105,0.016 0.185,0.101 0.195,0.207c0.01,0.106 -0.054,0.204 -0.154,0.239c-0.397,0.137 -0.811,0.207 -1.231,0.207Z" style="fill:#ffdcb3;fill-rule:nonzero;"/><path d="M51.104,0.646c-1.582,0.253 -2.773,1.646 -2.773,3.251c0,1.604 1.19,2.997 2.773,3.25c1.377,-0.486 2.3,-1.789 2.3,-3.25c0,-1.462 -0.923,-2.765 -2.3,-3.251Zm0.009,6.695c-0.005,0 -0.01,-0 -0.015,-0.001c-1.715,-0.262 -2.959,-1.71 -2.959,-3.444c0,-1.706 1.273,-3.187 2.959,-3.444c0.015,-0.002 0.031,-0.001 0.046,0.004c1.466,0.506 2.451,1.888 2.451,3.44c0,1.551 -0.985,2.933 -2.451,3.44c-0.01,0.003 -0.021,0.005 -0.031,0.005Z" style="fill:#ffdcb3;fill-rule:nonzero;"/><path d="M59.783,3.897c0,-0.621 0.503,-1.124 1.124,-1.124c0.62,0 1.123,0.503 1.123,1.124c0,0.621 -0.503,1.123 -1.123,1.123c-0.621,0 -1.124,-0.503 -1.124,-1.123Z" style="fill:#ffdcb3;fill-rule:nonzero;"/><path d="M37.553,3.897c0,-0.621 0.503,-1.124 1.124,-1.124c0.62,0 1.123,0.503 1.123,1.124c0,0.621 -0.503,1.123 -1.123,1.123c-0.621,0 -1.124,-0.503 -1.124,-1.123Z" style="fill:#ffdcb3;fill-rule:nonzero;"/><path d="M14.537,64.624c0,-0.621 0.503,-1.124 1.123,-1.124c0.621,0 1.124,0.503 1.124,1.124c0,0.621 -0.503,1.123 -1.124,1.123c-0.621,0 -1.123,-0.503 -1.123,-1.123Z" style="fill:#ffdcb3;fill-rule:nonzero;"/><path d="M15.07,26.506c0,-0.326 0.265,-0.591 0.591,-0.591c0.326,0 0.591,0.265 0.591,0.591c0,0.326 -0.265,0.591 -0.591,0.591c-0.326,0 -0.591,-0.265 -0.591,-0.591Z" style="fill:#ffdcb3;fill-rule:nonzero;"/><path d="M49.248,12c0,-0.326 0.265,-0.591 0.591,-0.591c0.326,0 0.591,0.265 0.591,0.591c0,0.326 -0.265,0.591 -0.591,0.591c-0.326,0 -0.591,-0.265 -0.591,-0.591Z" style="fill:#ffdcb3;fill-rule:nonzero;"/><path d="M55.444,9.16c0,-0.326 0.265,-0.591 0.591,-0.591c0.326,0 0.591,0.265 0.591,0.591c0,0.326 -0.265,0.591 -0.591,0.591c-0.326,0 -0.591,-0.265 -0.591,-0.591Z" style="fill:#ffdcb3;fill-rule:nonzero;"/><path d="M42.491,9.16c0,-0.326 0.265,-0.591 0.591,-0.591c0.326,0 0.591,0.265 0.591,0.591c0,0.326 -0.265,0.591 -0.591,0.591c-0.326,0 -0.591,-0.265 -0.591,-0.591Z" style="fill:#ffdcb3;fill-rule:nonzero;"/><path d="M34.476,3.897c0,-0.326 0.265,-0.591 0.591,-0.591c0.326,0 0.591,0.265 0.591,0.591c0,0.326 -0.265,0.591 -0.591,0.591c-0.326,0 -0.591,-0.265 -0.591,-0.591Z" style="fill:#ffdcb3;fill-rule:nonzero;"/><path d="M64.006,3.897c0,-0.326 0.265,-0.591 0.591,-0.591c0.326,0 0.591,0.265 0.591,0.591c0,0.326 -0.265,0.591 -0.591,0.591c-0.326,0 -0.591,-0.265 -0.591,-0.591Z" style="fill:#ffdcb3;fill-rule:nonzero;"/><path d="M15.07,102.743c0,-0.326 0.265,-0.591 0.591,-0.591c0.326,0 0.591,0.264 0.591,0.591c0,0.326 -0.265,0.591 -0.591,0.591c-0.326,0 -0.591,-0.265 -0.591,-0.591Z" style="fill:#ffdcb3;fill-rule:nonzero;"/><path d="M49.838,11.505c-0.053,0 -0.096,-0.043 -0.096,-0.096l0,-2.013c0,-0.053 0.043,-0.096 0.096,-0.096c0.053,0 0.096,0.043 0.096,0.096l0,2.013c0,0.053 -0.043,0.096 -0.096,0.096Z" style="fill:#ffdcb3;fill-rule:nonzero;"/><path d="M43.547,8.852c-0.025,0 -0.049,-0.01 -0.068,-0.028c-0.038,-0.038 -0.038,-0.098 0,-0.136l1.423,-1.423c0.037,-0.038 0.098,-0.038 0.136,0c0.038,0.037 0.038,0.098 0,0.136l-1.423,1.424c-0.019,0.018 -0.043,0.028 -0.068,0.028Z" style="fill:#ffdcb3;fill-rule:nonzero;"/><path d="M55.68,8.852c-0.025,0 -0.049,-0.01 -0.068,-0.028l-1.424,-1.424c-0.037,-0.038 -0.037,-0.098 0,-0.136c0.038,-0.038 0.098,-0.038 0.136,0l1.424,1.423c0.038,0.038 0.038,0.098 0,0.136c-0.019,0.018 -0.043,0.028 -0.068,0.028Z" style="fill:#ffdcb3;fill-rule:nonzero;"/><path d="M57.632,3.993l-2.013,0c-0.053,0 -0.096,-0.043 -0.096,-0.096c0,-0.053 0.043,-0.096 0.096,-0.096l2.013,0c0.053,0 0.096,0.043 0.096,0.096c0,0.053 -0.043,0.096 -0.096,0.096Z" style="fill:#ffdcb3;fill-rule:nonzero;"/><path d="M44.088,3.993l-2.013,0c-0.053,0 -0.096,-0.043 -0.096,-0.096c0,-0.053 0.043,-0.096 0.096,-0.096l2.013,0c0.053,0 0.096,0.043 0.096,0.096c0,0.053 -0.043,0.096 -0.096,0.096Z" style="fill:#ffdcb3;fill-rule:nonzero;"/><path d="M49.835,120.331c-1.826,0 -3.313,1.486 -3.313,3.313c0,1.827 1.486,3.313 3.313,3.313c0.064,0 0.128,-0.002 0.192,-0.006c-1.284,-0.566 -2.144,-1.838 -2.144,-3.307c0,-1.469 0.86,-2.741 2.144,-3.307c-0.064,-0.004 -0.128,-0.006 -0.192,-0.006Zm0,7.086c-2.08,0 -3.773,-1.693 -3.773,-3.773c0,-2.08 1.693,-3.773 3.773,-3.773c0.419,0 0.834,0.069 1.231,0.206c0.1,0.035 0.164,0.133 0.155,0.238c-0.01,0.106 -0.09,0.191 -0.195,0.207c-1.529,0.233 -2.682,1.575 -2.682,3.122c0,1.546 1.153,2.888 2.682,3.121c0.104,0.016 0.185,0.101 0.195,0.207c0.009,0.105 -0.055,0.204 -0.155,0.238c-0.398,0.137 -0.812,0.206 -1.231,0.206Z" style="fill:#ffdcb3;fill-rule:nonzero;"/><path d="M50.983,120.393c-1.582,0.253 -2.773,1.647 -2.773,3.251c0,1.604 1.19,2.997 2.773,3.251c1.377,-0.486 2.3,-1.789 2.3,-3.251c0,-1.461 -0.923,-2.764 -2.3,-3.251Zm0.009,6.695c-0.005,0 -0.01,0 -0.015,-0.001c-1.715,-0.262 -2.959,-1.71 -2.959,-3.444c0,-1.734 1.245,-3.182 2.959,-3.444c0.015,-0.002 0.031,-0.001 0.046,0.004c1.466,0.506 2.451,1.889 2.451,3.44c0,1.551 -0.985,2.933 -2.451,3.44c-0.01,0.003 -0.021,0.005 -0.031,0.005Z" style="fill:#ffdcb3;fill-rule:nonzero;"/><path d="M59.662,123.643c0,0.621 0.503,1.124 1.124,1.124c0.621,0 1.123,-0.503 1.123,-1.124c0,-0.621 -0.503,-1.124 -1.123,-1.124c-0.621,0 -1.124,0.503 -1.124,1.124Z" style="fill:#ffdcb3;fill-rule:nonzero;"/><path d="M37.432,123.643c0,0.621 0.503,1.124 1.124,1.124c0.62,0 1.123,-0.503 1.123,-1.124c0,-0.621 -0.503,-1.124 -1.123,-1.124c-0.621,0 -1.124,0.503 -1.124,1.124Z" style="fill:#ffdcb3;fill-rule:nonzero;"/><path d="M34.355,123.643c0,0.326 0.265,0.591 0.591,0.591c0.326,0 0.591,-0.264 0.591,-0.591c0,-0.326 -0.265,-0.591 -0.591,-0.591c-0.326,0 -0.591,0.265 -0.591,0.591Z" style="fill:#ffdcb3;fill-rule:nonzero;"/><path d="M49.126,115.54c0,0.326 0.265,0.591 0.591,0.591c0.326,0 0.591,-0.264 0.591,-0.591c0,-0.326 -0.265,-0.591 -0.591,-0.591c-0.326,0 -0.591,0.265 -0.591,0.591Z" style="fill:#ffdcb3;fill-rule:nonzero;"/><path d="M42.369,118.449c0,0.326 0.265,0.591 0.591,0.591c0.326,0 0.591,-0.265 0.591,-0.591c0,-0.326 -0.265,-0.591 -0.591,-0.591c-0.326,0 -0.591,0.264 -0.591,0.591Z" style="fill:#ffdcb3;fill-rule:nonzero;"/><path d="M55.416,118.406c0,0.326 0.265,0.591 0.591,0.591c0.326,0 0.591,-0.264 0.591,-0.591c0,-0.326 -0.265,-0.591 -0.591,-0.591c-0.326,0 -0.591,0.265 -0.591,0.591Z" style="fill:#ffdcb3;fill-rule:nonzero;"/><path d="M63.884,123.643c0,0.326 0.265,0.591 0.591,0.591c0.326,0 0.591,-0.264 0.591,-0.591c0,-0.326 -0.265,-0.591 -0.591,-0.591c-0.326,0 -0.591,0.265 -0.591,0.591Z" style="fill:#ffdcb3;fill-rule:nonzero;"/><path d="M49.717,118.24c-0.053,0 -0.096,-0.043 -0.096,-0.096l0,-2.013c0,-0.053 0.043,-0.096 0.096,-0.096c0.053,0 0.096,0.043 0.096,0.096l0,2.013c0,0.053 -0.043,0.096 -0.096,0.096Z" style="fill:#ffdcb3;fill-rule:nonzero;"/><path d="M44.849,120.303c-0.025,0 -0.049,-0.01 -0.068,-0.028l-1.423,-1.423c-0.037,-0.037 -0.037,-0.098 0,-0.136c0.038,-0.038 0.098,-0.038 0.136,0l1.423,1.423c0.038,0.037 0.038,0.098 0,0.136c-0.019,0.019 -0.043,0.028 -0.068,0.028Z" style="fill:#ffdcb3;fill-rule:nonzero;"/><path d="M54.135,120.303c-0.025,0 -0.049,-0.01 -0.068,-0.028c-0.038,-0.037 -0.038,-0.098 0,-0.136l1.423,-1.423c0.038,-0.038 0.098,-0.038 0.136,0c0.037,0.037 0.037,0.098 0,0.136l-1.424,1.423c-0.018,0.019 -0.043,0.028 -0.068,0.028Z" style="fill:#ffdcb3;fill-rule:nonzero;"/><path d="M57.511,123.739l-2.013,0c-0.053,0 -0.096,-0.043 -0.096,-0.096c0,-0.053 0.043,-0.096 0.096,-0.096l2.013,0c0.053,0 0.096,0.043 0.096,0.096c0,0.053 -0.043,0.096 -0.096,0.096Z" style="fill:#ffdcb3;fill-rule:nonzero;"/><path d="M43.967,123.739l-2.013,0c-0.053,0 -0.096,-0.043 -0.096,-0.096c0,-0.053 0.043,-0.096 0.096,-0.096l2.013,0c0.053,0 0.096,0.043 0.096,0.096c0,0.053 -0.043,0.096 -0.096,0.096Z" style="fill:#ffdcb3;fill-rule:nonzero;"/><path d="M15.66,102.839c-0.053,0 -0.096,-0.043 -0.096,-0.096l0,-76.237c0,-0.053 0.043,-0.096 0.096,-0.096c0.053,0 0.096,0.043 0.096,0.096l0,76.237c0,0.053 -0.043,0.096 -0.096,0.096Z" style="fill:#ffdcb3;fill-rule:nonzero;"/><path d="M82.914,64.624c0,-0.621 0.503,-1.124 1.124,-1.124c0.621,0 1.124,0.503 1.124,1.124c0,0.621 -0.503,1.123 -1.124,1.123c-0.621,0 -1.124,-0.503 -1.124,-1.123Z" style="fill:#ffdcb3;fill-rule:nonzero;"/><path d="M83.447,26.506c0,-0.326 0.265,-0.591 0.591,-0.591c0.326,0 0.591,0.265 0.591,0.591c0,0.326 -0.265,0.591 -0.591,0.591c-0.326,0 -0.591,-0.265 -0.591,-0.591Z" style="fill:#ffdcb3;fill-rule:nonzero;"/><path d="M83.447,102.743c0,-0.326 0.265,-0.591 0.591,-0.591c0.326,0 0.591,0.264 0.591,0.591c0,0.326 -0.265,0.591 -0.591,0.591c-0.326,0 -0.591,-0.265 -0.591,-0.591Z" style="fill:#ffdcb3;fill-rule:nonzero;"/><path d="M84.038,102.839c-0.053,0 -0.096,-0.043 -0.096,-0.096l0,-76.237c0,-0.053 0.043,-0.096 0.096,-0.096c0.053,0 0.096,0.043 0.096,0.096l0,76.237c0,0.053 -0.043,0.096 -0.096,0.096Z" style="fill:#ffdcb3;fill-rule:nonzero;"/></g><g id="Frames-sin-fondo" serif:id="Frames sin fondo"></g></svg>