<?xml version="1.0" encoding="UTF-8" standalone="no"?><!DOCTYPE svg PUBLIC "-//W3C//DTD SVG 1.1//EN" "http://www.w3.org/Graphics/SVG/1.1/DTD/svg11.dtd"><svg width="100%" height="100%" viewBox="0 0 96 128" version="1.1" xmlns="http://www.w3.org/2000/svg" xmlns:xlink="http://www.w3.org/1999/xlink" xml:space="preserve" xmlns:serif="http://www.serif.com/" style="fill-rule:evenodd;clip-rule:evenodd;stroke-linejoin:round;stroke-miterlimit:2;"><g id="Contactado"><path d="M79.801,127.804l-59.486,0c-5.104,0 -9.242,-4.138 -9.242,-9.242l0,-109.054c0,-5.104 4.138,-9.242 9.242,-9.242l59.486,0c5.103,0 9.242,4.138 9.242,9.242l0,109.054c0,5.104 -4.139,9.242 -9.242,9.242Z" style="fill:#002d4b;fill-rule:nonzero;"/><g><path d="M48.708,31.517l0.006,0l-0.006,0Zm2.592,-3.538c-0.184,0.27 -0.372,0.54 -0.559,0.811c-0.638,0.915 -1.295,1.862 -1.833,2.837l-0.001,0.002l-0.091,0.166c-0.644,1.2 -0.282,3.044 -0.097,3.781c0.338,1.345 0.974,2.607 1.589,3.829c0.055,0.108 0.084,0.133 0.093,0.138c-0.004,-0.005 0.028,-0.021 0.095,-0.109c0.599,-0.78 1.349,-2.023 1.528,-3.524c0.179,-1.482 0.016,-2.987 -0.151,-4.281c-0.105,-0.811 -0.224,-1.624 -0.354,-2.415l-0.031,-0.186c-0.054,-0.327 -0.107,-0.655 -0.173,-0.98c-0.005,-0.025 -0.01,-0.048 -0.016,-0.068Zm-0.897,11.564l0.006,0l-0.006,0Zm-0.009,0.453c-0.011,0 -0.022,-0.001 -0.034,-0.002c-0.275,-0.022 -0.408,-0.287 -0.459,-0.387c-0.626,-1.243 -1.273,-2.527 -1.624,-3.921c-0.198,-0.79 -0.581,-2.768 0.138,-4.106l0.095,-0.173c0.549,-0.996 1.214,-1.952 1.858,-2.877c0.201,-0.289 0.401,-0.577 0.597,-0.865c0.134,-0.195 0.278,-0.28 0.437,-0.247c0.261,0.052 0.328,0.381 0.361,0.539c0.067,0.331 0.12,0.664 0.175,0.998l0.031,0.185c0.131,0.797 0.252,1.614 0.358,2.43c0.171,1.322 0.337,2.861 0.151,4.394c-0.192,1.602 -0.986,2.921 -1.618,3.746c-0.061,0.079 -0.218,0.286 -0.465,0.286Z" style="fill:#ffdcb3;fill-rule:nonzero;"/><path d="M50.415,42.822c-0.126,0 -0.228,-0.102 -0.228,-0.227l0,-2.827c0,-0.126 0.102,-0.228 0.228,-0.228c0.126,0 0.228,0.102 0.228,0.228l0,2.827c0,0.125 -0.102,0.227 -0.228,0.227Z" style="fill:#ffdcb3;fill-rule:nonzero;"/><path d="M48.708,31.517c-0.031,0.056 -0.063,0.113 -0.093,0.171c-0.596,1.11 -0.412,2.768 -0.117,3.944c0.343,1.359 0.977,2.624 1.607,3.875c0.059,0.118 0.141,0.252 0.273,0.262c0.124,0.01 0.224,-0.098 0.3,-0.196c0.805,-1.05 1.415,-2.316 1.574,-3.635c0.174,-1.444 0.033,-2.903 -0.152,-4.338c-0.104,-0.81 -0.223,-1.617 -0.356,-2.423c-0.064,-0.391 -0.125,-0.785 -0.204,-1.174c-0.048,-0.232 -0.146,-0.562 -0.387,-0.209c-0.829,1.217 -1.729,2.431 -2.444,3.723Z" style="fill:#ffdcb3;fill-rule:nonzero;"/><path d="M58.754,92.91c-0.126,0 -0.228,-0.102 -0.228,-0.227l0,-35.877c0,-0.125 0.102,-0.227 0.228,-0.227c0.125,0 0.227,0.102 0.227,0.227l0,35.877c0,0.125 -0.102,0.227 -0.227,0.227Z" style="fill:#ffdcb3;fill-rule:nonzero;"/><path d="M40.944,55.703c-0.125,0 -0.227,-0.102 -0.227,-0.228l0,-10.86c0,-0.125 0.102,-0.227 0.227,-0.227c0.126,0 0.228,0.102 0.228,0.227l0,10.86c0,0.126 -0.102,0.228 -0.228,0.228Z" style="fill:#ffdcb3;fill-rule:nonzero;"/><path d="M40.944,92.91c-0.125,0 -0.227,-0.102 -0.227,-0.227l0,-23.074c0,-0.126 0.102,-0.227 0.227,-0.227c0.126,0 0.228,0.101 0.228,0.227l0,23.074c0,0.125 -0.102,0.227 -0.228,0.227Z" style="fill:#ffdcb3;fill-rule:nonzero;"/><path d="M36.277,92.91l0,3.557c0,2.061 1.678,3.738 3.738,3.738l19.669,0c2.061,0 3.738,-1.677 3.738,-3.738l0,-3.557l-27.144,0Zm23.407,7.75l-19.669,0c-2.312,0 -4.192,-1.881 -4.192,-4.192l0,-4.012l28.054,0l0,4.012c0,2.311 -1.881,4.192 -4.192,4.192Z" style="fill:#ffdcb3;fill-rule:nonzero;"/><path d="M56.614,45.789c0.25,0 0.513,0.106 0.728,0.301c0.434,0.394 0.624,1.045 0.52,1.787c-0.051,0.376 -0.166,0.734 -0.275,1.081c-0.063,0.198 -0.127,0.398 -0.177,0.599c-0.16,0.627 -0.136,1.135 0.07,1.509c0.061,0.113 0.14,0.217 0.217,0.321c0.111,0.146 0.225,0.298 0.306,0.48c0.256,0.567 0.204,1.3 0.158,1.948c-0.017,0.236 -0.034,0.462 -0.034,0.667c0,0.519 0.038,1.186 0.324,1.759c0.073,0.146 0.14,0.235 0.217,0.29c0.077,0.055 0.142,0.065 0.222,0.034c0.339,-0.132 0.702,-0.894 0.779,-1.249c0.048,-0.228 0.059,-0.463 0.07,-0.713c0.008,-0.191 0.016,-0.382 0.042,-0.571c0.088,-0.656 0.415,-1.141 0.731,-1.61c0.221,-0.328 0.43,-0.638 0.56,-1.001c0.203,-0.563 0.304,-1.23 0.321,-2.097c0.006,-0.384 -0.003,-0.769 -0.014,-1.153c-0.013,-0.567 -0.029,-1.153 0.012,-1.735c0.02,-0.305 0.056,-0.61 0.093,-0.913c0.055,-0.461 0.113,-0.937 0.11,-1.402c-0.004,-0.6 -0.122,-1.437 -0.662,-2.019c-0.491,-0.529 -1.315,-0.75 -2.005,-0.538c-0.275,0.085 -0.531,0.23 -0.803,0.383c-0.149,0.085 -0.299,0.168 -0.452,0.243c-1.6,0.779 -3.559,0.728 -5.135,0.687l-3.642,-0.095c-0.739,-0.019 -1.577,-0.041 -2.346,-0.304c-0.774,-0.266 -1.43,-0.757 -2.066,-1.231c-0.277,-0.207 -0.554,-0.415 -0.841,-0.603c-0.646,-0.424 -1.268,-0.666 -1.847,-0.718c-0.789,-0.07 -1.552,0.272 -2.05,0.916c-0.484,0.626 -0.613,1.4 -0.354,2.124c0.099,0.274 0.273,0.538 0.507,0.764c0.243,0.236 0.555,0.387 0.885,0.549c0.516,0.253 1.049,0.513 1.349,1.115c0.185,0.373 0.199,0.759 0.213,1.131c0.014,0.381 0.027,0.74 0.226,1.053c0.143,0.225 0.334,0.383 0.538,0.445c0.169,0.053 0.336,0.035 0.493,-0.049c0.221,-0.119 0.409,-0.368 0.494,-0.65c0.108,-0.367 0.116,-0.756 0.123,-1.167c0.005,-0.311 0.01,-0.631 0.063,-0.949c0.124,-0.756 0.8,-1.227 1.675,-1.194c0.804,0.038 1.1,0.494 1.389,0.935c0.114,0.178 0.234,0.36 0.391,0.528c0.275,0.295 0.667,0.34 0.878,0.34c0.079,0 0.196,-0.041 0.308,-0.082c0.206,-0.074 0.437,-0.156 0.668,-0.082c0.424,0.135 0.53,0.653 0.581,0.901c0.278,1.368 0.279,2.812 0.002,4.179c-0.225,1.107 -0.502,2.471 0.094,3.448c0.213,0.348 0.547,0.541 0.897,0.515c0.351,-0.027 0.657,-0.268 0.817,-0.647c0.37,-0.869 0.128,-2.115 -0.067,-3.116c-0.038,-0.195 -0.074,-0.383 -0.105,-0.559c-0.152,-0.872 -0.322,-1.861 -0.2,-2.84c0.046,-0.374 0.34,-2.243 1.571,-2.336c0.479,-0.033 0.974,0.21 1.256,0.63l0.049,0.072c0.406,0.608 0.639,0.826 1.041,0.585c0.099,-0.059 0.189,-0.153 0.285,-0.253c0.149,-0.156 0.318,-0.333 0.565,-0.408c0.077,-0.023 0.157,-0.035 0.239,-0.035Zm2.192,11.248c-0.139,0 -0.275,-0.045 -0.401,-0.135c-0.184,-0.131 -0.294,-0.324 -0.361,-0.459c-0.329,-0.657 -0.372,-1.394 -0.372,-1.962c0,-0.215 0.016,-0.453 0.034,-0.7c0.042,-0.594 0.089,-1.266 -0.118,-1.729c-0.062,-0.135 -0.156,-0.261 -0.255,-0.393c-0.091,-0.121 -0.182,-0.243 -0.254,-0.375c-0.261,-0.48 -0.299,-1.098 -0.11,-1.84c0.053,-0.21 0.119,-0.418 0.185,-0.624c0.109,-0.344 0.212,-0.669 0.259,-1.006c0.081,-0.583 -0.059,-1.102 -0.376,-1.388c-0.164,-0.149 -0.371,-0.213 -0.528,-0.167c-0.132,0.041 -0.243,0.155 -0.369,0.287c-0.113,0.117 -0.228,0.239 -0.381,0.33c-0.839,0.498 -1.347,-0.267 -1.652,-0.724l-0.047,-0.071c-0.189,-0.281 -0.526,-0.455 -0.845,-0.43c-0.727,0.056 -1.068,1.245 -1.153,1.938c-0.113,0.913 0.051,1.866 0.197,2.707c0.029,0.174 0.066,0.359 0.103,0.552c0.207,1.061 0.463,2.382 0.041,3.379c-0.228,0.539 -0.679,0.884 -1.204,0.923c-0.528,0.042 -1.015,-0.236 -1.318,-0.732c-0.689,-1.129 -0.393,-2.591 -0.154,-3.764c0.268,-1.318 0.267,-2.7 0.001,-4.008c-0.027,-0.138 -0.103,-0.505 -0.274,-0.559c-0.081,-0.027 -0.239,0.028 -0.376,0.077c-0.149,0.053 -0.302,0.107 -0.461,0.107l-0.001,0c-0.489,-0.001 -0.919,-0.172 -1.21,-0.484c-0.184,-0.197 -0.32,-0.406 -0.441,-0.591c-0.275,-0.423 -0.458,-0.702 -1.029,-0.728c-0.494,-0.031 -1.1,0.174 -1.205,0.813c-0.047,0.286 -0.052,0.576 -0.057,0.883c-0.007,0.424 -0.016,0.862 -0.142,1.29c-0.119,0.4 -0.386,0.744 -0.715,0.921c-0.263,0.142 -0.553,0.171 -0.84,0.084c-0.308,-0.095 -0.588,-0.32 -0.789,-0.636c-0.266,-0.416 -0.282,-0.855 -0.297,-1.28c-0.013,-0.34 -0.024,-0.66 -0.166,-0.946c-0.231,-0.463 -0.673,-0.68 -1.142,-0.909c-0.347,-0.17 -0.705,-0.346 -1,-0.631c-0.284,-0.274 -0.498,-0.598 -0.62,-0.937c-0.308,-0.861 -0.15,-1.816 0.423,-2.556c0.595,-0.768 1.516,-1.178 2.45,-1.091c0.657,0.059 1.348,0.324 2.058,0.79l0,0.001c0.295,0.193 0.579,0.406 0.863,0.618c0.635,0.474 1.235,0.922 1.942,1.165c0.701,0.242 1.468,0.261 2.21,0.28l3.641,0.095c1.524,0.038 3.423,0.088 4.924,-0.641c0.146,-0.071 0.286,-0.151 0.429,-0.231c0.279,-0.158 0.569,-0.322 0.893,-0.421c0.865,-0.267 1.856,0.002 2.47,0.663c0.64,0.69 0.779,1.646 0.783,2.325c0.004,0.493 -0.056,0.984 -0.113,1.459c-0.036,0.297 -0.071,0.593 -0.092,0.89c-0.039,0.559 -0.023,1.135 -0.009,1.692c0.01,0.391 0.02,0.782 0.013,1.173c-0.01,0.578 -0.057,1.439 -0.347,2.243c-0.15,0.416 -0.385,0.764 -0.611,1.101c-0.301,0.446 -0.585,0.866 -0.658,1.417c-0.023,0.175 -0.031,0.352 -0.038,0.53c-0.011,0.257 -0.023,0.524 -0.08,0.789c-0.071,0.326 -0.469,1.347 -1.059,1.577c-0.083,0.032 -0.167,0.048 -0.248,0.048Z" style="fill:#ffdcb3;fill-rule:nonzero;"/><path d="M40.169,58.025l0.006,0l-0.006,0Zm0.985,-2.442c-0.002,0.005 -0.017,0.017 -0.038,0.041c-0.188,0.208 -0.228,0.516 -0.271,0.842c-0.019,0.144 -0.039,0.286 -0.069,0.423c-0.106,0.468 -0.237,0.87 -0.401,1.23l-0.001,0.002c-0.064,0.14 -0.134,0.278 -0.213,0.412c-0.095,0.161 -0.193,0.299 -0.288,0.43c-0.197,0.273 -0.353,0.488 -0.415,0.856c-0.045,0.26 -0.085,0.559 -0.002,0.811c0.049,0.149 0.144,0.29 0.244,0.439c0.062,0.091 0.124,0.183 0.178,0.279c0.268,0.475 0.336,1.013 0.371,1.524c0.078,1.169 -0.006,2.343 -0.249,3.491l-0.018,0.081c-0.164,0.774 -0.351,1.65 -0.085,2.382c0.105,0.289 0.379,0.518 0.682,0.57c0.297,0.052 0.671,0.005 0.823,-0.828c0.156,-0.847 0.171,-1.703 0.173,-2.655c0.003,-2.039 -0.04,-4.114 -0.083,-6.12l-0.002,-0.093c-0.002,-0.093 0.001,-0.261 0.005,-0.478c0.065,-3.264 -0.25,-3.606 -0.342,-3.637Zm-0.418,14.28c-0.079,0 -0.158,-0.008 -0.233,-0.02c-0.466,-0.08 -0.872,-0.418 -1.034,-0.863c-0.309,-0.854 -0.108,-1.798 0.069,-2.631l0.017,-0.081c0.234,-1.106 0.316,-2.239 0.24,-3.366c-0.031,-0.458 -0.09,-0.936 -0.314,-1.332c-0.048,-0.085 -0.103,-0.166 -0.157,-0.247c-0.113,-0.167 -0.23,-0.341 -0.3,-0.551c-0.117,-0.352 -0.069,-0.717 -0.015,-1.031c0.081,-0.472 0.292,-0.764 0.495,-1.046c0.087,-0.12 0.179,-0.245 0.265,-0.394c0.071,-0.12 0.134,-0.244 0.192,-0.371c0.15,-0.331 0.272,-0.704 0.37,-1.142c0.028,-0.122 0.044,-0.252 0.063,-0.382c0.048,-0.362 0.102,-0.774 0.384,-1.087c0.047,-0.052 0.182,-0.218 0.401,-0.192c0.709,0.058 0.822,1.612 0.772,4.102c-0.004,0.208 -0.008,0.369 -0.005,0.458l0.002,0.095c0.042,2.009 0.087,4.086 0.083,6.131c-0.002,0.974 -0.019,1.852 -0.181,2.736c-0.177,0.969 -0.664,1.214 -1.113,1.214Z" style="fill:#ffdcb3;fill-rule:nonzero;"/><path d="M55.903,59.353c-0.011,0 -0.023,0.001 -0.035,0.002c-0.085,0.009 -0.18,0.112 -0.273,0.3c-0.226,0.452 -0.317,0.915 -0.412,1.407c-0.03,0.157 -0.06,0.316 -0.096,0.477c-0.134,0.609 -0.164,1.049 0.081,1.499c0.054,0.1 0.203,0.334 0.421,0.367c0.485,0.075 0.768,-0.094 0.908,-0.541c0.159,-0.505 0.092,-1.236 0.048,-1.719l-0.013,-0.147c-0.031,-0.356 -0.113,-1.3 -0.445,-1.576c-0.056,-0.046 -0.114,-0.068 -0.183,-0.068Zm-0.109,4.522c-0.088,0 -0.178,-0.007 -0.272,-0.021c-0.297,-0.044 -0.573,-0.263 -0.754,-0.6c-0.344,-0.635 -0.25,-1.244 -0.124,-1.814c0.035,-0.157 0.064,-0.312 0.094,-0.466c0.096,-0.499 0.196,-1.016 0.45,-1.523c0.063,-0.126 0.255,-0.511 0.637,-0.549c0.199,-0.023 0.394,0.038 0.553,0.168c0.478,0.397 0.564,1.404 0.606,1.887l0.013,0.146c0.048,0.52 0.12,1.305 -0.067,1.897c-0.182,0.577 -0.572,0.876 -1.136,0.876Z" style="fill:#ffdcb3;fill-rule:nonzero;"/></g><path d="M14.126,60.997c-0.053,0 -0.096,-0.043 -0.096,-0.096l0,-51.031c0,-3.758 3.057,-6.815 6.815,-6.815l21.472,0c0.053,0 0.096,0.043 0.096,0.096c0,0.053 -0.043,0.096 -0.096,0.096l-21.472,0c-3.651,0 -6.622,2.971 -6.622,6.622l0,51.031c0,0.053 -0.043,0.096 -0.096,0.096Z" style="fill:#ffdcb3;fill-rule:nonzero;"/><path d="M42.295,124.945l-21.451,0c-3.758,0 -6.815,-3.057 -6.815,-6.815l0,-51.031c0,-0.053 0.043,-0.096 0.096,-0.096c0.053,0 0.096,0.043 0.096,0.096l0,51.031c0,3.652 2.971,6.622 6.622,6.622l21.451,0c0.053,0 0.096,0.043 0.096,0.096c0,0.053 -0.044,0.096 -0.096,0.096Z" style="fill:#ffdcb3;fill-rule:nonzero;"/><path d="M17.247,7.558c0,-0.623 0.505,-1.128 1.128,-1.128c0.623,0 1.128,0.505 1.128,1.128c0,0.622 -0.505,1.127 -1.128,1.127c-0.623,0 -1.128,-0.505 -1.128,-1.127Z" style="fill:#ffdcb3;fill-rule:nonzero;"/><path d="M14.126,67.196c-0.053,0 -0.096,-0.043 -0.096,-0.096c0,-0.053 0.043,-0.096 0.096,-0.096c1.656,0 3.003,-1.347 3.003,-3.003c0,-1.656 -1.347,-3.003 -3.003,-3.003c-0.053,0 -0.096,-0.043 -0.096,-0.096c0,-0.053 0.043,-0.096 0.096,-0.096c1.762,0 3.196,1.434 3.196,3.196c0,1.762 -1.434,3.196 -3.196,3.196Z" style="fill:#ffdcb3;fill-rule:nonzero;"/><path d="M20.833,5.265c-0.026,0 -0.053,-0.01 -0.071,-0.032c-0.042,-0.047 -0.085,-0.092 -0.129,-0.137c-0.038,-0.037 -0.038,-0.099 0,-0.136c0.038,-0.037 0.099,-0.037 0.136,0c0.047,0.047 0.092,0.094 0.136,0.143c0.035,0.039 0.032,0.101 -0.007,0.136c-0.019,0.017 -0.041,0.025 -0.064,0.025Zm0.684,1.153c-0.04,0 -0.077,-0.025 -0.091,-0.064c-0.021,-0.059 -0.043,-0.117 -0.067,-0.175c-0.02,-0.049 0.003,-0.105 0.052,-0.126c0.05,-0.02 0.106,0.002 0.126,0.052c0.026,0.061 0.049,0.123 0.071,0.185c0.018,0.05 -0.008,0.105 -0.058,0.123c-0.011,0.004 -0.022,0.006 -0.032,0.006Zm0.193,1.326l-0.005,0c-0.053,-0.002 -0.094,-0.047 -0.092,-0.101c0.002,-0.056 0.004,-0.113 0.004,-0.169c0,-0.053 0.044,-0.106 0.096,-0.106c0.053,0 0.096,0.034 0.096,0.087l0,0.019c0,0.059 -0.002,0.118 -0.004,0.178c-0.003,0.052 -0.045,0.092 -0.096,0.092Zm-0.324,1.301c-0.014,0 -0.028,-0.003 -0.041,-0.009c-0.048,-0.023 -0.069,-0.08 -0.046,-0.128c0.027,-0.057 0.052,-0.114 0.076,-0.172c0.02,-0.049 0.077,-0.073 0.125,-0.053c0.049,0.02 0.073,0.076 0.053,0.125c-0.024,0.061 -0.05,0.122 -0.079,0.182c-0.017,0.035 -0.051,0.055 -0.087,0.055Zm-5.521,1.026c-0.024,0 -0.048,-0.009 -0.067,-0.027l-0.057,-0.055c-0.037,-0.038 -0.037,-0.099 0.001,-0.136c0.038,-0.037 0.099,-0.037 0.136,0.001l0.053,0.052c0.039,0.037 0.04,0.098 0.003,0.136c-0.019,0.02 -0.044,0.03 -0.069,0.03Zm4.724,0.052c-0.026,0 -0.052,-0.01 -0.071,-0.031c-0.036,-0.039 -0.033,-0.1 0.006,-0.136c0.037,-0.034 0.073,-0.068 0.109,-0.104l0.026,-0.027c0.037,-0.038 0.098,-0.038 0.136,-0.002c0.038,0.037 0.039,0.098 0.001,0.136l-0.029,0.029c-0.037,0.037 -0.075,0.073 -0.114,0.109c-0.018,0.017 -0.042,0.025 -0.065,0.025Zm-3.596,0.669c-0.012,0 -0.023,-0.002 -0.035,-0.007c-0.061,-0.024 -0.122,-0.05 -0.182,-0.077c-0.049,-0.022 -0.07,-0.079 -0.048,-0.128c0.022,-0.049 0.08,-0.069 0.128,-0.048c0.057,0.026 0.114,0.05 0.173,0.073c0.05,0.019 0.074,0.075 0.055,0.124c-0.015,0.038 -0.052,0.062 -0.09,0.062Zm2.45,0.027c-0.04,0 -0.077,-0.024 -0.091,-0.063c-0.018,-0.05 0.008,-0.106 0.058,-0.123c0.059,-0.022 0.116,-0.045 0.174,-0.069c0.049,-0.021 0.106,0.002 0.126,0.05c0.021,0.049 -0.002,0.106 -0.05,0.126c-0.061,0.026 -0.122,0.051 -0.185,0.073c-0.011,0.004 -0.022,0.006 -0.033,0.006Zm-1.189,0.21c-0.046,0 -0.093,-0.001 -0.139,-0.002c-0.053,-0.002 -0.094,-0.047 -0.092,-0.1c0.002,-0.052 0.045,-0.093 0.096,-0.093l0.004,0c0.043,0.002 0.087,0.002 0.131,0.002l0.055,-0c0.057,-0 0.097,0.041 0.098,0.094c0.001,0.053 -0.041,0.097 -0.094,0.098l-0.059,0Z" style="fill:#ffdcb3;fill-rule:nonzero;"/><path d="M15.81,10.121c-0.053,0 -0.096,-0.043 -0.096,-0.096l0,-0.096c0,-0.054 0.043,-0.096 0.096,-0.096c0.053,0 0.096,0.043 0.096,0.096l0,0.096c0,0.053 -0.043,0.096 -0.096,0.096Z" style="fill:#ffdcb3;fill-rule:nonzero;"/><path d="M15.81,11.49c-0.053,0 -0.096,-0.043 -0.096,-0.096l0,-0.195c0,-0.053 0.043,-0.096 0.096,-0.096c0.053,0 0.096,0.043 0.096,0.096l0,0.195c0,0.053 -0.043,0.096 -0.096,0.096Zm0,1.369c-0.053,0 -0.096,-0.043 -0.096,-0.096l0,-0.195c0,-0.054 0.043,-0.096 0.096,-0.096c0.053,0 0.096,0.043 0.096,0.096l0,0.195c0,0.054 -0.043,0.096 -0.096,0.096Zm0,1.369c-0.053,0 -0.096,-0.043 -0.096,-0.096l0,-0.196c0,-0.053 0.043,-0.096 0.096,-0.096c0.053,0 0.096,0.043 0.096,0.096l0,0.196c0,0.053 -0.043,0.096 -0.096,0.096Zm0,1.369c-0.053,0 -0.096,-0.043 -0.096,-0.096l0,-0.196c0,-0.053 0.043,-0.096 0.096,-0.096c0.053,0 0.096,0.043 0.096,0.096l0,0.196c0,0.053 -0.043,0.096 -0.096,0.096Zm0,1.369c-0.053,0 -0.096,-0.043 -0.096,-0.096l0,-0.196c0,-0.053 0.043,-0.096 0.096,-0.096c0.053,0 0.096,0.043 0.096,0.096l0,0.196c0,0.053 -0.043,0.096 -0.096,0.096Zm0,1.369c-0.053,0 -0.096,-0.043 -0.096,-0.096l0,-0.196c0,-0.053 0.043,-0.096 0.096,-0.096c0.053,0 0.096,0.043 0.096,0.096l0,0.196c0,0.053 -0.043,0.096 -0.096,0.096Zm0,1.369c-0.053,0 -0.096,-0.043 -0.096,-0.096l0,-0.196c0,-0.053 0.043,-0.096 0.096,-0.096c0.053,0 0.096,0.043 0.096,0.096l0,0.196c0,0.053 -0.043,0.096 -0.096,0.096Zm0,1.369c-0.053,0 -0.096,-0.043 -0.096,-0.096l0,-0.195c0,-0.053 0.043,-0.096 0.096,-0.096c0.053,0 0.096,0.043 0.096,0.096l0,0.195c0,0.054 -0.043,0.096 -0.096,0.096Zm0,1.369c-0.053,0 -0.096,-0.043 -0.096,-0.096l0,-0.195c0,-0.053 0.043,-0.096 0.096,-0.096c0.053,0 0.096,0.043 0.096,0.096l0,0.195c0,0.053 -0.043,0.096 -0.096,0.096Zm0,1.369c-0.053,0 -0.096,-0.043 -0.096,-0.096l0,-0.195c0,-0.054 0.043,-0.096 0.096,-0.096c0.053,0 0.096,0.043 0.096,0.096l0,0.195c0,0.053 -0.043,0.096 -0.096,0.096Zm0,1.369c-0.053,0 -0.096,-0.043 -0.096,-0.096l0,-0.196c0,-0.053 0.043,-0.096 0.096,-0.096c0.053,0 0.096,0.043 0.096,0.096l0,0.196c0,0.053 -0.043,0.096 -0.096,0.096Zm0,1.369c-0.053,0 -0.096,-0.043 -0.096,-0.096l0,-0.195c0,-0.053 0.043,-0.096 0.096,-0.096c0.053,0 0.096,0.043 0.096,0.096l0,0.195c0,0.054 -0.043,0.096 -0.096,0.096Zm0,1.37c-0.053,0 -0.096,-0.043 -0.096,-0.096l0,-0.196c0,-0.053 0.043,-0.096 0.096,-0.096c0.053,0 0.096,0.043 0.096,0.096l0,0.196c0,0.053 -0.043,0.096 -0.096,0.096Zm0,1.369c-0.053,0 -0.096,-0.043 -0.096,-0.096l0,-0.195c0,-0.054 0.043,-0.096 0.096,-0.096c0.053,0 0.096,0.043 0.096,0.096l0,0.195c0,0.054 -0.043,0.096 -0.096,0.096Zm0,1.369c-0.053,0 -0.096,-0.043 -0.096,-0.096l0,-0.196c0,-0.053 0.043,-0.096 0.096,-0.096c0.053,0 0.096,0.043 0.096,0.096l0,0.196c0,0.053 -0.043,0.096 -0.096,0.096Zm0,1.369c-0.053,0 -0.096,-0.043 -0.096,-0.096l0,-0.196c0,-0.053 0.043,-0.096 0.096,-0.096c0.053,0 0.096,0.043 0.096,0.096l0,0.196c0,0.053 -0.043,0.096 -0.096,0.096Zm0,1.369c-0.053,0 -0.096,-0.043 -0.096,-0.096l0,-0.196c0,-0.053 0.043,-0.096 0.096,-0.096c0.053,0 0.096,0.043 0.096,0.096l0,0.196c0,0.053 -0.043,0.096 -0.096,0.096Zm0,1.369c-0.053,0 -0.096,-0.043 -0.096,-0.096l0,-0.195c0,-0.053 0.043,-0.096 0.096,-0.096c0.053,0 0.096,0.043 0.096,0.096l0,0.195c0,0.053 -0.043,0.096 -0.096,0.096Zm0,1.369c-0.053,0 -0.096,-0.043 -0.096,-0.096l0,-0.195c0,-0.054 0.043,-0.096 0.096,-0.096c0.053,0 0.096,0.043 0.096,0.096l0,0.195c0,0.053 -0.043,0.096 -0.096,0.096Zm0,1.369c-0.053,0 -0.096,-0.043 -0.096,-0.096l0,-0.196c0,-0.053 0.043,-0.096 0.096,-0.096c0.053,0 0.096,0.043 0.096,0.096l0,0.196c0,0.053 -0.043,0.096 -0.096,0.096Zm0,1.369c-0.053,0 -0.096,-0.043 -0.096,-0.096l0,-0.195c0,-0.053 0.043,-0.096 0.096,-0.096c0.053,0 0.096,0.043 0.096,0.096l0,0.195c0,0.054 -0.043,0.096 -0.096,0.096Zm0,1.369c-0.053,0 -0.096,-0.043 -0.096,-0.096l0,-0.195c0,-0.053 0.043,-0.096 0.096,-0.096c0.053,0 0.096,0.043 0.096,0.096l0,0.195c0,0.053 -0.043,0.096 -0.096,0.096Zm0,1.369c-0.053,0 -0.096,-0.043 -0.096,-0.096l0,-0.195c0,-0.054 0.043,-0.096 0.096,-0.096c0.053,0 0.096,0.043 0.096,0.096l0,0.195c0,0.054 -0.043,0.096 -0.096,0.096Zm0,1.369c-0.053,0 -0.096,-0.043 -0.096,-0.096l0,-0.196c0,-0.053 0.043,-0.096 0.096,-0.096c0.053,0 0.096,0.043 0.096,0.096l0,0.196c0,0.053 -0.043,0.096 -0.096,0.096Zm0,1.369c-0.053,0 -0.096,-0.043 -0.096,-0.096l0,-0.196c0,-0.053 0.043,-0.096 0.096,-0.096c0.053,0 0.096,0.043 0.096,0.096l0,0.196c0,0.053 -0.043,0.096 -0.096,0.096Zm0,1.369c-0.053,0 -0.096,-0.043 -0.096,-0.096l0,-0.196c0,-0.053 0.043,-0.096 0.096,-0.096c0.053,0 0.096,0.043 0.096,0.096l0,0.196c0,0.053 -0.043,0.096 -0.096,0.096Zm0,1.369c-0.053,0 -0.096,-0.043 -0.096,-0.096l0,-0.195c0,-0.053 0.043,-0.096 0.096,-0.096c0.053,0 0.096,0.043 0.096,0.096l0,0.195c0,0.054 -0.043,0.096 -0.096,0.096Zm0,1.369c-0.053,0 -0.096,-0.043 -0.096,-0.096l0,-0.195c0,-0.053 0.043,-0.096 0.096,-0.096c0.053,0 0.096,0.043 0.096,0.096l0,0.195c0,0.053 -0.043,0.096 -0.096,0.096Zm0,1.369c-0.053,0 -0.096,-0.043 -0.096,-0.096l0,-0.196c0,-0.053 0.043,-0.096 0.096,-0.096c0.053,0 0.096,0.043 0.096,0.096l0,0.196c0,0.053 -0.043,0.096 -0.096,0.096Zm0,1.369c-0.053,0 -0.096,-0.043 -0.096,-0.096l0,-0.196c0,-0.053 0.043,-0.096 0.096,-0.096c0.053,0 0.096,0.043 0.096,0.096l0,0.196c0,0.053 -0.043,0.096 -0.096,0.096Zm0,1.369c-0.053,0 -0.096,-0.043 -0.096,-0.096l0,-0.195c0,-0.053 0.043,-0.096 0.096,-0.096c0.053,0 0.096,0.043 0.096,0.096l0,0.195c0,0.053 -0.043,0.096 -0.096,0.096Z" style="fill:#ffdcb3;fill-rule:nonzero;"/><path d="M15.81,53.835c-0.053,0 -0.096,-0.043 -0.096,-0.096l0,-0.096c0,-0.053 0.043,-0.096 0.096,-0.096c0.053,0 0.096,0.043 0.096,0.096l0,0.096c0,0.053 -0.043,0.096 -0.096,0.096Z" style="fill:#ffdcb3;fill-rule:nonzero;"/><path d="M15.788,74.484c-0.053,0 -0.096,-0.043 -0.096,-0.096l0,-0.096c0,-0.053 0.044,-0.096 0.096,-0.096c0.053,0 0.096,0.044 0.096,0.096l0,0.096c0,0.053 -0.043,0.096 -0.096,0.096Z" style="fill:#ffdcb3;fill-rule:nonzero;"/><path d="M15.788,75.852c-0.053,0 -0.096,-0.043 -0.096,-0.096l0,-0.195c0,-0.053 0.044,-0.096 0.096,-0.096c0.053,0 0.096,0.044 0.096,0.096l0,0.195c0,0.053 -0.043,0.096 -0.096,0.096Zm0,1.369c-0.053,0 -0.096,-0.043 -0.096,-0.096l0,-0.195c0,-0.053 0.044,-0.096 0.096,-0.096c0.053,0 0.096,0.043 0.096,0.096l0,0.195c0,0.053 -0.043,0.096 -0.096,0.096Zm0,1.368c-0.053,0 -0.096,-0.044 -0.096,-0.096l0,-0.195c0,-0.053 0.044,-0.096 0.096,-0.096c0.053,0 0.096,0.043 0.096,0.096l0,0.195c0,0.053 -0.043,0.096 -0.096,0.096Zm0,1.368c-0.053,0 -0.096,-0.043 -0.096,-0.096l0,-0.195c0,-0.053 0.044,-0.096 0.096,-0.096c0.053,0 0.096,0.043 0.096,0.096l0,0.195c0,0.053 -0.043,0.096 -0.096,0.096Zm0,1.368c-0.053,0 -0.096,-0.043 -0.096,-0.096l0,-0.195c0,-0.053 0.044,-0.096 0.096,-0.096c0.053,0 0.096,0.044 0.096,0.096l0,0.195c0,0.053 -0.043,0.096 -0.096,0.096Zm0,1.369c-0.053,0 -0.096,-0.043 -0.096,-0.096l0,-0.195c0,-0.053 0.044,-0.096 0.096,-0.096c0.053,0 0.096,0.044 0.096,0.096l0,0.195c0,0.053 -0.043,0.096 -0.096,0.096Zm0,1.368c-0.053,0 -0.096,-0.043 -0.096,-0.096l0,-0.195c0,-0.053 0.044,-0.096 0.096,-0.096c0.053,0 0.096,0.043 0.096,0.096l0,0.195c0,0.053 -0.043,0.096 -0.096,0.096Zm0,1.369c-0.053,0 -0.096,-0.044 -0.096,-0.096l0,-0.195c0,-0.053 0.044,-0.096 0.096,-0.096c0.053,0 0.096,0.043 0.096,0.096l0,0.195c0,0.053 -0.043,0.096 -0.096,0.096Zm0,1.368c-0.053,0 -0.096,-0.043 -0.096,-0.096l0,-0.195c0,-0.053 0.044,-0.096 0.096,-0.096c0.053,0 0.096,0.043 0.096,0.096l0,0.195c0,0.053 -0.043,0.096 -0.096,0.096Zm0,1.369c-0.053,0 -0.096,-0.043 -0.096,-0.096l0,-0.195c0,-0.053 0.044,-0.096 0.096,-0.096c0.053,0 0.096,0.044 0.096,0.096l0,0.195c0,0.053 -0.043,0.096 -0.096,0.096Zm0,1.368c-0.053,0 -0.096,-0.043 -0.096,-0.096l0,-0.195c0,-0.053 0.044,-0.096 0.096,-0.096c0.053,0 0.096,0.043 0.096,0.096l0,0.195c0,0.053 -0.043,0.096 -0.096,0.096Zm0,1.369c-0.053,0 -0.096,-0.043 -0.096,-0.096l0,-0.195c0,-0.053 0.044,-0.096 0.096,-0.096c0.053,0 0.096,0.043 0.096,0.096l0,0.195c0,0.053 -0.043,0.096 -0.096,0.096Zm0,1.368c-0.053,0 -0.096,-0.044 -0.096,-0.096l0,-0.195c0,-0.053 0.044,-0.096 0.096,-0.096c0.053,0 0.096,0.043 0.096,0.096l0,0.195c0,0.053 -0.043,0.096 -0.096,0.096Zm0,1.368c-0.053,0 -0.096,-0.043 -0.096,-0.096l0,-0.195c0,-0.053 0.044,-0.096 0.096,-0.096c0.053,0 0.096,0.043 0.096,0.096l0,0.195c0,0.053 -0.043,0.096 -0.096,0.096Zm0,1.368c-0.053,0 -0.096,-0.043 -0.096,-0.096l0,-0.195c0,-0.053 0.044,-0.096 0.096,-0.096c0.053,0 0.096,0.044 0.096,0.096l0,0.195c0,0.053 -0.043,0.096 -0.096,0.096Zm0,1.369c-0.053,0 -0.096,-0.043 -0.096,-0.096l0,-0.195c0,-0.053 0.044,-0.096 0.096,-0.096c0.053,0 0.096,0.043 0.096,0.096l0,0.195c0,0.053 -0.043,0.096 -0.096,0.096Zm0,1.368c-0.053,0 -0.096,-0.044 -0.096,-0.096l0,-0.195c0,-0.053 0.044,-0.096 0.096,-0.096c0.053,0 0.096,0.043 0.096,0.096l0,0.195c0,0.053 -0.043,0.096 -0.096,0.096Zm0,1.369c-0.053,0 -0.096,-0.044 -0.096,-0.096l0,-0.195c0,-0.053 0.044,-0.096 0.096,-0.096c0.053,0 0.096,0.043 0.096,0.096l0,0.195c0,0.053 -0.043,0.096 -0.096,0.096Zm0,1.368c-0.053,0 -0.096,-0.043 -0.096,-0.096l0,-0.195c0,-0.053 0.044,-0.096 0.096,-0.096c0.053,0 0.096,0.043 0.096,0.096l0,0.195c0,0.053 -0.043,0.096 -0.096,0.096Zm0,1.368c-0.053,0 -0.096,-0.043 -0.096,-0.096l0,-0.195c0,-0.053 0.044,-0.096 0.096,-0.096c0.053,0 0.096,0.044 0.096,0.096l0,0.195c0,0.053 -0.043,0.096 -0.096,0.096Zm0,1.369c-0.053,0 -0.096,-0.043 -0.096,-0.096l0,-0.196c0,-0.053 0.044,-0.096 0.096,-0.096c0.053,0 0.096,0.043 0.096,0.096l0,0.196c0,0.053 -0.043,0.096 -0.096,0.096Zm0,1.368c-0.053,0 -0.096,-0.044 -0.096,-0.096l0,-0.195c0,-0.053 0.044,-0.096 0.096,-0.096c0.053,0 0.096,0.043 0.096,0.096l0,0.195c0,0.053 -0.043,0.096 -0.096,0.096Zm0,1.369c-0.053,0 -0.096,-0.044 -0.096,-0.096l0,-0.196c0,-0.053 0.044,-0.096 0.096,-0.096c0.053,0 0.096,0.043 0.096,0.096l0,0.196c0,0.053 -0.043,0.096 -0.096,0.096Zm0,1.368c-0.053,0 -0.096,-0.043 -0.096,-0.096l0,-0.195c0,-0.053 0.044,-0.096 0.096,-0.096c0.053,0 0.096,0.044 0.096,0.096l0,0.195c0,0.053 -0.043,0.096 -0.096,0.096Zm0,1.369c-0.053,0 -0.096,-0.043 -0.096,-0.096l0,-0.196c0,-0.053 0.044,-0.096 0.096,-0.096c0.053,0 0.096,0.044 0.096,0.096l0,0.196c0,0.053 -0.043,0.096 -0.096,0.096Zm0,1.368c-0.053,0 -0.096,-0.043 -0.096,-0.096l0,-0.195c0,-0.053 0.044,-0.096 0.096,-0.096c0.053,0 0.096,0.043 0.096,0.096l0,0.195c0,0.053 -0.043,0.096 -0.096,0.096Zm0,1.369c-0.053,0 -0.096,-0.044 -0.096,-0.096l0,-0.196c0,-0.053 0.044,-0.096 0.096,-0.096c0.053,0 0.096,0.043 0.096,0.096l0,0.196c0,0.053 -0.043,0.096 -0.096,0.096Zm0,1.368c-0.053,0 -0.096,-0.043 -0.096,-0.096l0,-0.195c0,-0.053 0.044,-0.096 0.096,-0.096c0.053,0 0.096,0.043 0.096,0.096l0,0.195c0,0.053 -0.043,0.096 -0.096,0.096Zm0,1.369c-0.053,0 -0.096,-0.043 -0.096,-0.096l0,-0.196c0,-0.053 0.044,-0.096 0.096,-0.096c0.053,0 0.096,0.044 0.096,0.096l0,0.196c0,0.053 -0.043,0.096 -0.096,0.096Zm0,1.368c-0.053,0 -0.096,-0.043 -0.096,-0.096l0,-0.195c0,-0.053 0.044,-0.096 0.096,-0.096c0.053,0 0.096,0.044 0.096,0.096l0,0.195c0,0.053 -0.043,0.096 -0.096,0.096Zm0,1.369c-0.053,0 -0.096,-0.043 -0.096,-0.096l0,-0.196c0,-0.053 0.044,-0.096 0.096,-0.096c0.053,0 0.096,0.043 0.096,0.096l0,0.196c0,0.053 -0.043,0.096 -0.096,0.096Z" style="fill:#ffdcb3;fill-rule:nonzero;"/><path d="M15.788,118.169c-0.053,0 -0.096,-0.043 -0.096,-0.096l0,-0.096c0,-0.053 0.044,-0.096 0.096,-0.096c0.053,0 0.096,0.043 0.096,0.096l0,0.096c0,0.053 -0.043,0.096 -0.096,0.096Z" style="fill:#ffdcb3;fill-rule:nonzero;"/><path d="M20.886,5.056l-0.193,0c-0.053,0 -0.096,-0.043 -0.096,-0.096c0,-0.053 0.043,-0.096 0.096,-0.096l0.193,0c0.053,0 0.096,0.043 0.096,0.096c0,0.054 -0.043,0.096 -0.096,0.096Zm1.349,0l-0.193,0c-0.053,0 -0.096,-0.043 -0.096,-0.096c0,-0.053 0.043,-0.096 0.096,-0.096l0.193,0c0.053,0 0.096,0.043 0.096,0.096c0,0.054 -0.043,0.096 -0.096,0.096Zm1.349,0l-0.193,0c-0.053,0 -0.096,-0.043 -0.096,-0.096c0,-0.053 0.043,-0.096 0.096,-0.096l0.193,0c0.053,0 0.096,0.043 0.096,0.096c0,0.054 -0.043,0.096 -0.096,0.096Zm1.349,0l-0.193,0c-0.053,0 -0.096,-0.043 -0.096,-0.096c0,-0.053 0.043,-0.096 0.096,-0.096l0.193,0c0.053,0 0.096,0.043 0.096,0.096c0,0.054 -0.043,0.096 -0.096,0.096Zm1.349,0l-0.193,0c-0.053,0 -0.096,-0.043 -0.096,-0.096c0,-0.053 0.043,-0.096 0.096,-0.096l0.193,0c0.053,0 0.096,0.043 0.096,0.096c0,0.054 -0.043,0.096 -0.096,0.096Zm1.349,0l-0.193,0c-0.053,0 -0.096,-0.043 -0.096,-0.096c0,-0.053 0.043,-0.096 0.096,-0.096l0.193,0c0.053,0 0.096,0.043 0.096,0.096c0,0.054 -0.043,0.096 -0.096,0.096Zm1.349,0l-0.193,0c-0.053,0 -0.096,-0.043 -0.096,-0.096c0,-0.053 0.043,-0.096 0.096,-0.096l0.193,0c0.053,0 0.096,0.043 0.096,0.096c0,0.054 -0.043,0.096 -0.096,0.096Zm1.349,0l-0.193,0c-0.053,0 -0.096,-0.043 -0.096,-0.096c0,-0.053 0.043,-0.096 0.096,-0.096l0.193,0c0.053,0 0.096,0.043 0.096,0.096c0,0.054 -0.043,0.096 -0.096,0.096Zm1.349,0l-0.193,0c-0.053,0 -0.096,-0.043 -0.096,-0.096c0,-0.053 0.043,-0.096 0.096,-0.096l0.193,0c0.053,0 0.096,0.043 0.096,0.096c0,0.054 -0.043,0.096 -0.096,0.096Zm1.349,0l-0.193,0c-0.053,0 -0.096,-0.043 -0.096,-0.096c0,-0.053 0.043,-0.096 0.096,-0.096l0.193,0c0.053,0 0.096,0.043 0.096,0.096c0,0.054 -0.043,0.096 -0.096,0.096Zm1.349,0l-0.193,0c-0.053,0 -0.096,-0.043 -0.096,-0.096c0,-0.053 0.043,-0.096 0.096,-0.096l0.193,0c0.053,0 0.096,0.043 0.096,0.096c0,0.054 -0.043,0.096 -0.096,0.096Zm1.349,0l-0.193,0c-0.053,0 -0.096,-0.043 -0.096,-0.096c0,-0.053 0.043,-0.096 0.096,-0.096l0.193,0c0.053,0 0.096,0.043 0.096,0.096c0,0.054 -0.043,0.096 -0.096,0.096Zm1.349,0l-0.193,0c-0.053,0 -0.096,-0.043 -0.096,-0.096c0,-0.053 0.043,-0.096 0.096,-0.096l0.193,0c0.053,0 0.096,0.043 0.096,0.096c0,0.054 -0.043,0.096 -0.096,0.096Zm1.341,0l-0.185,0c-0.053,0 -0.096,-0.043 -0.096,-0.096c0,-0.053 0.043,-0.096 0.096,-0.096l0.185,0c0.053,0 0.096,0.043 0.096,0.096c0,0.054 -0.043,0.096 -0.096,0.096Z" style="fill:#ffdcb3;fill-rule:nonzero;"/><path d="M17.225,120.434c0,0.623 0.505,1.128 1.127,1.128c0.623,0 1.128,-0.505 1.128,-1.128c0,-0.622 -0.505,-1.127 -1.128,-1.127c-0.622,0 -1.127,0.505 -1.127,1.127Z" style="fill:#ffdcb3;fill-rule:nonzero;"/><path d="M18.099,117.158c-0.051,0 -0.094,-0.041 -0.096,-0.092c-0.002,-0.054 0.039,-0.098 0.092,-0.101c0.046,-0.002 0.092,-0.003 0.138,-0.003l0.06,0.001c0.053,0.001 0.096,0.045 0.094,0.098c-0.001,0.053 -0.048,0.09 -0.098,0.094l-0.058,-0.001c-0.041,0 -0.085,0.001 -0.128,0.003l-0.004,0Zm1.503,0.279c-0.013,0 -0.026,-0.002 -0.039,-0.008c-0.057,-0.025 -0.115,-0.048 -0.173,-0.069c-0.05,-0.018 -0.076,-0.073 -0.058,-0.123c0.018,-0.05 0.073,-0.075 0.123,-0.058c0.062,0.023 0.124,0.047 0.185,0.074c0.049,0.021 0.071,0.078 0.05,0.127c-0.016,0.036 -0.051,0.058 -0.088,0.058Zm-2.808,0.031c-0.037,0 -0.072,-0.021 -0.088,-0.056c-0.022,-0.049 -0.001,-0.105 0.048,-0.128c0.06,-0.027 0.121,-0.054 0.183,-0.077c0.05,-0.018 0.105,0.005 0.125,0.055c0.019,0.05 -0.005,0.106 -0.055,0.125c-0.058,0.022 -0.115,0.047 -0.173,0.073c-0.013,0.006 -0.026,0.008 -0.04,0.008Zm-1.007,0.701c-0.025,0 -0.05,-0.01 -0.069,-0.029c-0.037,-0.038 -0.037,-0.099 0.002,-0.136l0.056,-0.054c0.038,-0.036 0.099,-0.036 0.136,0.003c0.037,0.039 0.035,0.099 -0.003,0.136l-0.055,0.053c-0.019,0.018 -0.043,0.027 -0.067,0.027Zm4.918,0.027c-0.025,0 -0.049,-0.009 -0.068,-0.028l-0.029,-0.029c-0.034,-0.034 -0.071,-0.069 -0.107,-0.103c-0.039,-0.036 -0.042,-0.097 -0.006,-0.136c0.036,-0.039 0.097,-0.042 0.136,-0.006c0.039,0.035 0.077,0.071 0.114,0.109l0.027,0.027c0.037,0.038 0.037,0.099 0,0.136c-0.019,0.019 -0.043,0.028 -0.068,0.028Zm0.734,1.121c-0.038,0 -0.074,-0.022 -0.089,-0.06c-0.024,-0.058 -0.049,-0.115 -0.075,-0.171c-0.023,-0.048 -0.002,-0.106 0.046,-0.128c0.048,-0.021 0.106,-0.002 0.128,0.046c0.028,0.06 0.054,0.12 0.079,0.182c0.02,0.049 -0.004,0.105 -0.053,0.125c-0.012,0.005 -0.024,0.007 -0.036,0.007Zm0.252,1.307c-0.053,0 -0.096,-0.034 -0.096,-0.087l0,-0.018c0,-0.056 -0.002,-0.113 -0.005,-0.169c-0.003,-0.053 0.039,-0.098 0.091,-0.101c0.05,-0.003 0.099,0.039 0.101,0.092c0.003,0.059 0.005,0.119 0.005,0.178c0,0.053 -0.044,0.106 -0.096,0.106Zm-0.267,1.323c-0.012,0 -0.025,-0.002 -0.037,-0.008c-0.049,-0.02 -0.072,-0.077 -0.052,-0.126c0.024,-0.058 0.046,-0.116 0.067,-0.175c0.017,-0.05 0.072,-0.077 0.123,-0.059c0.05,0.018 0.077,0.073 0.059,0.123c-0.022,0.062 -0.045,0.124 -0.071,0.185c-0.015,0.037 -0.051,0.059 -0.089,0.059Zm-0.746,1.113c-0.025,0 -0.049,-0.009 -0.068,-0.028c-0.038,-0.038 -0.038,-0.099 0,-0.136c0.044,-0.044 0.087,-0.089 0.129,-0.136c0.036,-0.039 0.097,-0.042 0.136,-0.008c0.039,0.036 0.043,0.097 0.007,0.136c-0.044,0.049 -0.089,0.097 -0.136,0.144c-0.019,0.019 -0.044,0.028 -0.068,0.028Z" style="fill:#ffdcb3;fill-rule:nonzero;"/><path d="M20.337,0.462c-4.968,0 -9.011,4.042 -9.011,9.01l0,109.054c0,4.968 4.042,9.01 9.011,9.01l59.483,0c4.971,0 9.014,-4.042 9.014,-9.01l0,-109.054c0,-4.968 -4.043,-9.01 -9.014,-9.01l-59.483,0Zm59.483,127.538l-59.483,0c-5.224,0 -9.473,-4.25 -9.473,-9.473l0,-109.054c0,-5.223 4.249,-9.473 9.473,-9.473l59.483,0c5.226,0 9.473,4.25 9.473,9.473l0,109.054c0,5.223 -4.247,9.473 -9.473,9.473Z" style="fill:#ffdcb3;fill-rule:nonzero;"/><path d="M15.217,53.739c0,-0.328 0.266,-0.593 0.593,-0.593c0.327,0 0.593,0.266 0.593,0.593c0,0.327 -0.266,0.593 -0.593,0.593c-0.328,0 -0.593,-0.266 -0.593,-0.593Z" style="fill:#ffdcb3;fill-rule:nonzero;"/><path d="M15.217,74.292c0,-0.328 0.266,-0.593 0.593,-0.593c0.327,0 0.593,0.266 0.593,0.593c0,0.327 -0.266,0.593 -0.593,0.593c-0.328,0 -0.593,-0.266 -0.593,-0.593Z" style="fill:#ffdcb3;fill-rule:nonzero;"/><path d="M37.821,4.96c0,-0.328 0.266,-0.593 0.593,-0.593c0.328,0 0.593,0.266 0.593,0.593c0,0.327 -0.266,0.593 -0.593,0.593c-0.328,0 -0.593,-0.266 -0.593,-0.593Z" style="fill:#ffdcb3;fill-rule:nonzero;"/><path d="M50.08,11.406c-1.72,0 -3.115,-1.394 -3.115,-3.115c0,-1.72 1.394,-3.115 3.115,-3.115c1.72,0 3.115,1.394 3.115,3.115c0,1.72 -1.395,3.115 -3.115,3.115Zm3.93,-3.115l3.833,-1.23l-4.026,0.015l3.266,-2.354l-3.824,1.258l2.379,-3.248l-3.248,2.379l1.258,-3.824l-2.354,3.266l0.015,-4.026l-1.229,3.833l-1.23,-3.833l0.015,4.026l-2.354,-3.266l1.259,3.824l-3.248,-2.379l2.379,3.248l-3.824,-1.258l3.266,2.354l-4.026,-0.015l3.833,1.23l-3.833,1.23l4.026,-0.015l-3.266,2.354l3.824,-1.258l-2.379,3.248l3.248,-2.379l-1.259,3.824l2.354,-3.266l-0.015,4.025l1.23,-3.833l1.229,3.833l-0.015,-4.025l2.354,3.266l-1.258,-3.824l3.248,2.379l-2.379,-3.248l3.824,1.258l-3.266,-2.354l4.026,0.015l-3.833,-1.23Z" style="fill:#ffdcb3;fill-rule:nonzero;"/><path d="M20.872,123.06l-0.193,0c-0.053,0 -0.096,-0.043 -0.096,-0.096c0,-0.053 0.043,-0.096 0.096,-0.096l0.193,0c0.053,0 0.096,0.044 0.096,0.096c0,0.053 -0.044,0.096 -0.096,0.096Zm1.349,0l-0.193,0c-0.053,0 -0.096,-0.043 -0.096,-0.096c0,-0.053 0.043,-0.096 0.096,-0.096l0.193,0c0.053,0 0.096,0.044 0.096,0.096c0,0.053 -0.044,0.096 -0.096,0.096Zm1.349,0l-0.193,0c-0.053,0 -0.096,-0.043 -0.096,-0.096c0,-0.053 0.043,-0.096 0.096,-0.096l0.193,0c0.053,0 0.096,0.044 0.096,0.096c0,0.053 -0.044,0.096 -0.096,0.096Zm1.349,0l-0.193,0c-0.053,0 -0.096,-0.043 -0.096,-0.096c0,-0.053 0.043,-0.096 0.096,-0.096l0.193,0c0.053,0 0.096,0.044 0.096,0.096c0,0.053 -0.044,0.096 -0.096,0.096Zm1.349,0l-0.193,0c-0.053,0 -0.096,-0.043 -0.096,-0.096c0,-0.053 0.043,-0.096 0.096,-0.096l0.193,0c0.053,0 0.096,0.044 0.096,0.096c0,0.053 -0.044,0.096 -0.096,0.096Zm1.349,0l-0.193,0c-0.053,0 -0.096,-0.043 -0.096,-0.096c0,-0.053 0.043,-0.096 0.096,-0.096l0.193,0c0.053,0 0.096,0.044 0.096,0.096c0,0.053 -0.044,0.096 -0.096,0.096Zm1.349,0l-0.193,0c-0.053,0 -0.096,-0.043 -0.096,-0.096c0,-0.053 0.043,-0.096 0.096,-0.096l0.193,0c0.053,0 0.096,0.044 0.096,0.096c0,0.053 -0.044,0.096 -0.096,0.096Zm1.349,0l-0.193,0c-0.053,0 -0.096,-0.043 -0.096,-0.096c0,-0.053 0.043,-0.096 0.096,-0.096l0.193,0c0.053,0 0.096,0.044 0.096,0.096c0,0.053 -0.044,0.096 -0.096,0.096Zm1.349,0l-0.193,0c-0.053,0 -0.096,-0.043 -0.096,-0.096c0,-0.053 0.043,-0.096 0.096,-0.096l0.193,0c0.053,0 0.096,0.044 0.096,0.096c0,0.053 -0.044,0.096 -0.096,0.096Zm1.349,0l-0.193,0c-0.053,0 -0.096,-0.043 -0.096,-0.096c0,-0.053 0.043,-0.096 0.096,-0.096l0.193,0c0.053,0 0.096,0.044 0.096,0.096c0,0.053 -0.044,0.096 -0.096,0.096Zm1.349,0l-0.193,0c-0.053,0 -0.096,-0.043 -0.096,-0.096c0,-0.053 0.043,-0.096 0.096,-0.096l0.193,0c0.053,0 0.096,0.044 0.096,0.096c0,0.053 -0.044,0.096 -0.096,0.096Zm1.349,0l-0.193,0c-0.053,0 -0.096,-0.043 -0.096,-0.096c0,-0.053 0.043,-0.096 0.096,-0.096l0.193,0c0.053,0 0.096,0.044 0.096,0.096c0,0.053 -0.044,0.096 -0.096,0.096Zm1.349,0l-0.193,0c-0.053,0 -0.096,-0.043 -0.096,-0.096c0,-0.053 0.043,-0.096 0.096,-0.096l0.193,0c0.053,0 0.096,0.044 0.096,0.096c0,0.053 -0.044,0.096 -0.096,0.096Zm1.341,0l-0.185,0c-0.053,0 -0.096,-0.043 -0.096,-0.096c0,-0.053 0.043,-0.096 0.096,-0.096l0.185,0c0.053,0 0.096,0.044 0.096,0.096c0,0.053 -0.043,0.096 -0.096,0.096Z" style="fill:#ffdcb3;fill-rule:nonzero;"/><path d="M37.806,122.964c0,0.328 0.266,0.593 0.593,0.593c0.328,0 0.593,-0.266 0.593,-0.593c0,-0.328 -0.266,-0.593 -0.593,-0.593c-0.327,0 -0.593,0.266 -0.593,0.593Z" style="fill:#ffdcb3;fill-rule:nonzero;"/><path d="M53.173,120.012c0,1.72 -1.395,3.115 -3.115,3.115c-1.72,0 -3.115,-1.395 -3.115,-3.115c0,-1.72 1.395,-3.115 3.115,-3.115c1.72,0 3.115,1.394 3.115,3.115Zm4.649,-1.23l-4.026,0.015l3.266,-2.354l-3.824,1.259l2.378,-3.248l-3.248,2.379l1.259,-3.824l-2.354,3.266l0.015,-4.026l-1.23,3.833l-1.229,-3.833l0.015,4.026l-2.354,-3.266l1.258,3.824l-3.248,-2.379l2.379,3.248l-3.824,-1.259l3.266,2.354l-4.026,-0.015l3.833,1.23l-3.833,1.229l4.026,-0.015l-3.266,2.354l3.824,-1.258l-2.379,3.248l3.248,-2.379l-1.258,3.824l2.354,-3.266l-0.015,4.026l1.229,-3.833l1.23,3.833l-0.015,-4.026l2.354,3.266l-1.259,-3.824l3.248,2.379l-2.378,-3.248l3.824,1.258l-3.266,-2.354l4.026,0.015l-3.833,-1.229l3.833,-1.23Z" style="fill:#ffdcb3;fill-rule:nonzero;"/><path d="M14.222,67.93l1.034,3.225l-0.013,-3.402c0,-0.042 0.027,-0.079 0.067,-0.092c0.041,-0.013 0.084,0.002 0.108,0.035l1.989,2.76l-1.063,-3.231c-0.013,-0.04 0.001,-0.083 0.035,-0.108c0.033,-0.025 0.079,-0.025 0.113,0l2.746,2.01l-2.011,-2.745c-0.025,-0.034 -0.025,-0.079 0,-0.113c0.024,-0.034 0.069,-0.049 0.108,-0.035l3.232,1.064l-2.76,-1.989c-0.034,-0.025 -0.048,-0.068 -0.035,-0.108c0.013,-0.04 0.05,-0.066 0.091,-0.066l0,0l3.402,0.013l-3.239,-1.039c-0.04,-0.013 -0.067,-0.05 -0.067,-0.092c0,-0.042 0.027,-0.079 0.067,-0.092l3.239,-1.039l-3.402,0.013l-0,0c-0.042,0 -0.079,-0.027 -0.091,-0.066c-0.013,-0.04 0.001,-0.084 0.035,-0.108l2.76,-1.99l-3.232,1.064c-0.039,0.014 -0.084,-0.001 -0.108,-0.035c-0.025,-0.034 -0.025,-0.08 0,-0.114l2.011,-2.745l-2.746,2.01c-0.034,0.025 -0.08,0.025 -0.113,0c-0.034,-0.025 -0.048,-0.068 -0.035,-0.108l1.063,-3.232l-1.989,2.76c-0.024,0.034 -0.067,0.049 -0.108,0.035c-0.04,-0.013 -0.067,-0.05 -0.067,-0.092l0.013,-3.402l-1.034,3.225l0,0.705c1.726,0.051 3.115,1.471 3.115,3.21c0,1.738 -1.389,3.159 -3.115,3.21l0,0.705Zm1.133,3.945c-0.041,0 -0.079,-0.027 -0.092,-0.067l-1.229,-3.833c-0.003,-0.01 -0.005,-0.019 -0.005,-0.03l0,-0.815c0,-0.053 0.043,-0.096 0.096,-0.096c1.664,0 3.018,-1.354 3.018,-3.018c0,-1.664 -1.354,-3.019 -3.018,-3.019c-0.053,0 -0.096,-0.043 -0.096,-0.096l0,-0.815c0,-0.01 0.002,-0.02 0.005,-0.029l1.229,-3.833c0.015,-0.045 0.061,-0.072 0.107,-0.066c0.047,0.008 0.081,0.048 0.081,0.096l-0.014,3.726l2.179,-3.022c0.028,-0.039 0.079,-0.052 0.122,-0.03c0.042,0.022 0.063,0.071 0.048,0.116l-1.165,3.539l3.006,-2.201c0.038,-0.028 0.091,-0.024 0.125,0.01c0.033,0.034 0.037,0.087 0.01,0.125l-2.201,3.006l3.539,-1.165c0.044,-0.016 0.094,0.005 0.116,0.048c0.022,0.042 0.009,0.094 -0.029,0.122l-3.022,2.178l3.725,-0.014l0,0c0.047,0 0.088,0.034 0.095,0.081c0.008,0.047 -0.02,0.092 -0.066,0.107l-3.547,1.138l3.547,1.138c0.045,0.015 0.073,0.06 0.066,0.107c-0.007,0.047 -0.048,0.081 -0.095,0.081l-0,0l-3.725,-0.014l3.022,2.178c0.039,0.028 0.051,0.08 0.029,0.122c-0.022,0.043 -0.072,0.062 -0.116,0.048l-3.539,-1.164l2.201,3.006c0.028,0.038 0.023,0.091 -0.01,0.125c-0.034,0.034 -0.087,0.038 -0.125,0.01l-3.006,-2.201l1.165,3.539c0.015,0.045 -0.005,0.094 -0.048,0.116c-0.042,0.022 -0.094,0.008 -0.122,-0.029l-2.179,-3.022l0.014,3.725c0,0.047 -0.034,0.088 -0.081,0.096c-0.005,0.001 -0.01,0.001 -0.015,0.001Z" style="fill:#ffdcb3;fill-rule:nonzero;"/><path d="M85.936,60.997c-0.054,0 -0.096,-0.043 -0.096,-0.096l0,-51.031c0,-3.652 -2.971,-6.622 -6.624,-6.622l-21.471,0c-0.053,0 -0.096,-0.043 -0.096,-0.096c0,-0.054 0.043,-0.096 0.096,-0.096l21.471,0c3.758,0 6.817,3.057 6.817,6.815l0,51.031c0,0.053 -0.046,0.096 -0.096,0.096Z" style="fill:#ffdcb3;fill-rule:nonzero;"/><path d="M79.215,124.945l-21.449,0c-0.053,0 -0.096,-0.043 -0.096,-0.096c0,-0.053 0.043,-0.096 0.096,-0.096l21.449,0c3.653,0 6.624,-2.971 6.624,-6.622l0,-51.031c0,-0.053 0.042,-0.096 0.096,-0.096c0.05,0 0.096,0.043 0.096,0.096l0,51.031c0,3.758 -3.06,6.815 -6.817,6.815Z" style="fill:#ffdcb3;fill-rule:nonzero;"/><path d="M82.815,7.558c0,-0.623 -0.505,-1.128 -1.129,-1.128c-0.62,0 -1.125,0.505 -1.125,1.128c0,0.622 0.505,1.127 1.125,1.127c0.624,0 1.129,-0.505 1.129,-1.127Z" style="fill:#ffdcb3;fill-rule:nonzero;"/><path d="M85.936,67.196c-1.765,0 -3.198,-1.434 -3.198,-3.196c0,-1.762 1.434,-3.196 3.198,-3.196c0.05,0 0.096,0.043 0.096,0.096c0,0.053 -0.046,0.096 -0.096,0.096c-1.657,0 -3.006,1.347 -3.006,3.003c0,1.656 1.349,3.003 3.006,3.003c0.05,0 0.096,0.043 0.096,0.096c0,0.053 -0.046,0.096 -0.096,0.096Z" style="fill:#ffdcb3;fill-rule:nonzero;"/><path d="M79.227,5.265c-0.023,0 -0.046,-0.008 -0.066,-0.025c-0.039,-0.035 -0.042,-0.097 -0.004,-0.136c0.042,-0.049 0.089,-0.097 0.135,-0.143c0.039,-0.038 0.096,-0.038 0.135,-0c0.039,0.037 0.039,0.099 0,0.136c-0.042,0.045 -0.085,0.09 -0.127,0.137c-0.019,0.021 -0.046,0.032 -0.073,0.032Zm-0.682,1.153c-0.012,0 -0.023,-0.002 -0.035,-0.006c-0.05,-0.017 -0.073,-0.073 -0.058,-0.123c0.023,-0.062 0.046,-0.124 0.073,-0.185c0.019,-0.049 0.073,-0.072 0.123,-0.052c0.05,0.02 0.073,0.077 0.054,0.126c-0.027,0.058 -0.046,0.116 -0.069,0.175c-0.012,0.039 -0.05,0.064 -0.089,0.064Zm-0.193,1.326c-0.054,0 -0.096,-0.04 -0.096,-0.092c-0.004,-0.06 -0.004,-0.119 -0.004,-0.178c0,-0.053 0.042,-0.106 0.096,-0.106c0.05,0 0.096,0.034 0.096,0.087l0,0.019c0,0.056 0,0.113 0.004,0.169c0,0.053 -0.039,0.098 -0.092,0.101l-0.004,0Zm0.324,1.301c-0.035,0 -0.069,-0.02 -0.089,-0.055c-0.027,-0.06 -0.054,-0.12 -0.077,-0.182c-0.019,-0.049 0.004,-0.105 0.054,-0.125c0.046,-0.02 0.104,0.004 0.123,0.053c0.023,0.058 0.05,0.115 0.077,0.172c0.019,0.048 0,0.105 -0.046,0.128c-0.015,0.006 -0.027,0.009 -0.042,0.009Zm5.518,1.026c-0.023,0 -0.05,-0.01 -0.069,-0.03c-0.035,-0.038 -0.035,-0.099 0.004,-0.136l0.054,-0.052c0.039,-0.037 0.096,-0.038 0.135,-0.001c0.039,0.037 0.039,0.099 0,0.136l-0.054,0.055c-0.02,0.018 -0.042,0.027 -0.07,0.027Zm-4.724,0.052c-0.023,0 -0.046,-0.008 -0.062,-0.025c-0.042,-0.035 -0.077,-0.072 -0.116,-0.109l-0.027,-0.028c-0.039,-0.038 -0.039,-0.099 0,-0.136c0.039,-0.037 0.1,-0.037 0.135,0.002l0.027,0.026c0.035,0.037 0.073,0.071 0.108,0.104c0.039,0.036 0.042,0.097 0.008,0.136c-0.019,0.021 -0.046,0.031 -0.073,0.031Zm3.596,0.669c-0.039,0 -0.074,-0.023 -0.089,-0.061c-0.019,-0.049 0.004,-0.105 0.054,-0.125c0.061,-0.023 0.116,-0.047 0.173,-0.073c0.046,-0.022 0.108,-0.001 0.127,0.048c0.024,0.048 0,0.106 -0.046,0.128c-0.061,0.027 -0.123,0.053 -0.181,0.077c-0.012,0.005 -0.027,0.007 -0.039,0.007Zm-2.447,0.027c-0.012,0 -0.023,-0.002 -0.035,-0.006c-0.062,-0.022 -0.123,-0.047 -0.185,-0.073c-0.046,-0.021 -0.069,-0.077 -0.05,-0.126c0.023,-0.049 0.077,-0.072 0.127,-0.05c0.058,0.025 0.116,0.048 0.173,0.069c0.05,0.018 0.077,0.074 0.058,0.123c-0.015,0.039 -0.05,0.063 -0.089,0.063Zm1.187,0.21l-0.058,-0c-0.054,-0.001 -0.096,-0.045 -0.096,-0.098c0,-0.054 0.05,-0.096 0.1,-0.095l0.054,0c0.046,0 0.089,-0.001 0.131,-0.002l0.004,0c0.054,0 0.096,0.041 0.096,0.093c0.004,0.053 -0.039,0.098 -0.092,0.1c-0.046,0.002 -0.092,0.002 -0.139,0.002Z" style="fill:#ffdcb3;fill-rule:nonzero;"/><path d="M84.252,10.121c-0.054,0 -0.096,-0.043 -0.096,-0.096l0,-0.096c0,-0.054 0.042,-0.096 0.096,-0.096c0.05,0 0.096,0.043 0.096,0.096l0,0.096c0,0.053 -0.046,0.096 -0.096,0.096Z" style="fill:#ffdcb3;fill-rule:nonzero;"/><path d="M84.252,11.49c-0.054,0 -0.096,-0.043 -0.096,-0.096l0,-0.195c0,-0.053 0.042,-0.096 0.096,-0.096c0.05,0 0.096,0.043 0.096,0.096l0,0.195c0,0.053 -0.046,0.096 -0.096,0.096Zm0,1.369c-0.054,0 -0.096,-0.043 -0.096,-0.096l0,-0.195c0,-0.054 0.042,-0.096 0.096,-0.096c0.05,0 0.096,0.043 0.096,0.096l0,0.195c0,0.054 -0.046,0.096 -0.096,0.096Zm0,1.369c-0.054,0 -0.096,-0.043 -0.096,-0.096l0,-0.196c0,-0.053 0.042,-0.096 0.096,-0.096c0.05,0 0.096,0.043 0.096,0.096l0,0.196c0,0.053 -0.046,0.096 -0.096,0.096Zm0,1.369c-0.054,0 -0.096,-0.043 -0.096,-0.096l0,-0.196c0,-0.053 0.042,-0.096 0.096,-0.096c0.05,0 0.096,0.043 0.096,0.096l0,0.196c0,0.053 -0.046,0.096 -0.096,0.096Zm0,1.369c-0.054,0 -0.096,-0.043 -0.096,-0.096l0,-0.196c0,-0.053 0.042,-0.096 0.096,-0.096c0.05,0 0.096,0.043 0.096,0.096l0,0.196c0,0.053 -0.046,0.096 -0.096,0.096Zm0,1.369c-0.054,0 -0.096,-0.043 -0.096,-0.096l0,-0.196c0,-0.053 0.042,-0.096 0.096,-0.096c0.05,0 0.096,0.043 0.096,0.096l0,0.196c0,0.053 -0.046,0.096 -0.096,0.096Zm0,1.369c-0.054,0 -0.096,-0.043 -0.096,-0.096l0,-0.196c0,-0.053 0.042,-0.096 0.096,-0.096c0.05,0 0.096,0.043 0.096,0.096l0,0.196c0,0.053 -0.046,0.096 -0.096,0.096Zm0,1.369c-0.054,0 -0.096,-0.043 -0.096,-0.096l0,-0.195c0,-0.053 0.042,-0.096 0.096,-0.096c0.05,0 0.096,0.043 0.096,0.096l0,0.195c0,0.054 -0.046,0.096 -0.096,0.096Zm0,1.369c-0.054,0 -0.096,-0.043 -0.096,-0.096l0,-0.195c0,-0.053 0.042,-0.096 0.096,-0.096c0.05,0 0.096,0.043 0.096,0.096l0,0.195c0,0.053 -0.046,0.096 -0.096,0.096Zm0,1.369c-0.054,0 -0.096,-0.043 -0.096,-0.096l0,-0.195c0,-0.054 0.042,-0.096 0.096,-0.096c0.05,0 0.096,0.043 0.096,0.096l0,0.195c0,0.053 -0.046,0.096 -0.096,0.096Zm0,1.369c-0.054,0 -0.096,-0.043 -0.096,-0.096l0,-0.196c0,-0.053 0.042,-0.096 0.096,-0.096c0.05,0 0.096,0.043 0.096,0.096l0,0.196c0,0.053 -0.046,0.096 -0.096,0.096Zm0,1.369c-0.054,0 -0.096,-0.043 -0.096,-0.096l0,-0.195c0,-0.053 0.042,-0.096 0.096,-0.096c0.05,0 0.096,0.043 0.096,0.096l0,0.195c0,0.054 -0.046,0.096 -0.096,0.096Zm0,1.37c-0.054,0 -0.096,-0.043 -0.096,-0.096l0,-0.196c0,-0.053 0.042,-0.096 0.096,-0.096c0.05,0 0.096,0.043 0.096,0.096l0,0.196c0,0.053 -0.046,0.096 -0.096,0.096Zm0,1.369c-0.054,0 -0.096,-0.043 -0.096,-0.096l0,-0.195c0,-0.054 0.042,-0.096 0.096,-0.096c0.05,0 0.096,0.043 0.096,0.096l0,0.195c0,0.054 -0.046,0.096 -0.096,0.096Zm0,1.369c-0.054,0 -0.096,-0.043 -0.096,-0.096l0,-0.196c0,-0.053 0.042,-0.096 0.096,-0.096c0.05,0 0.096,0.043 0.096,0.096l0,0.196c0,0.053 -0.046,0.096 -0.096,0.096Zm0,1.369c-0.054,0 -0.096,-0.043 -0.096,-0.096l0,-0.196c0,-0.053 0.042,-0.096 0.096,-0.096c0.05,0 0.096,0.043 0.096,0.096l0,0.196c0,0.053 -0.046,0.096 -0.096,0.096Zm0,1.369c-0.054,0 -0.096,-0.043 -0.096,-0.096l0,-0.196c0,-0.053 0.042,-0.096 0.096,-0.096c0.05,0 0.096,0.043 0.096,0.096l0,0.196c0,0.053 -0.046,0.096 -0.096,0.096Zm0,1.369c-0.054,0 -0.096,-0.043 -0.096,-0.096l0,-0.195c0,-0.053 0.042,-0.096 0.096,-0.096c0.05,0 0.096,0.043 0.096,0.096l0,0.195c0,0.053 -0.046,0.096 -0.096,0.096Zm0,1.369c-0.054,0 -0.096,-0.043 -0.096,-0.096l0,-0.195c0,-0.054 0.042,-0.096 0.096,-0.096c0.05,0 0.096,0.043 0.096,0.096l0,0.195c0,0.053 -0.046,0.096 -0.096,0.096Zm0,1.369c-0.054,0 -0.096,-0.043 -0.096,-0.096l0,-0.196c0,-0.053 0.042,-0.096 0.096,-0.096c0.05,0 0.096,0.043 0.096,0.096l0,0.196c0,0.053 -0.046,0.096 -0.096,0.096Zm0,1.369c-0.054,0 -0.096,-0.043 -0.096,-0.096l0,-0.195c0,-0.053 0.042,-0.096 0.096,-0.096c0.05,0 0.096,0.043 0.096,0.096l0,0.195c0,0.054 -0.046,0.096 -0.096,0.096Zm0,1.369c-0.054,0 -0.096,-0.043 -0.096,-0.096l0,-0.195c0,-0.053 0.042,-0.096 0.096,-0.096c0.05,0 0.096,0.043 0.096,0.096l0,0.195c0,0.053 -0.046,0.096 -0.096,0.096Zm0,1.369c-0.054,0 -0.096,-0.043 -0.096,-0.096l0,-0.195c0,-0.054 0.042,-0.096 0.096,-0.096c0.05,0 0.096,0.043 0.096,0.096l0,0.195c0,0.054 -0.046,0.096 -0.096,0.096Zm0,1.369c-0.054,0 -0.096,-0.043 -0.096,-0.096l0,-0.196c0,-0.053 0.042,-0.096 0.096,-0.096c0.05,0 0.096,0.043 0.096,0.096l0,0.196c0,0.053 -0.046,0.096 -0.096,0.096Zm0,1.369c-0.054,0 -0.096,-0.043 -0.096,-0.096l0,-0.196c0,-0.053 0.042,-0.096 0.096,-0.096c0.05,0 0.096,0.043 0.096,0.096l0,0.196c0,0.053 -0.046,0.096 -0.096,0.096Zm0,1.369c-0.054,0 -0.096,-0.043 -0.096,-0.096l0,-0.196c0,-0.053 0.042,-0.096 0.096,-0.096c0.05,0 0.096,0.043 0.096,0.096l0,0.196c0,0.053 -0.046,0.096 -0.096,0.096Zm0,1.369c-0.054,0 -0.096,-0.043 -0.096,-0.096l0,-0.195c0,-0.053 0.042,-0.096 0.096,-0.096c0.05,0 0.096,0.043 0.096,0.096l0,0.195c0,0.054 -0.046,0.096 -0.096,0.096Zm0,1.369c-0.054,0 -0.096,-0.043 -0.096,-0.096l0,-0.195c0,-0.053 0.042,-0.096 0.096,-0.096c0.05,0 0.096,0.043 0.096,0.096l0,0.195c0,0.053 -0.046,0.096 -0.096,0.096Zm0,1.369c-0.054,0 -0.096,-0.043 -0.096,-0.096l0,-0.196c0,-0.053 0.042,-0.096 0.096,-0.096c0.05,0 0.096,0.043 0.096,0.096l0,0.196c0,0.053 -0.046,0.096 -0.096,0.096Zm0,1.369c-0.054,0 -0.096,-0.043 -0.096,-0.096l0,-0.196c0,-0.053 0.042,-0.096 0.096,-0.096c0.05,0 0.096,0.043 0.096,0.096l0,0.196c0,0.053 -0.046,0.096 -0.096,0.096Zm0,1.369c-0.054,0 -0.096,-0.043 -0.096,-0.096l0,-0.195c0,-0.053 0.042,-0.096 0.096,-0.096c0.05,0 0.096,0.043 0.096,0.096l0,0.195c0,0.053 -0.046,0.096 -0.096,0.096Z" style="fill:#ffdcb3;fill-rule:nonzero;"/><path d="M84.252,53.835c-0.054,0 -0.096,-0.043 -0.096,-0.096l0,-0.096c0,-0.053 0.042,-0.096 0.096,-0.096c0.05,0 0.096,0.043 0.096,0.096l0,0.096c0,0.053 -0.046,0.096 -0.096,0.096Z" style="fill:#ffdcb3;fill-rule:nonzero;"/><path d="M84.272,74.484c-0.05,0 -0.096,-0.043 -0.096,-0.096l0,-0.096c0,-0.053 0.046,-0.096 0.096,-0.096c0.054,0 0.096,0.044 0.096,0.096l0,0.096c0,0.053 -0.042,0.096 -0.096,0.096Z" style="fill:#ffdcb3;fill-rule:nonzero;"/><path d="M84.272,75.852c-0.05,0 -0.096,-0.043 -0.096,-0.096l0,-0.195c0,-0.053 0.046,-0.096 0.096,-0.096c0.054,0 0.096,0.044 0.096,0.096l0,0.195c0,0.053 -0.042,0.096 -0.096,0.096Zm0,1.369c-0.05,0 -0.096,-0.043 -0.096,-0.096l0,-0.195c0,-0.053 0.046,-0.096 0.096,-0.096c0.054,0 0.096,0.043 0.096,0.096l0,0.195c0,0.053 -0.042,0.096 -0.096,0.096Zm0,1.368c-0.05,0 -0.096,-0.044 -0.096,-0.096l0,-0.195c0,-0.053 0.046,-0.096 0.096,-0.096c0.054,0 0.096,0.043 0.096,0.096l0,0.195c0,0.053 -0.042,0.096 -0.096,0.096Zm0,1.368c-0.05,0 -0.096,-0.043 -0.096,-0.096l0,-0.195c0,-0.053 0.046,-0.096 0.096,-0.096c0.054,0 0.096,0.043 0.096,0.096l0,0.195c0,0.053 -0.042,0.096 -0.096,0.096Zm0,1.368c-0.05,0 -0.096,-0.043 -0.096,-0.096l0,-0.195c0,-0.053 0.046,-0.096 0.096,-0.096c0.054,0 0.096,0.044 0.096,0.096l0,0.195c0,0.053 -0.042,0.096 -0.096,0.096Zm0,1.369c-0.05,0 -0.096,-0.043 -0.096,-0.096l0,-0.195c0,-0.053 0.046,-0.096 0.096,-0.096c0.054,0 0.096,0.044 0.096,0.096l0,0.195c0,0.053 -0.042,0.096 -0.096,0.096Zm0,1.368c-0.05,0 -0.096,-0.043 -0.096,-0.096l0,-0.195c0,-0.053 0.046,-0.096 0.096,-0.096c0.054,0 0.096,0.043 0.096,0.096l0,0.195c0,0.053 -0.042,0.096 -0.096,0.096Zm0,1.369c-0.05,0 -0.096,-0.044 -0.096,-0.096l0,-0.195c0,-0.053 0.046,-0.096 0.096,-0.096c0.054,0 0.096,0.043 0.096,0.096l0,0.195c0,0.053 -0.042,0.096 -0.096,0.096Zm0,1.368c-0.05,0 -0.096,-0.043 -0.096,-0.096l0,-0.195c0,-0.053 0.046,-0.096 0.096,-0.096c0.054,0 0.096,0.043 0.096,0.096l0,0.195c0,0.053 -0.042,0.096 -0.096,0.096Zm0,1.369c-0.05,0 -0.096,-0.043 -0.096,-0.096l0,-0.195c0,-0.053 0.046,-0.096 0.096,-0.096c0.054,0 0.096,0.044 0.096,0.096l0,0.195c0,0.053 -0.042,0.096 -0.096,0.096Zm0,1.368c-0.05,0 -0.096,-0.043 -0.096,-0.096l0,-0.195c0,-0.053 0.046,-0.096 0.096,-0.096c0.054,0 0.096,0.043 0.096,0.096l0,0.195c0,0.053 -0.042,0.096 -0.096,0.096Zm0,1.369c-0.05,0 -0.096,-0.043 -0.096,-0.096l0,-0.195c0,-0.053 0.046,-0.096 0.096,-0.096c0.054,0 0.096,0.043 0.096,0.096l0,0.195c0,0.053 -0.042,0.096 -0.096,0.096Zm0,1.368c-0.05,0 -0.096,-0.044 -0.096,-0.096l0,-0.195c0,-0.053 0.046,-0.096 0.096,-0.096c0.054,0 0.096,0.043 0.096,0.096l0,0.195c0,0.053 -0.042,0.096 -0.096,0.096Zm0,1.368c-0.05,0 -0.096,-0.043 -0.096,-0.096l0,-0.195c0,-0.053 0.046,-0.096 0.096,-0.096c0.054,0 0.096,0.043 0.096,0.096l0,0.195c0,0.053 -0.042,0.096 -0.096,0.096Zm0,1.368c-0.05,0 -0.096,-0.043 -0.096,-0.096l0,-0.195c0,-0.053 0.046,-0.096 0.096,-0.096c0.054,0 0.096,0.044 0.096,0.096l0,0.195c0,0.053 -0.042,0.096 -0.096,0.096Zm0,1.369c-0.05,0 -0.096,-0.043 -0.096,-0.096l0,-0.195c0,-0.053 0.046,-0.096 0.096,-0.096c0.054,0 0.096,0.043 0.096,0.096l0,0.195c0,0.053 -0.042,0.096 -0.096,0.096Zm0,1.368c-0.05,0 -0.096,-0.044 -0.096,-0.096l0,-0.195c0,-0.053 0.046,-0.096 0.096,-0.096c0.054,0 0.096,0.043 0.096,0.096l0,0.195c0,0.053 -0.042,0.096 -0.096,0.096Zm0,1.369c-0.05,0 -0.096,-0.044 -0.096,-0.096l0,-0.195c0,-0.053 0.046,-0.096 0.096,-0.096c0.054,0 0.096,0.043 0.096,0.096l0,0.195c0,0.053 -0.042,0.096 -0.096,0.096Zm0,1.368c-0.05,0 -0.096,-0.043 -0.096,-0.096l0,-0.195c0,-0.053 0.046,-0.096 0.096,-0.096c0.054,0 0.096,0.043 0.096,0.096l0,0.195c0,0.053 -0.042,0.096 -0.096,0.096Zm0,1.368c-0.05,0 -0.096,-0.043 -0.096,-0.096l0,-0.195c0,-0.053 0.046,-0.096 0.096,-0.096c0.054,0 0.096,0.044 0.096,0.096l0,0.195c0,0.053 -0.042,0.096 -0.096,0.096Zm0,1.369c-0.05,0 -0.096,-0.043 -0.096,-0.096l0,-0.196c0,-0.053 0.046,-0.096 0.096,-0.096c0.054,0 0.096,0.043 0.096,0.096l0,0.196c0,0.053 -0.042,0.096 -0.096,0.096Zm0,1.368c-0.05,0 -0.096,-0.044 -0.096,-0.096l0,-0.195c0,-0.053 0.046,-0.096 0.096,-0.096c0.054,0 0.096,0.043 0.096,0.096l0,0.195c0,0.053 -0.042,0.096 -0.096,0.096Zm0,1.369c-0.05,0 -0.096,-0.044 -0.096,-0.096l0,-0.196c0,-0.053 0.046,-0.096 0.096,-0.096c0.054,0 0.096,0.043 0.096,0.096l0,0.196c0,0.053 -0.042,0.096 -0.096,0.096Zm0,1.368c-0.05,0 -0.096,-0.043 -0.096,-0.096l0,-0.195c0,-0.053 0.046,-0.096 0.096,-0.096c0.054,0 0.096,0.044 0.096,0.096l0,0.195c0,0.053 -0.042,0.096 -0.096,0.096Zm0,1.369c-0.05,0 -0.096,-0.043 -0.096,-0.096l0,-0.196c0,-0.053 0.046,-0.096 0.096,-0.096c0.054,0 0.096,0.044 0.096,0.096l0,0.196c0,0.053 -0.042,0.096 -0.096,0.096Zm0,1.368c-0.05,0 -0.096,-0.043 -0.096,-0.096l0,-0.195c0,-0.053 0.046,-0.096 0.096,-0.096c0.054,0 0.096,0.043 0.096,0.096l0,0.195c0,0.053 -0.042,0.096 -0.096,0.096Zm0,1.369c-0.05,0 -0.096,-0.044 -0.096,-0.096l0,-0.196c0,-0.053 0.046,-0.096 0.096,-0.096c0.054,0 0.096,0.043 0.096,0.096l0,0.196c0,0.053 -0.042,0.096 -0.096,0.096Zm0,1.368c-0.05,0 -0.096,-0.043 -0.096,-0.096l0,-0.195c0,-0.053 0.046,-0.096 0.096,-0.096c0.054,0 0.096,0.043 0.096,0.096l0,0.195c0,0.053 -0.042,0.096 -0.096,0.096Zm0,1.369c-0.05,0 -0.096,-0.043 -0.096,-0.096l0,-0.196c0,-0.053 0.046,-0.096 0.096,-0.096c0.054,0 0.096,0.044 0.096,0.096l0,0.196c0,0.053 -0.042,0.096 -0.096,0.096Zm0,1.368c-0.05,0 -0.096,-0.043 -0.096,-0.096l0,-0.195c0,-0.053 0.046,-0.096 0.096,-0.096c0.054,0 0.096,0.044 0.096,0.096l0,0.195c0,0.053 -0.042,0.096 -0.096,0.096Zm0,1.369c-0.05,0 -0.096,-0.043 -0.096,-0.096l0,-0.196c0,-0.053 0.046,-0.096 0.096,-0.096c0.054,0 0.096,0.043 0.096,0.096l0,0.196c0,0.053 -0.042,0.096 -0.096,0.096Z" style="fill:#ffdcb3;fill-rule:nonzero;"/><path d="M84.272,118.169c-0.05,0 -0.096,-0.043 -0.096,-0.096l0,-0.096c0,-0.053 0.046,-0.096 0.096,-0.096c0.054,0 0.096,0.043 0.096,0.096l0,0.096c0,0.053 -0.042,0.096 -0.096,0.096Z" style="fill:#ffdcb3;fill-rule:nonzero;"/><path d="M61.832,5.056l-0.185,0c-0.053,0 -0.096,-0.043 -0.096,-0.096c0,-0.053 0.044,-0.096 0.096,-0.096l0.185,0c0.053,0 0.096,0.043 0.096,0.096c0,0.054 -0.043,0.096 -0.096,0.096Zm1.349,0l-0.193,0c-0.053,0 -0.096,-0.043 -0.096,-0.096c0,-0.053 0.043,-0.096 0.096,-0.096l0.193,0c0.053,0 0.096,0.043 0.096,0.096c0,0.054 -0.043,0.096 -0.096,0.096Zm1.349,0l-0.193,0c-0.053,0 -0.096,-0.043 -0.096,-0.096c0,-0.053 0.043,-0.096 0.096,-0.096l0.193,0c0.053,0 0.096,0.043 0.096,0.096c0,0.054 -0.043,0.096 -0.096,0.096Zm1.349,0l-0.193,0c-0.053,0 -0.096,-0.043 -0.096,-0.096c0,-0.053 0.043,-0.096 0.096,-0.096l0.193,0c0.053,0 0.096,0.043 0.096,0.096c0,0.054 -0.043,0.096 -0.096,0.096Zm1.349,0l-0.193,0c-0.053,0 -0.096,-0.043 -0.096,-0.096c0,-0.053 0.043,-0.096 0.096,-0.096l0.193,0c0.053,0 0.096,0.043 0.096,0.096c0,0.054 -0.043,0.096 -0.096,0.096Zm1.349,0l-0.193,0c-0.053,0 -0.096,-0.043 -0.096,-0.096c0,-0.053 0.043,-0.096 0.096,-0.096l0.193,0c0.053,0 0.096,0.043 0.096,0.096c0,0.054 -0.043,0.096 -0.096,0.096Zm1.349,0l-0.193,0c-0.053,0 -0.096,-0.043 -0.096,-0.096c0,-0.053 0.043,-0.096 0.096,-0.096l0.193,0c0.053,0 0.096,0.043 0.096,0.096c0,0.054 -0.043,0.096 -0.096,0.096Zm1.349,0l-0.193,0c-0.053,0 -0.096,-0.043 -0.096,-0.096c0,-0.053 0.043,-0.096 0.096,-0.096l0.193,0c0.053,0 0.096,0.043 0.096,0.096c0,0.054 -0.043,0.096 -0.096,0.096Zm1.349,0l-0.193,0c-0.053,0 -0.096,-0.043 -0.096,-0.096c0,-0.053 0.043,-0.096 0.096,-0.096l0.193,0c0.053,0 0.096,0.043 0.096,0.096c0,0.054 -0.043,0.096 -0.096,0.096Zm1.347,0l-0.193,0c-0.05,0 -0.096,-0.043 -0.096,-0.096c0,-0.053 0.046,-0.096 0.096,-0.096l0.193,0c0.054,0 0.096,0.043 0.096,0.096c0,0.054 -0.042,0.096 -0.096,0.096Zm1.349,0l-0.193,0c-0.05,0 -0.096,-0.043 -0.096,-0.096c0,-0.053 0.046,-0.096 0.096,-0.096l0.193,0c0.054,0 0.096,0.043 0.096,0.096c0,0.054 -0.042,0.096 -0.096,0.096Zm1.349,0l-0.193,0c-0.05,0 -0.096,-0.043 -0.096,-0.096c0,-0.053 0.046,-0.096 0.096,-0.096l0.193,0c0.054,0 0.096,0.043 0.096,0.096c0,0.054 -0.042,0.096 -0.096,0.096Zm1.349,0l-0.193,0c-0.05,0 -0.096,-0.043 -0.096,-0.096c0,-0.053 0.046,-0.096 0.096,-0.096l0.193,0c0.054,0 0.096,0.043 0.096,0.096c0,0.054 -0.042,0.096 -0.096,0.096Zm1.349,0l-0.193,0c-0.05,0 -0.096,-0.043 -0.096,-0.096c0,-0.053 0.046,-0.096 0.096,-0.096l0.193,0c0.054,0 0.096,0.043 0.096,0.096c0,0.054 -0.042,0.096 -0.096,0.096Z" style="fill:#ffdcb3;fill-rule:nonzero;"/><path d="M82.834,120.434c0,0.623 -0.505,1.128 -1.125,1.128c-0.624,0 -1.129,-0.505 -1.129,-1.128c0,-0.622 0.505,-1.127 1.129,-1.127c0.62,0 1.125,0.505 1.125,1.127Z" style="fill:#ffdcb3;fill-rule:nonzero;"/><path d="M81.963,117.158l-0.004,0c-0.046,-0.002 -0.089,-0.003 -0.131,-0.003l-0.058,0.001c-0.042,-0.003 -0.096,-0.041 -0.096,-0.094c-0.004,-0.053 0.039,-0.097 0.092,-0.098l0.058,-0.001c0.042,0.007 0.096,0.001 0.143,0.003c0.054,0.002 0.093,0.047 0.093,0.101c-0.004,0.051 -0.046,0.092 -0.096,0.092Zm-1.503,0.278c-0.039,0 -0.073,-0.022 -0.089,-0.058c-0.023,-0.049 0,-0.106 0.05,-0.127c0.062,-0.026 0.123,-0.051 0.181,-0.074c0.05,-0.017 0.108,0.008 0.127,0.058c0.015,0.05 -0.008,0.105 -0.058,0.124c-0.058,0.021 -0.116,0.044 -0.173,0.069c-0.015,0.005 -0.027,0.008 -0.039,0.008Zm2.806,0.032c-0.012,0 -0.027,-0.002 -0.039,-0.008c-0.058,-0.026 -0.116,-0.05 -0.173,-0.073c-0.05,-0.02 -0.073,-0.076 -0.054,-0.125c0.019,-0.05 0.073,-0.072 0.123,-0.055c0.061,0.024 0.123,0.05 0.185,0.077c0.046,0.022 0.069,0.079 0.046,0.128c-0.015,0.035 -0.05,0.056 -0.089,0.056Zm1.006,0.701c-0.024,0 -0.046,-0.01 -0.066,-0.028l-0.054,-0.052c-0.038,-0.037 -0.042,-0.098 -0.004,-0.136c0.039,-0.039 0.1,-0.039 0.135,-0.003l0.057,0.055c0.039,0.038 0.039,0.099 0,0.136c-0.019,0.019 -0.042,0.028 -0.069,0.028Zm-4.918,0.027c-0.023,0 -0.05,-0.009 -0.069,-0.028c-0.035,-0.038 -0.035,-0.099 0,-0.136l0.027,-0.027c0.039,-0.038 0.077,-0.074 0.116,-0.109c0.039,-0.036 0.1,-0.033 0.139,0.006c0.035,0.039 0.031,0.1 -0.008,0.136c-0.039,0.034 -0.073,0.068 -0.108,0.104l-0.027,0.027c-0.019,0.019 -0.042,0.028 -0.069,0.028Zm-0.732,1.121c-0.012,0 -0.027,-0.002 -0.039,-0.007c-0.05,-0.02 -0.073,-0.076 -0.05,-0.125c0.023,-0.061 0.05,-0.122 0.077,-0.182c0.023,-0.049 0.081,-0.068 0.127,-0.046c0.05,0.023 0.069,0.08 0.046,0.128c-0.027,0.057 -0.05,0.114 -0.073,0.171c-0.015,0.038 -0.05,0.06 -0.089,0.06Zm-0.254,1.307c-0.05,0 -0.096,-0.034 -0.096,-0.087l0.096,0l-0.096,-0.013c0,-0.065 0.004,-0.125 0.004,-0.185c0.004,-0.053 0.046,-0.093 0.104,-0.092c0.054,0.003 0.092,0.048 0.089,0.101c0,0.057 -0.004,0.113 -0.004,0.169c0,0.053 -0.042,0.106 -0.096,0.106Zm0.266,1.323c-0.035,0 -0.073,-0.022 -0.089,-0.059c-0.023,-0.061 -0.046,-0.123 -0.069,-0.185c-0.019,-0.05 0.008,-0.105 0.058,-0.123c0.05,-0.019 0.104,0.008 0.123,0.059c0.019,0.059 0.042,0.117 0.066,0.175c0.023,0.049 0,0.106 -0.05,0.126c-0.012,0.005 -0.023,0.008 -0.039,0.008Zm0.748,1.113c-0.023,0 -0.05,-0.009 -0.069,-0.028c-0.046,-0.047 -0.089,-0.095 -0.135,-0.144c-0.035,-0.04 -0.031,-0.101 0.008,-0.136c0.039,-0.035 0.1,-0.032 0.135,0.008c0.042,0.047 0.085,0.092 0.131,0.136c0.039,0.038 0.039,0.099 0,0.136c-0.019,0.019 -0.042,0.028 -0.069,0.028Z" style="fill:#ffdcb3;fill-rule:nonzero;"/><path d="M84.846,53.739c0,-0.328 -0.266,-0.593 -0.594,-0.593c-0.328,0 -0.593,0.266 -0.593,0.593c0,0.327 0.266,0.593 0.593,0.593c0.327,0 0.594,-0.266 0.594,-0.593Z" style="fill:#ffdcb3;fill-rule:nonzero;"/><path d="M84.846,74.292c0,-0.328 -0.266,-0.593 -0.594,-0.593c-0.328,0 -0.593,0.266 -0.593,0.593c0,0.327 0.266,0.593 0.593,0.593c0.327,0 0.594,-0.266 0.594,-0.593Z" style="fill:#ffdcb3;fill-rule:nonzero;"/><path d="M62.24,4.96c0,-0.328 -0.266,-0.593 -0.593,-0.593c-0.328,0 -0.593,0.266 -0.593,0.593c0,0.327 0.266,0.593 0.593,0.593c0.327,0 0.593,-0.266 0.593,-0.593Z" style="fill:#ffdcb3;fill-rule:nonzero;"/><path d="M61.846,123.06l-0.185,0c-0.053,0 -0.096,-0.043 -0.096,-0.096c0,-0.053 0.043,-0.096 0.096,-0.096l0.185,0c0.053,0 0.096,0.044 0.096,0.096c0,0.053 -0.043,0.096 -0.096,0.096Zm1.349,0l-0.193,0c-0.053,0 -0.096,-0.043 -0.096,-0.096c0,-0.053 0.043,-0.096 0.096,-0.096l0.193,0c0.053,0 0.096,0.044 0.096,0.096c0,0.053 -0.043,0.096 -0.096,0.096Zm1.349,0l-0.193,0c-0.053,0 -0.096,-0.043 -0.096,-0.096c0,-0.053 0.043,-0.096 0.096,-0.096l0.193,0c0.053,0 0.096,0.044 0.096,0.096c0,0.053 -0.043,0.096 -0.096,0.096Zm1.349,0l-0.193,0c-0.053,0 -0.096,-0.043 -0.096,-0.096c0,-0.053 0.043,-0.096 0.096,-0.096l0.193,0c0.053,0 0.096,0.044 0.096,0.096c0,0.053 -0.043,0.096 -0.096,0.096Zm1.349,0l-0.193,0c-0.053,0 -0.096,-0.043 -0.096,-0.096c0,-0.053 0.043,-0.096 0.096,-0.096l0.193,0c0.053,0 0.096,0.044 0.096,0.096c0,0.053 -0.043,0.096 -0.096,0.096Zm1.349,0l-0.193,0c-0.053,0 -0.096,-0.043 -0.096,-0.096c0,-0.053 0.043,-0.096 0.096,-0.096l0.193,0c0.053,0 0.096,0.044 0.096,0.096c0,0.053 -0.043,0.096 -0.096,0.096Zm1.349,0l-0.193,0c-0.053,0 -0.096,-0.043 -0.096,-0.096c0,-0.053 0.043,-0.096 0.096,-0.096l0.193,0c0.053,0 0.096,0.044 0.096,0.096c0,0.053 -0.043,0.096 -0.096,0.096Zm1.349,0l-0.193,0c-0.053,0 -0.096,-0.043 -0.096,-0.096c0,-0.053 0.043,-0.096 0.096,-0.096l0.193,0c0.053,0 0.096,0.044 0.096,0.096c0,0.053 -0.043,0.096 -0.096,0.096Zm1.349,0l-0.193,0c-0.053,0 -0.096,-0.043 -0.096,-0.096c0,-0.053 0.043,-0.096 0.096,-0.096l0.193,0c0.053,0 0.096,0.044 0.096,0.096c0,0.053 -0.043,0.096 -0.096,0.096Zm1.348,0l-0.193,0c-0.054,0 -0.096,-0.043 -0.096,-0.096c0,-0.053 0.042,-0.096 0.096,-0.096l0.193,0c0.054,0 0.096,0.044 0.096,0.096c0,0.053 -0.042,0.096 -0.096,0.096Zm1.349,0l-0.193,0c-0.054,0 -0.096,-0.043 -0.096,-0.096c0,-0.053 0.042,-0.096 0.096,-0.096l0.193,0c0.054,0 0.096,0.044 0.096,0.096c0,0.053 -0.042,0.096 -0.096,0.096Zm1.349,0l-0.193,0c-0.054,0 -0.096,-0.043 -0.096,-0.096c0,-0.053 0.042,-0.096 0.096,-0.096l0.193,0c0.054,0 0.096,0.044 0.096,0.096c0,0.053 -0.042,0.096 -0.096,0.096Zm1.349,0l-0.193,0c-0.054,0 -0.096,-0.043 -0.096,-0.096c0,-0.053 0.042,-0.096 0.096,-0.096l0.193,0c0.054,0 0.096,0.044 0.096,0.096c0,0.053 -0.042,0.096 -0.096,0.096Zm1.349,0l-0.193,0c-0.054,0 -0.096,-0.043 -0.096,-0.096c0,-0.053 0.042,-0.096 0.096,-0.096l0.193,0c0.054,0 0.096,0.044 0.096,0.096c0,0.053 -0.042,0.096 -0.096,0.096Z" style="fill:#ffdcb3;fill-rule:nonzero;"/><path d="M62.255,122.964c0,0.328 -0.266,0.593 -0.593,0.593c-0.327,0 -0.593,-0.266 -0.593,-0.593c0,-0.328 0.266,-0.593 0.593,-0.593c0.328,0 0.593,0.266 0.593,0.593Z" style="fill:#ffdcb3;fill-rule:nonzero;"/><path d="M84.722,67.657c0.008,0 0.02,0.002 0.027,0.005c0.042,0.013 0.069,0.05 0.069,0.092l-0.015,3.402l1.036,-3.225l0,-0.705c-1.726,-0.051 -3.117,-1.471 -3.117,-3.21c0,-1.738 1.391,-3.159 3.117,-3.21l0,-0.705l-1.036,-3.225l0.015,3.402c0,0.042 -0.027,0.079 -0.069,0.092c-0.039,0.013 -0.081,-0.002 -0.108,-0.035l-1.989,-2.76l1.064,3.232c0.012,0.04 0,0.083 -0.034,0.108c-0.035,0.025 -0.081,0.025 -0.112,0l-2.747,-2.01l2.012,2.745c0.023,0.034 0.023,0.08 0,0.114c-0.027,0.034 -0.069,0.049 -0.108,0.035l-3.233,-1.064l2.759,1.99c0.035,0.024 0.05,0.068 0.039,0.108c-0.015,0.04 -0.05,0.066 -0.092,0.066l-3.403,-0.013l3.237,1.039c0.042,0.013 0.069,0.05 0.069,0.092c0,0.042 -0.027,0.079 -0.069,0.092l-3.237,1.039l3.403,-0.013c0.042,0 0.077,0.027 0.092,0.066c0.012,0.04 -0.004,0.084 -0.039,0.108l-2.759,1.989l3.233,-1.064c0.039,-0.013 0.081,0.001 0.108,0.035c0.023,0.034 0.023,0.079 0,0.113l-2.012,2.745l2.747,-2.01c0.031,-0.025 0.077,-0.025 0.112,0c0.034,0.025 0.046,0.068 0.034,0.108l-1.064,3.231l1.989,-2.76c0.019,-0.025 0.05,-0.04 0.081,-0.04Zm-0.015,4.218c-0.008,0 -0.012,-0 -0.015,-0.001c-0.05,-0.008 -0.081,-0.048 -0.081,-0.096l0.012,-3.725l-2.177,3.022c-0.027,0.038 -0.081,0.051 -0.123,0.029c-0.042,-0.022 -0.062,-0.071 -0.046,-0.116l1.164,-3.539l-3.006,2.201c-0.039,0.028 -0.089,0.024 -0.123,-0.01c-0.035,-0.034 -0.039,-0.087 -0.012,-0.125l2.201,-3.006l-3.538,1.164c-0.042,0.015 -0.092,-0.005 -0.116,-0.048c-0.019,-0.042 -0.008,-0.094 0.031,-0.122l3.021,-2.178l-3.727,0.014c-0.046,0 -0.089,-0.035 -0.092,-0.081c-0.008,-0.047 0.019,-0.092 0.066,-0.107l3.546,-1.138l-3.546,-1.138c-0.046,-0.015 -0.073,-0.06 -0.066,-0.107c0.004,-0.047 0.046,-0.081 0.092,-0.081l3.727,0.014l-3.021,-2.178c-0.039,-0.028 -0.05,-0.079 -0.031,-0.122c0.023,-0.043 0.073,-0.064 0.116,-0.048l3.538,1.165l-2.201,-3.006c-0.027,-0.038 -0.023,-0.091 0.012,-0.125c0.035,-0.033 0.085,-0.037 0.123,-0.01l3.006,2.201l-1.164,-3.539c-0.015,-0.045 0.004,-0.094 0.046,-0.116c0.042,-0.022 0.096,-0.009 0.123,0.03l2.177,3.022l-0.012,-3.726c0,-0.047 0.031,-0.088 0.081,-0.096c0.046,-0.006 0.092,0.021 0.104,0.066l1.233,3.833c0,0.009 0.004,0.019 0.004,0.029l0,0.815c0,0.053 -0.046,0.096 -0.096,0.096c-1.664,0 -3.021,1.354 -3.021,3.019c0,1.664 1.357,3.018 3.021,3.018c0.05,0 0.096,0.044 0.096,0.096l0,0.815c0,0.01 -0.004,0.02 -0.004,0.03l-1.233,3.833c-0.012,0.04 -0.05,0.067 -0.089,0.067Z" style="fill:#ffdcb3;fill-rule:nonzero;"/></g><g id="Frames-sin-fondo" serif:id="Frames sin fondo"></g></svg>