<?xml version="1.0" encoding="UTF-8" standalone="no"?><!DOCTYPE svg PUBLIC "-//W3C//DTD SVG 1.1//EN" "http://www.w3.org/Graphics/SVG/1.1/DTD/svg11.dtd"><svg width="100%" height="100%" viewBox="0 0 96 128" version="1.1" xmlns="http://www.w3.org/2000/svg" xmlns:xlink="http://www.w3.org/1999/xlink" xml:space="preserve" xmlns:serif="http://www.serif.com/" style="fill-rule:evenodd;clip-rule:evenodd;stroke-linejoin:round;stroke-miterlimit:2;"><g id="Rechazado"><g id="Rechazado1" serif:id="Rechazado"><path d="M79.591,127.769l-59.485,0c-5.104,0 -9.242,-4.138 -9.242,-9.242l0,-109.055c0,-5.104 4.138,-9.242 9.242,-9.242l59.485,0c5.104,0 9.242,4.138 9.242,9.242l0,109.055c0,5.104 -4.138,9.242 -9.242,9.242Z" style="fill:#400810;fill-rule:nonzero;"/><path d="M20.106,0.462c-4.968,0 -9.01,4.042 -9.01,9.01l0,109.055c0,4.968 4.042,9.01 9.01,9.01l59.486,0c4.968,0 9.01,-4.042 9.01,-9.01l0,-109.055c0,-4.968 -4.042,-9.01 -9.01,-9.01l-59.486,0Zm59.486,127.538l-59.486,0c-5.223,0 -9.472,-4.249 -9.472,-9.472l0,-109.055c0,-5.224 4.249,-9.473 9.472,-9.473l59.486,0c5.224,0 9.473,4.249 9.473,9.473l0,109.055c0,5.223 -4.25,9.472 -9.473,9.472Z" style="fill:#ffdcb3;fill-rule:nonzero;"/><path d="M14.027,94.757c-0.054,0 -0.096,-0.044 -0.096,-0.096l0,-0.193c0,-0.053 0.043,-0.096 0.096,-0.096c0.053,0 0.096,0.043 0.096,0.096l0,0.193c0,0.053 -0.043,0.096 -0.096,0.096Zm0,1.349c-0.054,0 -0.096,-0.044 -0.096,-0.096l0,-0.193c0,-0.053 0.043,-0.096 0.096,-0.096c0.053,0 0.096,0.043 0.096,0.096l0,0.193c0,0.053 -0.043,0.096 -0.096,0.096Zm0,1.349c-0.054,0 -0.096,-0.044 -0.096,-0.096l0,-0.193c0,-0.053 0.043,-0.096 0.096,-0.096c0.053,0 0.096,0.043 0.096,0.096l0,0.193c0,0.053 -0.043,0.096 -0.096,0.096Zm0,1.349c-0.054,0 -0.096,-0.044 -0.096,-0.096l0,-0.193c0,-0.053 0.043,-0.096 0.096,-0.096c0.053,0 0.096,0.043 0.096,0.096l0,0.193c0,0.053 -0.043,0.096 -0.096,0.096Zm0,1.349c-0.054,0 -0.096,-0.044 -0.096,-0.096l0,-0.193c0,-0.053 0.043,-0.096 0.096,-0.096c0.053,0 0.096,0.043 0.096,0.096l0,0.193c0,0.053 -0.043,0.096 -0.096,0.096Zm0,1.349c-0.054,0 -0.096,-0.044 -0.096,-0.096l0,-0.193c0,-0.053 0.043,-0.096 0.096,-0.096c0.053,0 0.096,0.043 0.096,0.096l0,0.193c0,0.053 -0.043,0.096 -0.096,0.096Zm0,1.349c-0.054,0 -0.096,-0.044 -0.096,-0.096l0,-0.193c0,-0.053 0.043,-0.096 0.096,-0.096c0.053,0 0.096,0.043 0.096,0.096l0,0.193c0,0.053 -0.043,0.096 -0.096,0.096Zm0,1.349c-0.054,0 -0.096,-0.044 -0.096,-0.096l0,-0.193c0,-0.053 0.043,-0.096 0.096,-0.096c0.053,0 0.096,0.043 0.096,0.096l0,0.193c0,0.053 -0.043,0.096 -0.096,0.096Zm0,1.349c-0.054,0 -0.096,-0.044 -0.096,-0.096l0,-0.193c0,-0.053 0.043,-0.096 0.096,-0.096c0.053,0 0.096,0.043 0.096,0.096l0,0.193c0,0.053 -0.043,0.096 -0.096,0.096Zm0,1.349c-0.054,0 -0.096,-0.044 -0.096,-0.096l0,-0.193c0,-0.053 0.043,-0.096 0.096,-0.096c0.053,0 0.096,0.043 0.096,0.096l0,0.193c0,0.053 -0.043,0.096 -0.096,0.096Zm0,1.349c-0.054,0 -0.096,-0.044 -0.096,-0.096l0,-0.193c0,-0.053 0.043,-0.096 0.096,-0.096c0.053,0 0.096,0.043 0.096,0.096l0,0.193c0,0.053 -0.043,0.096 -0.096,0.096Zm0,1.349c-0.054,0 -0.096,-0.044 -0.096,-0.096l0,-0.193c0,-0.053 0.043,-0.096 0.096,-0.096c0.053,0 0.096,0.043 0.096,0.096l0,0.193c0,0.053 -0.043,0.096 -0.096,0.096Zm0,1.349c-0.054,0 -0.096,-0.044 -0.096,-0.096l0,-0.193c0,-0.053 0.043,-0.096 0.096,-0.096c0.053,0 0.096,0.043 0.096,0.096l0,0.193c0,0.053 -0.043,0.096 -0.096,0.096Zm0,1.349c-0.054,0 -0.096,-0.044 -0.096,-0.096l0,-0.193c0,-0.053 0.043,-0.096 0.096,-0.096c0.053,0 0.096,0.043 0.096,0.096l0,0.193c0,0.053 -0.043,0.096 -0.096,0.096Zm0,1.349c-0.054,0 -0.096,-0.044 -0.096,-0.096l0,-0.193c0,-0.053 0.043,-0.096 0.096,-0.096c0.053,0 0.096,0.043 0.096,0.096l0,0.193c0,0.053 -0.043,0.096 -0.096,0.096Zm0,1.349c-0.054,0 -0.096,-0.044 -0.096,-0.096l0,-0.193c0,-0.053 0.043,-0.096 0.096,-0.096c0.053,0 0.096,0.043 0.096,0.096l0,0.193c0,0.053 -0.043,0.096 -0.096,0.096Zm0,1.348c-0.053,0 -0.096,-0.043 -0.096,-0.095l-0,-0.193c0,-0.053 0.043,-0.096 0.096,-0.096c0.053,0 0.096,0.043 0.096,0.096l0,0.191c0,0.053 -0.042,0.097 -0.096,0.098l-0.001,0Zm0.12,1.342c-0.046,0 -0.087,-0.033 -0.095,-0.08c-0.01,-0.064 -0.021,-0.128 -0.03,-0.193c-0.008,-0.053 0.029,-0.102 0.082,-0.109c0.048,-0.008 0.101,0.029 0.109,0.081c0.009,0.063 0.019,0.126 0.03,0.188c0.009,0.053 -0.027,0.103 -0.079,0.111c-0.005,0.001 -0.011,0.002 -0.016,0.002Zm0.327,1.307c-0.04,0 -0.078,-0.025 -0.091,-0.066c-0.02,-0.062 -0.041,-0.124 -0.06,-0.186c-0.016,-0.05 0.012,-0.104 0.063,-0.12c0.052,-0.016 0.105,0.012 0.121,0.063c0.019,0.061 0.038,0.121 0.059,0.181c0.017,0.05 -0.01,0.105 -0.061,0.122c-0.01,0.003 -0.02,0.005 -0.031,0.005Zm0.528,1.239c-0.035,0 -0.068,-0.019 -0.086,-0.052c-0.03,-0.057 -0.059,-0.115 -0.088,-0.173c-0.024,-0.048 -0.004,-0.106 0.044,-0.129c0.047,-0.024 0.105,-0.005 0.129,0.043c0.028,0.057 0.057,0.113 0.086,0.17c0.025,0.047 0.007,0.106 -0.041,0.13c-0.014,0.008 -0.029,0.011 -0.044,0.011Zm0.714,1.141c-0.029,0 -0.059,-0.013 -0.077,-0.039c-0.039,-0.052 -0.077,-0.105 -0.114,-0.157c-0.03,-0.044 -0.02,-0.104 0.023,-0.134c0.044,-0.031 0.104,-0.02 0.134,0.023c0.037,0.052 0.074,0.103 0.112,0.154c0.032,0.042 0.023,0.103 -0.02,0.135c-0.017,0.013 -0.037,0.019 -0.057,0.019Zm0.882,1.018c-0.025,0 -0.049,-0.009 -0.068,-0.028c-0.046,-0.045 -0.092,-0.092 -0.137,-0.139c-0.037,-0.038 -0.036,-0.099 0.003,-0.136c0.039,-0.037 0.099,-0.036 0.136,0.002c0.044,0.046 0.089,0.091 0.134,0.135c0.038,0.037 0.038,0.098 0.001,0.136c-0.019,0.019 -0.044,0.029 -0.069,0.029Zm1.029,0.87c-0.02,0 -0.039,-0.006 -0.057,-0.018c-0.052,-0.038 -0.105,-0.077 -0.156,-0.116c-0.043,-0.032 -0.051,-0.092 -0.019,-0.134c0.032,-0.043 0.093,-0.051 0.135,-0.019c0.051,0.038 0.103,0.076 0.154,0.113c0.043,0.031 0.053,0.091 0.022,0.134c-0.018,0.026 -0.048,0.04 -0.078,0.04Zm1.152,0.7c-0.015,0 -0.03,-0.003 -0.044,-0.01c-0.058,-0.029 -0.116,-0.059 -0.173,-0.09c-0.047,-0.025 -0.064,-0.084 -0.039,-0.131c0.025,-0.047 0.084,-0.064 0.13,-0.04c0.056,0.03 0.113,0.059 0.169,0.088c0.047,0.024 0.067,0.082 0.043,0.129c-0.017,0.034 -0.051,0.053 -0.086,0.053Zm1.247,0.512c-0.01,0 -0.02,-0.001 -0.03,-0.005c-0.062,-0.02 -0.124,-0.041 -0.185,-0.062c-0.05,-0.017 -0.077,-0.072 -0.059,-0.123c0.018,-0.05 0.072,-0.075 0.123,-0.059c0.061,0.021 0.121,0.041 0.182,0.061c0.05,0.016 0.078,0.071 0.062,0.121c-0.013,0.04 -0.051,0.066 -0.092,0.066Zm1.311,0.311c-0.005,0 -0.01,-0 -0.015,-0.001c-0.064,-0.01 -0.129,-0.021 -0.193,-0.032c-0.052,-0.01 -0.087,-0.06 -0.077,-0.113c0.01,-0.052 0.061,-0.087 0.112,-0.077c0.062,0.012 0.124,0.022 0.187,0.032c0.053,0.008 0.089,0.057 0.081,0.11c-0.007,0.047 -0.048,0.082 -0.095,0.082Zm1.343,0.104c-0.065,0 -0.13,-0.001 -0.195,-0.002c-0.053,-0.001 -0.096,-0.045 -0.094,-0.099c0.002,-0.053 0.046,-0.091 0.098,-0.094c0.064,0.002 0.127,0.002 0.19,0.002c0.053,0 0.096,0.043 0.096,0.096c0,0.053 -0.043,0.096 -0.096,0.096Z" style="fill:#ffdcb3;fill-rule:nonzero;"/><path d="M21.878,3.284c-0.049,0 -0.091,-0.038 -0.096,-0.088c-0.005,-0.053 0.034,-0.1 0.087,-0.104c0.064,-0.006 0.129,-0.011 0.194,-0.016c0.05,-0.005 0.099,0.036 0.103,0.089c0.004,0.053 -0.036,0.099 -0.089,0.103c-0.063,0.004 -0.127,0.009 -0.19,0.015c-0.003,0 -0.006,0 -0.009,0Zm-1.327,0.227c-0.043,0 -0.082,-0.029 -0.093,-0.072c-0.013,-0.052 0.018,-0.104 0.069,-0.117c0.063,-0.016 0.126,-0.031 0.19,-0.045c0.052,-0.012 0.103,0.02 0.115,0.072c0.012,0.052 -0.02,0.103 -0.072,0.115c-0.062,0.014 -0.124,0.029 -0.185,0.045c-0.008,0.002 -0.016,0.003 -0.024,0.003Zm-1.276,0.432c-0.037,0 -0.073,-0.022 -0.088,-0.058c-0.021,-0.049 0.002,-0.106 0.05,-0.126c0.059,-0.025 0.119,-0.05 0.179,-0.074c0.049,-0.02 0.106,0.004 0.125,0.053c0.02,0.049 -0.004,0.106 -0.054,0.126c-0.059,0.024 -0.117,0.048 -0.175,0.072c-0.012,0.005 -0.025,0.008 -0.038,0.008Zm-1.192,0.625c-0.032,0 -0.063,-0.016 -0.082,-0.045c-0.028,-0.045 -0.015,-0.104 0.03,-0.133c0.055,-0.035 0.11,-0.069 0.166,-0.102c0.045,-0.027 0.105,-0.012 0.132,0.034c0.027,0.046 0.012,0.105 -0.033,0.132c-0.055,0.033 -0.109,0.066 -0.162,0.099c-0.016,0.01 -0.034,0.015 -0.051,0.015Zm-1.081,0.803c-0.027,0 -0.054,-0.011 -0.072,-0.033c-0.035,-0.04 -0.031,-0.101 0.009,-0.136c0.049,-0.042 0.098,-0.085 0.148,-0.126c0.04,-0.034 0.102,-0.029 0.136,0.012c0.034,0.041 0.029,0.102 -0.012,0.136c-0.049,0.041 -0.097,0.082 -0.145,0.124c-0.018,0.016 -0.04,0.024 -0.063,0.024Zm-0.945,0.96c-0.022,0 -0.044,-0.007 -0.062,-0.023c-0.04,-0.034 -0.046,-0.095 -0.011,-0.136c0.042,-0.05 0.084,-0.099 0.127,-0.148c0.035,-0.04 0.096,-0.044 0.136,-0.009c0.04,0.035 0.044,0.096 0.009,0.136c-0.042,0.048 -0.084,0.096 -0.124,0.145c-0.019,0.023 -0.047,0.034 -0.074,0.034Zm-0.785,1.096c-0.017,0 -0.034,-0.005 -0.05,-0.014c-0.045,-0.027 -0.06,-0.087 -0.032,-0.132c0.034,-0.056 0.068,-0.111 0.103,-0.166c0.029,-0.045 0.089,-0.057 0.133,-0.03c0.045,0.029 0.058,0.088 0.03,0.133c-0.034,0.054 -0.068,0.108 -0.101,0.162c-0.018,0.03 -0.05,0.047 -0.082,0.047Zm-0.606,1.204c-0.012,0 -0.025,-0.002 -0.036,-0.007c-0.049,-0.02 -0.073,-0.077 -0.053,-0.126c0.025,-0.06 0.05,-0.12 0.076,-0.18c0.021,-0.049 0.078,-0.072 0.126,-0.05c0.049,0.021 0.071,0.078 0.05,0.126c-0.025,0.059 -0.05,0.117 -0.074,0.176c-0.015,0.037 -0.052,0.06 -0.089,0.06Zm-0.41,1.284c-0.007,0 -0.015,-0.001 -0.022,-0.002c-0.052,-0.012 -0.084,-0.064 -0.072,-0.116c0.015,-0.063 0.03,-0.126 0.047,-0.189c0.013,-0.052 0.066,-0.083 0.118,-0.069c0.052,0.013 0.082,0.066 0.069,0.117c-0.016,0.061 -0.031,0.123 -0.046,0.185c-0.01,0.044 -0.05,0.074 -0.094,0.074Zm-0.205,1.332c-0.003,0 -0.005,0 -0.008,-0c-0.053,-0.004 -0.092,-0.05 -0.089,-0.103c0.005,-0.065 0.01,-0.129 0.017,-0.194c0.005,-0.053 0.055,-0.09 0.106,-0.086c0.053,0.005 0.092,0.052 0.087,0.105c-0.007,0.063 -0.012,0.126 -0.017,0.19c-0.004,0.05 -0.046,0.089 -0.096,0.089Zm-0.024,1.348c-0.054,0 -0.096,-0.043 -0.096,-0.096l0,-0.193c0,-0.053 0.043,-0.096 0.096,-0.096c0.053,0 0.096,0.043 0.096,0.096l0,0.193c0,0.053 -0.043,0.096 -0.096,0.096Zm0,1.349c-0.054,0 -0.096,-0.043 -0.096,-0.096l0,-0.193c0,-0.053 0.043,-0.096 0.096,-0.096c0.053,0 0.096,0.043 0.096,0.096l0,0.193c0,0.053 -0.043,0.096 -0.096,0.096Zm0,1.349c-0.054,0 -0.096,-0.043 -0.096,-0.096l0,-0.193c0,-0.053 0.043,-0.096 0.096,-0.096c0.053,0 0.096,0.043 0.096,0.096l0,0.193c0,0.053 -0.043,0.096 -0.096,0.096Zm0,1.348c-0.054,0 -0.096,-0.043 -0.096,-0.096l0,-0.193c0,-0.053 0.043,-0.096 0.096,-0.096c0.053,0 0.096,0.043 0.096,0.096l0,0.193c0,0.053 -0.043,0.096 -0.096,0.096Zm0,1.349c-0.054,0 -0.096,-0.043 -0.096,-0.096l0,-0.193c0,-0.053 0.043,-0.096 0.096,-0.096c0.053,0 0.096,0.043 0.096,0.096l0,0.193c0,0.053 -0.043,0.096 -0.096,0.096Zm0,1.349c-0.054,0 -0.096,-0.043 -0.096,-0.096l0,-0.193c0,-0.053 0.043,-0.096 0.096,-0.096c0.053,0 0.096,0.043 0.096,0.096l0,0.193c0,0.053 -0.043,0.096 -0.096,0.096Zm0,1.349c-0.054,0 -0.096,-0.043 -0.096,-0.096l0,-0.193c0,-0.053 0.043,-0.096 0.096,-0.096c0.053,0 0.096,0.043 0.096,0.096l0,0.193c0,0.053 -0.043,0.096 -0.096,0.096Zm0,1.349c-0.054,0 -0.096,-0.043 -0.096,-0.096l0,-0.193c0,-0.053 0.043,-0.096 0.096,-0.096c0.053,0 0.096,0.043 0.096,0.096l0,0.193c0,0.053 -0.043,0.096 -0.096,0.096Zm0,1.349c-0.054,0 -0.096,-0.043 -0.096,-0.096l0,-0.193c0,-0.053 0.043,-0.096 0.096,-0.096c0.053,0 0.096,0.043 0.096,0.096l0,0.193c0,0.053 -0.043,0.096 -0.096,0.096Zm0,1.349c-0.054,0 -0.096,-0.043 -0.096,-0.096l0,-0.193c0,-0.053 0.043,-0.096 0.096,-0.096c0.053,0 0.096,0.043 0.096,0.096l0,0.193c0,0.053 -0.043,0.096 -0.096,0.096Zm0,1.349c-0.054,0 -0.096,-0.043 -0.096,-0.096l0,-0.193c0,-0.053 0.043,-0.096 0.096,-0.096c0.053,0 0.096,0.043 0.096,0.096l0,0.193c0,0.053 -0.043,0.096 -0.096,0.096Zm0,1.349c-0.054,0 -0.096,-0.043 -0.096,-0.096l0,-0.193c0,-0.053 0.043,-0.096 0.096,-0.096c0.053,0 0.096,0.043 0.096,0.096l0,0.193c0,0.053 -0.043,0.096 -0.096,0.096Zm0,1.349c-0.054,0 -0.096,-0.043 -0.096,-0.096l0,-0.193c0,-0.053 0.043,-0.096 0.096,-0.096c0.053,0 0.096,0.043 0.096,0.096l0,0.193c0,0.053 -0.043,0.096 -0.096,0.096Zm0,1.349c-0.054,0 -0.096,-0.043 -0.096,-0.096l0,-0.193c0,-0.053 0.043,-0.096 0.096,-0.096c0.053,0 0.096,0.043 0.096,0.096l0,0.193c0,0.053 -0.043,0.096 -0.096,0.096Zm0,1.349c-0.054,0 -0.096,-0.043 -0.096,-0.096l0,-0.193c0,-0.053 0.043,-0.096 0.096,-0.096c0.053,0 0.096,0.043 0.096,0.096l0,0.193c0,0.053 -0.043,0.096 -0.096,0.096Zm0,1.349c-0.054,0 -0.096,-0.043 -0.096,-0.096l0,-0.193c0,-0.053 0.043,-0.096 0.096,-0.096c0.053,0 0.096,0.043 0.096,0.096l0,0.193c0,0.053 -0.043,0.096 -0.096,0.096Z" style="fill:#ffdcb3;fill-rule:nonzero;"/><path d="M51.449,3.151l-1.58,2.984l-1.58,-2.984l1.58,-2.984l1.58,2.984Z" style="fill:#ffdcb3;fill-rule:nonzero;"/><path d="M45.097,3.151l0.942,1.78l0.942,-1.78l-0.942,-1.78l-0.942,1.78Zm0.942,2.082c-0.036,0 -0.069,-0.02 -0.085,-0.051l-1.051,-1.986c-0.015,-0.029 -0.015,-0.062 0,-0.091l1.051,-1.986c0.034,-0.063 0.137,-0.063 0.17,0l1.051,1.986c0.015,0.028 0.015,0.062 0,0.091l-1.051,1.986c-0.017,0.031 -0.049,0.051 -0.085,0.051Z" style="fill:#ffdcb3;fill-rule:nonzero;"/><path d="M40.892,3.151l0.942,1.78l0.942,-1.78l-0.942,-1.78l-0.942,1.78Zm0.942,2.082c-0.035,0 -0.068,-0.02 -0.085,-0.051l-1.051,-1.986c-0.015,-0.029 -0.015,-0.062 0,-0.091l1.051,-1.986c0.017,-0.031 0.05,-0.051 0.085,-0.051c0.036,0 0.069,0.02 0.085,0.051l1.051,1.986c0.015,0.028 0.015,0.062 0,0.091l-1.051,1.986c-0.017,0.031 -0.049,0.051 -0.085,0.051Z" style="fill:#ffdcb3;fill-rule:nonzero;"/><path d="M44.988,3.151l-1.051,1.986l-1.051,-1.986l1.051,-1.986l1.051,1.986Z" style="fill:#ffdcb3;fill-rule:nonzero;"/><path d="M57.038,3.151l-1.051,1.986l-1.051,-1.986l1.051,-1.986l1.051,1.986Z" style="fill:#ffdcb3;fill-rule:nonzero;"/><path d="M13.003,64l1.023,1.933l1.023,-1.933l-1.023,-1.933l-1.023,1.933Zm1.023,2.658c-0.086,0 -0.165,-0.047 -0.205,-0.123l-1.284,-2.426c-0.036,-0.068 -0.036,-0.149 0,-0.217l1.284,-2.427c0.08,-0.151 0.329,-0.151 0.409,0l1.285,2.427c0.036,0.068 0.036,0.149 0,0.217l-1.285,2.426c-0.04,0.076 -0.119,0.123 -0.204,0.123Z" style="fill:#ffdcb3;fill-rule:nonzero;"/><path d="M13.003,59.147l1.023,1.932l1.023,-1.932l-1.023,-1.933l-1.023,1.933Zm1.023,2.658c-0.086,0 -0.165,-0.047 -0.205,-0.123l-1.284,-2.426c-0.036,-0.068 -0.036,-0.149 0,-0.217l1.284,-2.427c0.08,-0.151 0.329,-0.151 0.409,0l1.285,2.427c0.036,0.068 0.036,0.149 0,0.217l-1.285,2.426c-0.04,0.076 -0.119,0.123 -0.204,0.123Z" style="fill:#ffdcb3;fill-rule:nonzero;"/><path d="M13.003,54.293l1.023,1.933l1.023,-1.933l-1.023,-1.933l-1.023,1.933Zm1.023,2.658c-0.086,0 -0.165,-0.047 -0.205,-0.123l-1.284,-2.427c-0.036,-0.068 -0.036,-0.148 0,-0.216l1.284,-2.427c0.08,-0.151 0.329,-0.151 0.409,0l1.285,2.427c0.036,0.068 0.036,0.148 0,0.216l-1.285,2.427c-0.04,0.076 -0.119,0.123 -0.204,0.123Z" style="fill:#ffdcb3;fill-rule:nonzero;"/><path d="M13.003,68.854l1.023,1.932l1.023,-1.932l-1.023,-1.933l-1.023,1.933Zm1.023,2.658c-0.086,0 -0.165,-0.047 -0.205,-0.123l-1.284,-2.427c-0.036,-0.067 -0.036,-0.149 0,-0.216l1.284,-2.426c0.08,-0.152 0.329,-0.152 0.409,0l1.285,2.426c0.036,0.067 0.036,0.149 0,0.216l-1.285,2.427c-0.04,0.076 -0.119,0.123 -0.204,0.123Z" style="fill:#ffdcb3;fill-rule:nonzero;"/><path d="M13.003,73.707l1.023,1.933l1.023,-1.933l-1.023,-1.932l-1.023,1.932Zm1.023,2.658c-0.086,0 -0.165,-0.047 -0.205,-0.123l-1.284,-2.427c-0.036,-0.067 -0.036,-0.149 0,-0.216l1.284,-2.427c0.08,-0.152 0.329,-0.152 0.409,0l1.285,2.427c0.036,0.067 0.036,0.149 0,0.216l-1.285,2.427c-0.04,0.076 -0.119,0.123 -0.204,0.123Z" style="fill:#ffdcb3;fill-rule:nonzero;"/><path d="M52.942,3.151l0.942,1.78l0.943,-1.78l-0.943,-1.78l-0.942,1.78Zm0.942,2.082c-0.035,0 -0.068,-0.02 -0.085,-0.051l-1.051,-1.986c-0.015,-0.029 -0.015,-0.062 0,-0.091l1.051,-1.986c0.034,-0.063 0.137,-0.063 0.171,0l1.051,1.986c0.015,0.028 0.015,0.062 0,0.091l-1.051,1.986c-0.017,0.031 -0.049,0.051 -0.085,0.051Z" style="fill:#ffdcb3;fill-rule:nonzero;"/><path d="M57.147,3.151l0.942,1.78l0.942,-1.78l-0.942,-1.78l-0.942,1.78Zm0.942,2.082c-0.035,0 -0.068,-0.02 -0.085,-0.051l-1.051,-1.986c-0.015,-0.029 -0.015,-0.062 -0,-0.091l1.051,-1.986c0.017,-0.031 0.05,-0.051 0.085,-0.051c0.036,0 0.069,0.02 0.086,0.051l1.051,1.986c0.015,0.028 0.015,0.062 0,0.091l-1.051,1.986c-0.017,0.031 -0.05,0.051 -0.086,0.051Z" style="fill:#ffdcb3;fill-rule:nonzero;"/><path d="M48.927,8.121l0.942,1.78l0.943,-1.78l-0.943,-1.78l-0.942,1.78Zm0.942,2.082c-0.035,0 -0.068,-0.02 -0.085,-0.051l-1.051,-1.986c-0.015,-0.028 -0.015,-0.062 0,-0.09l1.051,-1.986c0.034,-0.063 0.137,-0.063 0.171,0l1.051,1.986c0.015,0.028 0.015,0.062 0,0.09l-1.051,1.986c-0.017,0.031 -0.05,0.051 -0.086,0.051Z" style="fill:#ffdcb3;fill-rule:nonzero;"/><path d="M14.027,51.963c-0.054,0 -0.096,-0.043 -0.096,-0.096l0,-19.136c0,-0.053 0.043,-0.096 0.096,-0.096c0.053,0 0.096,0.043 0.096,0.096l0,19.136c0,0.053 -0.043,0.096 -0.096,0.096Z" style="fill:#ffdcb3;fill-rule:nonzero;"/><path d="M14.027,95.367c-0.054,0 -0.096,-0.044 -0.096,-0.096l0,-19.136c0,-0.053 0.043,-0.096 0.096,-0.096c0.053,0 0.096,0.044 0.096,0.096l0,19.136c0,0.053 -0.043,0.096 -0.096,0.096Z" style="fill:#ffdcb3;fill-rule:nonzero;"/><path d="M49.869,13.916c-0.053,0 -0.096,-0.043 -0.096,-0.096l0,-3.712c0,-0.054 0.043,-0.096 0.096,-0.096c0.054,0 0.096,0.043 0.096,0.096l0,3.712c0,0.054 -0.043,0.096 -0.096,0.096Z" style="fill:#ffdcb3;fill-rule:nonzero;"/><path d="M43.937,8.742c-0.053,0 -0.096,-0.043 -0.096,-0.096l0,-3.713c0,-0.053 0.043,-0.096 0.096,-0.096c0.053,0 0.096,0.043 0.096,0.096l0,3.713c0,0.053 -0.043,0.096 -0.096,0.096Z" style="fill:#ffdcb3;fill-rule:nonzero;"/><path d="M55.987,8.742c-0.053,0 -0.096,-0.043 -0.096,-0.096l0,-3.713c0,-0.053 0.043,-0.096 0.096,-0.096c0.054,0 0.096,0.043 0.096,0.096l0,3.713c0,0.053 -0.043,0.096 -0.096,0.096Z" style="fill:#ffdcb3;fill-rule:nonzero;"/><path d="M43.496,8.646c0,0.243 0.197,0.44 0.44,0.44c0.243,0 0.441,-0.197 0.441,-0.44c0,-0.243 -0.197,-0.44 -0.441,-0.44c-0.243,0 -0.44,0.197 -0.44,0.44Z" style="fill:#ffdcb3;fill-rule:nonzero;"/><path d="M49.429,13.82c0,0.243 0.197,0.441 0.441,0.441c0.243,0 0.44,-0.197 0.44,-0.441c0,-0.243 -0.197,-0.44 -0.44,-0.44c-0.244,0 -0.441,0.197 -0.441,0.44Z" style="fill:#ffdcb3;fill-rule:nonzero;"/><path d="M22.24,3.151c0,0.243 0.197,0.441 0.441,0.441c0.243,0 0.44,-0.197 0.44,-0.441c0,-0.243 -0.197,-0.441 -0.44,-0.441c-0.243,0 -0.441,0.197 -0.441,0.441Z" style="fill:#ffdcb3;fill-rule:nonzero;"/><path d="M13.586,32.499c0,0.243 0.197,0.44 0.44,0.44c0.243,0 0.44,-0.197 0.44,-0.44c0,-0.243 -0.197,-0.441 -0.44,-0.441c-0.243,0 -0.44,0.197 -0.44,0.441Z" style="fill:#ffdcb3;fill-rule:nonzero;"/><path d="M13.586,95.27c0,0.244 0.197,0.441 0.44,0.441c0.243,0 0.44,-0.197 0.44,-0.441c0,-0.243 -0.197,-0.44 -0.44,-0.44c-0.243,0 -0.44,0.197 -0.44,0.44Z" style="fill:#ffdcb3;fill-rule:nonzero;"/><path d="M85.784,94.757c-0.053,0 -0.096,-0.044 -0.096,-0.096l0,-0.193c0,-0.053 0.043,-0.096 0.096,-0.096c0.053,0 0.096,0.043 0.096,0.096l0,0.193c0,0.053 -0.043,0.096 -0.096,0.096Zm0,1.349c-0.053,0 -0.096,-0.044 -0.096,-0.096l0,-0.193c0,-0.053 0.043,-0.096 0.096,-0.096c0.053,0 0.096,0.043 0.096,0.096l0,0.193c0,0.053 -0.043,0.096 -0.096,0.096Zm0,1.349c-0.053,0 -0.096,-0.044 -0.096,-0.096l0,-0.193c0,-0.053 0.043,-0.096 0.096,-0.096c0.053,0 0.096,0.043 0.096,0.096l0,0.193c0,0.053 -0.043,0.096 -0.096,0.096Zm0,1.349c-0.053,0 -0.096,-0.044 -0.096,-0.096l0,-0.193c0,-0.053 0.043,-0.096 0.096,-0.096c0.053,0 0.096,0.043 0.096,0.096l0,0.193c0,0.053 -0.043,0.096 -0.096,0.096Zm0,1.349c-0.053,0 -0.096,-0.044 -0.096,-0.096l0,-0.193c0,-0.053 0.043,-0.096 0.096,-0.096c0.053,0 0.096,0.043 0.096,0.096l0,0.193c0,0.053 -0.043,0.096 -0.096,0.096Zm0,1.349c-0.053,0 -0.096,-0.044 -0.096,-0.096l0,-0.193c0,-0.053 0.043,-0.096 0.096,-0.096c0.053,0 0.096,0.043 0.096,0.096l0,0.193c0,0.053 -0.043,0.096 -0.096,0.096Zm0,1.349c-0.053,0 -0.096,-0.044 -0.096,-0.096l0,-0.193c0,-0.053 0.043,-0.096 0.096,-0.096c0.053,0 0.096,0.043 0.096,0.096l0,0.193c0,0.053 -0.043,0.096 -0.096,0.096Zm0,1.349c-0.053,0 -0.096,-0.044 -0.096,-0.096l0,-0.193c0,-0.053 0.043,-0.096 0.096,-0.096c0.053,0 0.096,0.043 0.096,0.096l0,0.193c0,0.053 -0.043,0.096 -0.096,0.096Zm0,1.349c-0.053,0 -0.096,-0.044 -0.096,-0.096l0,-0.193c0,-0.053 0.043,-0.096 0.096,-0.096c0.053,0 0.096,0.043 0.096,0.096l0,0.193c0,0.053 -0.043,0.096 -0.096,0.096Zm0,1.349c-0.053,0 -0.096,-0.044 -0.096,-0.096l0,-0.193c0,-0.053 0.043,-0.096 0.096,-0.096c0.053,0 0.096,0.043 0.096,0.096l0,0.193c0,0.053 -0.043,0.096 -0.096,0.096Zm0,1.349c-0.053,0 -0.096,-0.044 -0.096,-0.096l0,-0.193c0,-0.053 0.043,-0.096 0.096,-0.096c0.053,0 0.096,0.043 0.096,0.096l0,0.193c0,0.053 -0.043,0.096 -0.096,0.096Zm0,1.349c-0.053,0 -0.096,-0.044 -0.096,-0.096l0,-0.193c0,-0.053 0.043,-0.096 0.096,-0.096c0.053,0 0.096,0.043 0.096,0.096l0,0.193c0,0.053 -0.043,0.096 -0.096,0.096Zm0,1.349c-0.053,0 -0.096,-0.044 -0.096,-0.096l0,-0.193c0,-0.053 0.043,-0.096 0.096,-0.096c0.053,0 0.096,0.043 0.096,0.096l0,0.193c0,0.053 -0.043,0.096 -0.096,0.096Zm0,1.349c-0.053,0 -0.096,-0.044 -0.096,-0.096l0,-0.193c0,-0.053 0.043,-0.096 0.096,-0.096c0.053,0 0.096,0.043 0.096,0.096l0,0.193c0,0.053 -0.043,0.096 -0.096,0.096Zm0,1.349c-0.053,0 -0.096,-0.044 -0.096,-0.096l0,-0.193c0,-0.053 0.043,-0.096 0.096,-0.096c0.053,0 0.096,0.043 0.096,0.096l0,0.193c0,0.053 -0.043,0.096 -0.096,0.096Zm0,1.349c-0.053,0 -0.096,-0.044 -0.096,-0.096l0,-0.193c0,-0.053 0.043,-0.096 0.096,-0.096c0.053,0 0.096,0.043 0.096,0.096l0,0.193c0,0.053 -0.043,0.096 -0.096,0.096Zm-0.001,1.348l-0.001,0c-0.053,-0.001 -0.096,-0.044 -0.096,-0.098l0.001,-0.191c0,-0.053 0.043,-0.096 0.096,-0.096c0.053,0 0.096,0.043 0.096,0.096l-0.001,0.193c-0,0.052 -0.044,0.095 -0.096,0.095Zm-0.12,1.342c-0.005,0 -0.011,-0 -0.017,-0.002c-0.052,-0.008 -0.087,-0.058 -0.079,-0.111c0.011,-0.062 0.02,-0.125 0.029,-0.188c0.008,-0.053 0.059,-0.09 0.109,-0.081c0.052,0.007 0.089,0.056 0.082,0.109c-0.01,0.064 -0.02,0.129 -0.03,0.193c-0.008,0.047 -0.049,0.08 -0.095,0.08Zm-0.328,1.307c-0.01,0 -0.02,-0.002 -0.03,-0.005c-0.05,-0.017 -0.078,-0.072 -0.061,-0.122c0.02,-0.061 0.04,-0.121 0.059,-0.181c0.016,-0.051 0.069,-0.08 0.121,-0.063c0.051,0.016 0.079,0.07 0.063,0.12c-0.019,0.062 -0.039,0.124 -0.06,0.186c-0.013,0.04 -0.051,0.066 -0.091,0.066Zm-0.527,1.239c-0.015,0 -0.03,-0.003 -0.045,-0.011c-0.047,-0.024 -0.066,-0.083 -0.041,-0.13c0.029,-0.056 0.058,-0.113 0.086,-0.17c0.024,-0.048 0.082,-0.067 0.129,-0.043c0.048,0.024 0.067,0.081 0.044,0.129c-0.029,0.057 -0.058,0.115 -0.088,0.173c-0.017,0.033 -0.05,0.052 -0.085,0.052Zm-0.714,1.141c-0.02,0 -0.04,-0.006 -0.057,-0.019c-0.043,-0.032 -0.052,-0.092 -0.02,-0.135c0.037,-0.051 0.075,-0.103 0.111,-0.154c0.03,-0.043 0.091,-0.054 0.134,-0.023c0.044,0.03 0.054,0.091 0.023,0.134c-0.037,0.052 -0.075,0.105 -0.114,0.157c-0.019,0.025 -0.048,0.039 -0.077,0.039Zm-0.883,1.018c-0.025,0 -0.049,-0.009 -0.068,-0.029c-0.037,-0.038 -0.037,-0.099 0.001,-0.136c0.045,-0.045 0.09,-0.089 0.134,-0.135c0.037,-0.039 0.098,-0.039 0.136,-0.002c0.039,0.037 0.04,0.098 0.003,0.136c-0.045,0.047 -0.091,0.093 -0.137,0.139c-0.019,0.018 -0.043,0.028 -0.068,0.028Zm-1.029,0.87c-0.03,0 -0.059,-0.014 -0.078,-0.04c-0.031,-0.043 -0.022,-0.103 0.022,-0.134c0.052,-0.037 0.103,-0.075 0.154,-0.113c0.042,-0.032 0.103,-0.024 0.135,0.019c0.032,0.042 0.024,0.103 -0.019,0.134c-0.052,0.039 -0.104,0.078 -0.157,0.116c-0.017,0.012 -0.037,0.018 -0.056,0.018Zm-1.152,0.7c-0.035,0 -0.069,-0.019 -0.086,-0.053c-0.024,-0.047 -0.005,-0.106 0.042,-0.129c0.057,-0.029 0.113,-0.058 0.169,-0.088c0.047,-0.024 0.105,-0.007 0.13,0.04c0.025,0.047 0.008,0.105 -0.039,0.131c-0.057,0.031 -0.115,0.061 -0.173,0.09c-0.014,0.007 -0.029,0.01 -0.044,0.01Zm-1.248,0.512c-0.04,0 -0.078,-0.026 -0.091,-0.066c-0.017,-0.05 0.011,-0.105 0.062,-0.121c0.061,-0.02 0.121,-0.04 0.182,-0.061c0.051,-0.016 0.105,0.009 0.123,0.059c0.017,0.05 -0.009,0.106 -0.059,0.123c-0.061,0.021 -0.123,0.042 -0.185,0.062c-0.01,0.003 -0.02,0.005 -0.03,0.005Zm-1.311,0.311c-0.047,0 -0.088,-0.034 -0.095,-0.082c-0.008,-0.053 0.028,-0.102 0.081,-0.11c0.063,-0.01 0.125,-0.02 0.187,-0.032c0.052,-0.01 0.103,0.025 0.112,0.077c0.01,0.052 -0.025,0.103 -0.077,0.113c-0.064,0.012 -0.128,0.023 -0.193,0.032c-0.005,0.001 -0.01,0.001 -0.015,0.001Zm-1.343,0.104c-0.053,0 -0.096,-0.044 -0.096,-0.096c0,-0.053 0.043,-0.096 0.096,-0.096c0.064,0 0.127,-0.001 0.19,-0.002c0.06,0.006 0.097,0.041 0.099,0.094c0.001,0.053 -0.041,0.098 -0.094,0.099c-0.065,0.002 -0.13,0.002 -0.195,0.002Z" style="fill:#ffdcb3;fill-rule:nonzero;"/><path d="M77.932,3.284c-0.003,0 -0.006,-0 -0.009,-0c-0.063,-0.006 -0.126,-0.011 -0.19,-0.015c-0.053,-0.004 -0.093,-0.05 -0.089,-0.103c0.004,-0.053 0.057,-0.093 0.103,-0.089c0.065,0.005 0.129,0.01 0.194,0.016c0.053,0.005 0.092,0.052 0.087,0.104c-0.005,0.05 -0.047,0.088 -0.096,0.088Zm1.328,0.227c-0.008,0 -0.016,-0.001 -0.024,-0.003c-0.061,-0.016 -0.123,-0.031 -0.185,-0.045c-0.052,-0.012 -0.084,-0.064 -0.072,-0.115c0.012,-0.052 0.063,-0.084 0.115,-0.072c0.064,0.014 0.127,0.03 0.19,0.045c0.052,0.013 0.083,0.066 0.07,0.117c-0.011,0.044 -0.05,0.072 -0.093,0.072Zm1.275,0.432c-0.013,0 -0.025,-0.002 -0.038,-0.008c-0.058,-0.025 -0.117,-0.049 -0.175,-0.072c-0.049,-0.02 -0.073,-0.076 -0.054,-0.126c0.02,-0.049 0.076,-0.073 0.125,-0.053c0.061,0.024 0.12,0.049 0.18,0.074c0.049,0.021 0.071,0.077 0.05,0.126c-0.016,0.037 -0.051,0.058 -0.089,0.058Zm1.192,0.625c-0.017,0 -0.035,-0.005 -0.051,-0.015c-0.054,-0.034 -0.108,-0.067 -0.162,-0.099c-0.045,-0.027 -0.061,-0.086 -0.034,-0.132c0.027,-0.046 0.086,-0.061 0.133,-0.034c0.055,0.034 0.111,0.067 0.165,0.102c0.045,0.028 0.059,0.087 0.03,0.133c-0.019,0.029 -0.05,0.045 -0.082,0.045Zm1.081,0.803c-0.022,0 -0.045,-0.008 -0.063,-0.024c-0.048,-0.042 -0.096,-0.083 -0.145,-0.124c-0.041,-0.034 -0.046,-0.094 -0.012,-0.136c0.034,-0.041 0.095,-0.046 0.136,-0.012c0.05,0.042 0.1,0.084 0.148,0.126c0.04,0.035 0.044,0.096 0.01,0.136c-0.019,0.022 -0.046,0.033 -0.073,0.033Zm0.945,0.96c-0.027,0 -0.055,-0.012 -0.074,-0.034c-0.041,-0.049 -0.083,-0.097 -0.124,-0.145c-0.035,-0.04 -0.031,-0.101 0.008,-0.136c0.04,-0.035 0.101,-0.031 0.136,0.009c0.043,0.049 0.085,0.098 0.127,0.148c0.034,0.041 0.029,0.101 -0.012,0.136c-0.018,0.015 -0.04,0.023 -0.062,0.023Zm0.785,1.096c-0.033,0 -0.064,-0.017 -0.082,-0.047c-0.033,-0.054 -0.066,-0.108 -0.101,-0.162c-0.029,-0.045 -0.015,-0.104 0.029,-0.133c0.045,-0.028 0.104,-0.015 0.133,0.03c0.035,0.055 0.069,0.11 0.103,0.166c0.027,0.045 0.013,0.105 -0.033,0.132c-0.015,0.009 -0.033,0.014 -0.05,0.014Zm0.606,1.204c-0.038,0 -0.074,-0.023 -0.089,-0.06c-0.024,-0.059 -0.049,-0.118 -0.074,-0.176c-0.021,-0.049 0.001,-0.105 0.05,-0.126c0.049,-0.022 0.106,0.001 0.127,0.05c0.026,0.06 0.051,0.119 0.076,0.18c0.02,0.049 -0.003,0.106 -0.053,0.126c-0.012,0.005 -0.024,0.007 -0.037,0.007Zm0.41,1.284c-0.044,0 -0.084,-0.03 -0.094,-0.074c-0.015,-0.062 -0.03,-0.124 -0.045,-0.185c-0.013,-0.052 0.018,-0.104 0.069,-0.117c0.052,-0.014 0.104,0.017 0.118,0.069c0.016,0.063 0.032,0.126 0.047,0.189c0.012,0.052 -0.02,0.104 -0.072,0.116c-0.007,0.002 -0.015,0.002 -0.022,0.002Zm0.204,1.332c-0.05,0 -0.092,-0.039 -0.096,-0.089c-0.005,-0.064 -0.01,-0.127 -0.016,-0.19c-0.005,-0.053 0.034,-0.1 0.086,-0.105c0.054,-0.003 0.1,0.034 0.106,0.086c0.006,0.065 0.012,0.129 0.017,0.194c0.004,0.053 -0.035,0.099 -0.089,0.103c-0.002,0 -0.005,0 -0.008,0Zm0.025,1.348c-0.053,0 -0.096,-0.043 -0.096,-0.096l0,-0.193c0,-0.053 0.043,-0.096 0.096,-0.096c0.053,0 0.096,0.043 0.096,0.096l0,0.193c0,0.053 -0.043,0.096 -0.096,0.096Zm0,1.349c-0.053,0 -0.096,-0.043 -0.096,-0.096l0,-0.193c0,-0.053 0.043,-0.096 0.096,-0.096c0.053,0 0.096,0.043 0.096,0.096l0,0.193c0,0.053 -0.043,0.096 -0.096,0.096Zm0,1.349c-0.053,0 -0.096,-0.043 -0.096,-0.096l0,-0.193c0,-0.053 0.043,-0.096 0.096,-0.096c0.053,0 0.096,0.043 0.096,0.096l0,0.193c0,0.053 -0.043,0.096 -0.096,0.096Zm0,1.348c-0.053,0 -0.096,-0.043 -0.096,-0.096l0,-0.193c0,-0.053 0.043,-0.096 0.096,-0.096c0.053,0 0.096,0.043 0.096,0.096l0,0.193c0,0.053 -0.043,0.096 -0.096,0.096Zm0,1.349c-0.053,0 -0.096,-0.043 -0.096,-0.096l0,-0.193c0,-0.053 0.043,-0.096 0.096,-0.096c0.053,0 0.096,0.043 0.096,0.096l0,0.193c0,0.053 -0.043,0.096 -0.096,0.096Zm0,1.349c-0.053,0 -0.096,-0.043 -0.096,-0.096l0,-0.193c0,-0.053 0.043,-0.096 0.096,-0.096c0.053,0 0.096,0.043 0.096,0.096l0,0.193c0,0.053 -0.043,0.096 -0.096,0.096Zm0,1.349c-0.053,0 -0.096,-0.043 -0.096,-0.096l0,-0.193c0,-0.053 0.043,-0.096 0.096,-0.096c0.053,0 0.096,0.043 0.096,0.096l0,0.193c0,0.053 -0.043,0.096 -0.096,0.096Zm0,1.349c-0.053,0 -0.096,-0.043 -0.096,-0.096l0,-0.193c0,-0.053 0.043,-0.096 0.096,-0.096c0.053,0 0.096,0.043 0.096,0.096l0,0.193c0,0.053 -0.043,0.096 -0.096,0.096Zm0,1.349c-0.053,0 -0.096,-0.043 -0.096,-0.096l0,-0.193c0,-0.053 0.043,-0.096 0.096,-0.096c0.053,0 0.096,0.043 0.096,0.096l0,0.193c0,0.053 -0.043,0.096 -0.096,0.096Zm0,1.349c-0.053,0 -0.096,-0.043 -0.096,-0.096l0,-0.193c0,-0.053 0.043,-0.096 0.096,-0.096c0.053,0 0.096,0.043 0.096,0.096l0,0.193c0,0.053 -0.043,0.096 -0.096,0.096Zm0,1.349c-0.053,0 -0.096,-0.043 -0.096,-0.096l0,-0.193c0,-0.053 0.043,-0.096 0.096,-0.096c0.053,0 0.096,0.043 0.096,0.096l0,0.193c0,0.053 -0.043,0.096 -0.096,0.096Zm0,1.349c-0.053,0 -0.096,-0.043 -0.096,-0.096l0,-0.193c0,-0.053 0.043,-0.096 0.096,-0.096c0.053,0 0.096,0.043 0.096,0.096l0,0.193c0,0.053 -0.043,0.096 -0.096,0.096Zm0,1.349c-0.053,0 -0.096,-0.043 -0.096,-0.096l0,-0.193c0,-0.053 0.043,-0.096 0.096,-0.096c0.053,0 0.096,0.043 0.096,0.096l0,0.193c0,0.053 -0.043,0.096 -0.096,0.096Zm0,1.349c-0.053,0 -0.096,-0.043 -0.096,-0.096l0,-0.193c0,-0.053 0.043,-0.096 0.096,-0.096c0.053,0 0.096,0.043 0.096,0.096l0,0.193c0,0.053 -0.043,0.096 -0.096,0.096Zm0,1.349c-0.053,0 -0.096,-0.043 -0.096,-0.096l0,-0.193c0,-0.053 0.043,-0.096 0.096,-0.096c0.053,0 0.096,0.043 0.096,0.096l0,0.193c0,0.053 -0.043,0.096 -0.096,0.096Zm0,1.349c-0.053,0 -0.096,-0.043 -0.096,-0.096l0,-0.193c0,-0.053 0.043,-0.096 0.096,-0.096c0.053,0 0.096,0.043 0.096,0.096l0,0.193c0,0.053 -0.043,0.096 -0.096,0.096Z" style="fill:#ffdcb3;fill-rule:nonzero;"/><path d="M84.761,64l1.023,1.933l1.023,-1.933l-1.023,-1.933l-1.023,1.933Zm1.023,2.658c-0.086,0 -0.164,-0.047 -0.204,-0.123l-1.285,-2.426c-0.036,-0.068 -0.036,-0.149 0,-0.217l1.285,-2.427c0.04,-0.076 0.119,-0.123 0.204,-0.123c0.086,0 0.164,0.047 0.204,0.123l1.285,2.427c0.035,0.068 0.035,0.149 0,0.217l-1.285,2.426c-0.04,0.076 -0.119,0.123 -0.204,0.123Z" style="fill:#ffdcb3;fill-rule:nonzero;"/><path d="M84.761,59.147l1.023,1.932l1.023,-1.932l-1.023,-1.933l-1.023,1.933Zm1.023,2.658c-0.086,0 -0.164,-0.047 -0.204,-0.123l-1.285,-2.426c-0.036,-0.068 -0.036,-0.149 0,-0.217l1.285,-2.427c0.08,-0.151 0.328,-0.151 0.409,0l1.285,2.427c0.035,0.068 0.035,0.149 0,0.217l-1.285,2.426c-0.04,0.076 -0.119,0.123 -0.204,0.123Z" style="fill:#ffdcb3;fill-rule:nonzero;"/><path d="M84.761,54.293l1.023,1.933l1.023,-1.933l-1.023,-1.933l-1.023,1.933Zm1.023,2.658c-0.086,0 -0.164,-0.047 -0.204,-0.123l-1.285,-2.427c-0.036,-0.068 -0.036,-0.148 0,-0.216l1.285,-2.427c0.08,-0.151 0.328,-0.151 0.409,0l1.285,2.427c0.035,0.068 0.035,0.148 0,0.216l-1.285,2.427c-0.04,0.076 -0.119,0.123 -0.204,0.123Z" style="fill:#ffdcb3;fill-rule:nonzero;"/><path d="M84.761,68.854l1.023,1.932l1.023,-1.932l-1.023,-1.933l-1.023,1.933Zm1.023,2.658c-0.086,0 -0.164,-0.047 -0.204,-0.123l-1.285,-2.427c-0.036,-0.067 -0.036,-0.149 0,-0.216l1.285,-2.426c0.08,-0.152 0.328,-0.152 0.409,0l1.285,2.426c0.035,0.067 0.035,0.149 0,0.216l-1.285,2.427c-0.04,0.076 -0.119,0.123 -0.204,0.123Z" style="fill:#ffdcb3;fill-rule:nonzero;"/><path d="M84.761,73.707l1.023,1.933l1.023,-1.933l-1.023,-1.932l-1.023,1.932Zm1.023,2.658c-0.086,0 -0.164,-0.047 -0.204,-0.123l-1.285,-2.427c-0.036,-0.067 -0.036,-0.149 0,-0.216l1.285,-2.427c0.08,-0.152 0.328,-0.152 0.409,0l1.285,2.427c0.035,0.067 0.035,0.149 0,0.216l-1.285,2.427c-0.04,0.076 -0.119,0.123 -0.204,0.123Z" style="fill:#ffdcb3;fill-rule:nonzero;"/><path d="M85.784,51.963c-0.053,0 -0.096,-0.043 -0.096,-0.096l0,-19.136c0,-0.053 0.043,-0.096 0.096,-0.096c0.053,0 0.096,0.043 0.096,0.096l0,19.136c0,0.053 -0.043,0.096 -0.096,0.096Z" style="fill:#ffdcb3;fill-rule:nonzero;"/><path d="M85.784,95.367c-0.053,0 -0.096,-0.044 -0.096,-0.096l0,-19.136c0,-0.053 0.043,-0.096 0.096,-0.096c0.053,0 0.096,0.044 0.096,0.096l0,19.136c0,0.053 -0.043,0.096 -0.096,0.096Z" style="fill:#ffdcb3;fill-rule:nonzero;"/><path d="M86.224,32.499c0,0.243 -0.197,0.44 -0.44,0.44c-0.243,0 -0.441,-0.197 -0.441,-0.44c0,-0.243 0.197,-0.441 0.441,-0.441c0.243,0 0.44,0.197 0.44,0.441Z" style="fill:#ffdcb3;fill-rule:nonzero;"/><path d="M86.224,95.27c0,0.244 -0.197,0.441 -0.44,0.441c-0.243,0 -0.441,-0.197 -0.441,-0.441c0,-0.243 0.197,-0.44 0.441,-0.44c0.243,0 0.44,0.197 0.44,0.44Z" style="fill:#ffdcb3;fill-rule:nonzero;"/><path d="M55.547,8.703c0,0.243 0.197,0.441 0.44,0.441c0.243,0 0.44,-0.197 0.44,-0.441c0,-0.243 -0.197,-0.441 -0.44,-0.441c-0.243,0 -0.44,0.197 -0.44,0.441Z" style="fill:#ffdcb3;fill-rule:nonzero;"/><path d="M76.803,3.151c0,0.243 0.197,0.441 0.441,0.441c0.243,0 0.44,-0.197 0.44,-0.441c0,-0.243 -0.197,-0.441 -0.44,-0.441c-0.243,0 -0.441,0.197 -0.441,0.441Z" style="fill:#ffdcb3;fill-rule:nonzero;"/><path d="M40.783,3.247l-18.103,0c-0.053,0 -0.096,-0.043 -0.096,-0.096c0,-0.053 0.043,-0.096 0.096,-0.096l18.103,0c0.053,0 0.096,0.043 0.096,0.096c0,0.054 -0.043,0.096 -0.096,0.096Z" style="fill:#ffdcb3;fill-rule:nonzero;"/><path d="M77.244,3.247l-18.103,0c-0.053,0 -0.096,-0.043 -0.096,-0.096c0,-0.053 0.043,-0.096 0.096,-0.096l18.103,0c0.053,0 0.096,0.043 0.096,0.096c0,0.054 -0.043,0.096 -0.096,0.096Z" style="fill:#ffdcb3;fill-rule:nonzero;"/><path d="M51.336,124.785l-1.58,-2.984l-1.58,2.984l1.58,2.984l1.58,-2.984Z" style="fill:#ffdcb3;fill-rule:nonzero;"/><path d="M44.984,124.785l0.942,1.78l0.943,-1.78l-0.943,-1.78l-0.942,1.78Zm0.942,2.082c-0.035,0 -0.068,-0.02 -0.085,-0.051l-1.051,-1.986c-0.015,-0.028 -0.015,-0.062 -0,-0.091l1.051,-1.986c0.034,-0.063 0.137,-0.063 0.171,0l1.051,1.986c0.015,0.029 0.015,0.062 -0,0.091l-1.051,1.986c-0.017,0.032 -0.049,0.051 -0.085,0.051Z" style="fill:#ffdcb3;fill-rule:nonzero;"/><path d="M40.779,124.785l0.942,1.78l0.942,-1.78l-0.942,-1.78l-0.942,1.78Zm0.942,2.082c-0.036,0 -0.069,-0.02 -0.085,-0.051l-1.051,-1.986c-0.015,-0.028 -0.015,-0.062 0,-0.091l1.051,-1.986c0.017,-0.032 0.049,-0.051 0.085,-0.051c0.036,0 0.069,0.02 0.085,0.051l1.051,1.986c0.015,0.029 0.015,0.062 0,0.091l-1.051,1.986c-0.017,0.032 -0.049,0.051 -0.085,0.051Z" style="fill:#ffdcb3;fill-rule:nonzero;"/><path d="M44.875,124.785l-1.051,-1.986l-1.051,1.986l1.051,1.986l1.051,-1.986Z" style="fill:#ffdcb3;fill-rule:nonzero;"/><path d="M56.925,124.785l-1.051,-1.986l-1.051,1.986l1.051,1.986l1.051,-1.986Z" style="fill:#ffdcb3;fill-rule:nonzero;"/><path d="M52.829,124.785l0.942,1.78l0.942,-1.78l-0.942,-1.78l-0.942,1.78Zm0.942,2.082c-0.036,0 -0.069,-0.02 -0.085,-0.051l-1.051,-1.986c-0.015,-0.028 -0.015,-0.062 0,-0.091l1.051,-1.986c0.034,-0.063 0.137,-0.063 0.17,0l1.051,1.986c0.015,0.029 0.015,0.062 0,0.091l-1.051,1.986c-0.017,0.032 -0.049,0.051 -0.085,0.051Z" style="fill:#ffdcb3;fill-rule:nonzero;"/><path d="M57.034,124.785l0.942,1.78l0.942,-1.78l-0.942,-1.78l-0.942,1.78Zm0.942,2.082c-0.036,0 -0.069,-0.02 -0.085,-0.051l-1.051,-1.986c-0.015,-0.028 -0.015,-0.062 0,-0.091l1.051,-1.986c0.017,-0.032 0.049,-0.051 0.085,-0.051c0.036,0 0.069,0.02 0.085,0.051l1.051,1.986c0.015,0.029 0.015,0.062 0,0.091l-1.051,1.986c-0.017,0.032 -0.049,0.051 -0.085,0.051Z" style="fill:#ffdcb3;fill-rule:nonzero;"/><path d="M48.814,119.815l0.942,1.78l0.942,-1.78l-0.942,-1.78l-0.942,1.78Zm0.942,2.082c-0.036,0 -0.069,-0.019 -0.085,-0.051l-1.051,-1.986c-0.015,-0.028 -0.015,-0.062 0,-0.09l1.051,-1.986c0.034,-0.063 0.137,-0.063 0.17,0l1.051,1.986c0.015,0.028 0.015,0.062 0,0.09l-1.051,1.986c-0.017,0.032 -0.049,0.051 -0.085,0.051Z" style="fill:#ffdcb3;fill-rule:nonzero;"/><path d="M49.756,117.925c-0.053,0 -0.096,-0.043 -0.096,-0.096l0,-3.713c0,-0.053 0.043,-0.096 0.096,-0.096c0.053,0 0.096,0.043 0.096,0.096l0,3.713c0,0.053 -0.043,0.096 -0.096,0.096Z" style="fill:#ffdcb3;fill-rule:nonzero;"/><path d="M43.824,123.099c-0.053,0 -0.096,-0.044 -0.096,-0.096l0,-3.713c0,-0.053 0.043,-0.096 0.096,-0.096c0.054,0 0.096,0.043 0.096,0.096l0,3.713c0,0.053 -0.043,0.096 -0.096,0.096Z" style="fill:#ffdcb3;fill-rule:nonzero;"/><path d="M55.874,123.099c-0.053,0 -0.096,-0.044 -0.096,-0.096l0,-3.713c0,-0.053 0.043,-0.096 0.096,-0.096c0.053,0 0.096,0.043 0.096,0.096l0,3.713c0,0.053 -0.043,0.096 -0.096,0.096Z" style="fill:#ffdcb3;fill-rule:nonzero;"/><path d="M43.383,119.29c0,-0.243 0.197,-0.441 0.44,-0.441c0.243,0 0.44,0.197 0.44,0.441c0,0.243 -0.197,0.44 -0.44,0.44c-0.244,0 -0.44,-0.197 -0.44,-0.44Z" style="fill:#ffdcb3;fill-rule:nonzero;"/><path d="M49.316,114.116c0,-0.243 0.197,-0.44 0.441,-0.44c0.243,0 0.441,0.197 0.441,0.44c0,0.243 -0.197,0.44 -0.441,0.44c-0.243,0 -0.441,-0.197 -0.441,-0.44Z" style="fill:#ffdcb3;fill-rule:nonzero;"/><path d="M22.127,124.785c0,-0.243 0.197,-0.44 0.441,-0.44c0.243,0 0.44,0.197 0.44,0.44c0,0.243 -0.197,0.44 -0.44,0.44c-0.243,0 -0.441,-0.197 -0.441,-0.44Z" style="fill:#ffdcb3;fill-rule:nonzero;"/><path d="M55.433,119.233c0,-0.243 0.197,-0.44 0.441,-0.44c0.243,0 0.44,0.197 0.44,0.44c0,0.243 -0.197,0.44 -0.44,0.44c-0.243,0 -0.441,-0.197 -0.441,-0.44Z" style="fill:#ffdcb3;fill-rule:nonzero;"/><path d="M76.69,124.785c0,-0.243 0.197,-0.44 0.44,-0.44c0.243,0 0.441,0.197 0.441,0.44c0,0.243 -0.197,0.44 -0.441,0.44c-0.243,0 -0.44,-0.197 -0.44,-0.44Z" style="fill:#ffdcb3;fill-rule:nonzero;"/><path d="M40.67,124.881l-18.103,0c-0.054,0 -0.096,-0.044 -0.096,-0.096c0,-0.053 0.043,-0.096 0.096,-0.096l18.103,0c0.053,0 0.096,0.043 0.096,0.096c0,0.053 -0.043,0.096 -0.096,0.096Z" style="fill:#ffdcb3;fill-rule:nonzero;"/><path d="M77.13,124.881l-18.102,0c-0.054,0 -0.096,-0.044 -0.096,-0.096c0,-0.053 0.043,-0.096 0.096,-0.096l18.102,0c0.053,0 0.096,0.043 0.096,0.096c0,0.053 -0.043,0.096 -0.096,0.096Z" style="fill:#ffdcb3;fill-rule:nonzero;"/><path d="M17.008,52.155c-0.053,0 -0.096,-0.043 -0.096,-0.096l0,-0.193c0,-0.054 0.043,-0.096 0.096,-0.096c0.053,0 0.096,0.043 0.096,0.096l0,0.193c0,0.053 -0.043,0.096 -0.096,0.096Zm0,1.349c-0.053,0 -0.096,-0.043 -0.096,-0.096l0,-0.193c0,-0.054 0.043,-0.096 0.096,-0.096c0.053,0 0.096,0.043 0.096,0.096l0,0.193c0,0.053 -0.043,0.096 -0.096,0.096Zm0,1.349c-0.053,0 -0.096,-0.043 -0.096,-0.096l0,-0.193c0,-0.054 0.043,-0.096 0.096,-0.096c0.053,0 0.096,0.043 0.096,0.096l0,0.193c0,0.053 -0.043,0.096 -0.096,0.096Zm0,1.349c-0.053,0 -0.096,-0.043 -0.096,-0.096l0,-0.193c0,-0.054 0.043,-0.096 0.096,-0.096c0.053,0 0.096,0.043 0.096,0.096l0,0.193c0,0.053 -0.043,0.096 -0.096,0.096Zm0,1.349c-0.053,0 -0.096,-0.043 -0.096,-0.096l0,-0.193c0,-0.054 0.043,-0.096 0.096,-0.096c0.053,0 0.096,0.043 0.096,0.096l0,0.193c0,0.053 -0.043,0.096 -0.096,0.096Zm0,1.349c-0.053,0 -0.096,-0.043 -0.096,-0.096l0,-0.193c0,-0.054 0.043,-0.096 0.096,-0.096c0.053,0 0.096,0.043 0.096,0.096l0,0.193c0,0.053 -0.043,0.096 -0.096,0.096Zm0,1.349c-0.053,0 -0.096,-0.043 -0.096,-0.096l0,-0.193c0,-0.054 0.043,-0.096 0.096,-0.096c0.053,0 0.096,0.043 0.096,0.096l0,0.193c0,0.053 -0.043,0.096 -0.096,0.096Zm0,1.349c-0.053,0 -0.096,-0.043 -0.096,-0.096l0,-0.193c0,-0.054 0.043,-0.096 0.096,-0.096c0.053,0 0.096,0.043 0.096,0.096l0,0.193c0,0.053 -0.043,0.096 -0.096,0.096Zm0,1.349c-0.053,0 -0.096,-0.043 -0.096,-0.096l0,-0.193c0,-0.054 0.043,-0.096 0.096,-0.096c0.053,0 0.096,0.043 0.096,0.096l0,0.193c0,0.053 -0.043,0.096 -0.096,0.096Zm0,1.349c-0.053,0 -0.096,-0.043 -0.096,-0.096l0,-0.193c0,-0.054 0.043,-0.096 0.096,-0.096c0.053,0 0.096,0.043 0.096,0.096l0,0.193c0,0.053 -0.043,0.096 -0.096,0.096Zm0,1.349c-0.053,0 -0.096,-0.044 -0.096,-0.096l0,-0.193c0,-0.053 0.043,-0.096 0.096,-0.096c0.053,0 0.096,0.043 0.096,0.096l0,0.193c0,0.053 -0.043,0.096 -0.096,0.096Zm0,1.349c-0.053,0 -0.096,-0.044 -0.096,-0.096l0,-0.193c0,-0.053 0.043,-0.096 0.096,-0.096c0.053,0 0.096,0.043 0.096,0.096l0,0.193c0,0.053 -0.043,0.096 -0.096,0.096Zm0,1.349c-0.053,0 -0.096,-0.044 -0.096,-0.096l0,-0.193c0,-0.053 0.043,-0.096 0.096,-0.096c0.053,0 0.096,0.043 0.096,0.096l0,0.193c0,0.053 -0.043,0.096 -0.096,0.096Zm0,1.349c-0.053,0 -0.096,-0.044 -0.096,-0.096l0,-0.193c0,-0.053 0.043,-0.096 0.096,-0.096c0.053,0 0.096,0.043 0.096,0.096l0,0.193c0,0.053 -0.043,0.096 -0.096,0.096Zm0,1.349c-0.053,0 -0.096,-0.044 -0.096,-0.096l0,-0.193c0,-0.053 0.043,-0.096 0.096,-0.096c0.053,0 0.096,0.043 0.096,0.096l0,0.193c0,0.053 -0.043,0.096 -0.096,0.096Zm0,1.349c-0.053,0 -0.096,-0.044 -0.096,-0.096l0,-0.193c0,-0.053 0.043,-0.096 0.096,-0.096c0.053,0 0.096,0.043 0.096,0.096l0,0.193c0,0.053 -0.043,0.096 -0.096,0.096Zm0,1.349c-0.053,0 -0.096,-0.044 -0.096,-0.096l0,-0.193c0,-0.053 0.043,-0.096 0.096,-0.096c0.053,0 0.096,0.043 0.096,0.096l0,0.193c0,0.053 -0.043,0.096 -0.096,0.096Zm0,1.349c-0.053,0 -0.096,-0.044 -0.096,-0.096l0,-0.193c0,-0.053 0.043,-0.096 0.096,-0.096c0.053,0 0.096,0.043 0.096,0.096l0,0.193c0,0.053 -0.043,0.096 -0.096,0.096Z" style="fill:#ffdcb3;fill-rule:nonzero;"/><path d="M82.761,52.155c-0.053,0 -0.096,-0.043 -0.096,-0.096l0,-0.193c0,-0.054 0.043,-0.096 0.096,-0.096c0.053,0 0.096,0.043 0.096,0.096l0,0.193c0,0.053 -0.043,0.096 -0.096,0.096Zm0,1.349c-0.053,0 -0.096,-0.043 -0.096,-0.096l0,-0.193c0,-0.054 0.043,-0.096 0.096,-0.096c0.053,0 0.096,0.043 0.096,0.096l0,0.193c0,0.053 -0.043,0.096 -0.096,0.096Zm0,1.349c-0.053,0 -0.096,-0.043 -0.096,-0.096l0,-0.193c0,-0.054 0.043,-0.096 0.096,-0.096c0.053,0 0.096,0.043 0.096,0.096l0,0.193c0,0.053 -0.043,0.096 -0.096,0.096Zm0,1.349c-0.053,0 -0.096,-0.043 -0.096,-0.096l0,-0.193c0,-0.054 0.043,-0.096 0.096,-0.096c0.053,0 0.096,0.043 0.096,0.096l0,0.193c0,0.053 -0.043,0.096 -0.096,0.096Zm0,1.349c-0.053,0 -0.096,-0.043 -0.096,-0.096l0,-0.193c0,-0.054 0.043,-0.096 0.096,-0.096c0.053,0 0.096,0.043 0.096,0.096l0,0.193c0,0.053 -0.043,0.096 -0.096,0.096Zm0,1.349c-0.053,0 -0.096,-0.043 -0.096,-0.096l0,-0.193c0,-0.054 0.043,-0.096 0.096,-0.096c0.053,0 0.096,0.043 0.096,0.096l0,0.193c0,0.053 -0.043,0.096 -0.096,0.096Zm0,1.349c-0.053,0 -0.096,-0.043 -0.096,-0.096l0,-0.193c0,-0.054 0.043,-0.096 0.096,-0.096c0.053,0 0.096,0.043 0.096,0.096l0,0.193c0,0.053 -0.043,0.096 -0.096,0.096Zm0,1.349c-0.053,0 -0.096,-0.043 -0.096,-0.096l0,-0.193c0,-0.054 0.043,-0.096 0.096,-0.096c0.053,0 0.096,0.043 0.096,0.096l0,0.193c0,0.053 -0.043,0.096 -0.096,0.096Zm0,1.349c-0.053,0 -0.096,-0.043 -0.096,-0.096l0,-0.193c0,-0.054 0.043,-0.096 0.096,-0.096c0.053,0 0.096,0.043 0.096,0.096l0,0.193c0,0.053 -0.043,0.096 -0.096,0.096Zm0,1.349c-0.053,0 -0.096,-0.043 -0.096,-0.096l0,-0.193c0,-0.054 0.043,-0.096 0.096,-0.096c0.053,0 0.096,0.043 0.096,0.096l0,0.193c0,0.053 -0.043,0.096 -0.096,0.096Zm0,1.349c-0.053,0 -0.096,-0.044 -0.096,-0.096l0,-0.193c0,-0.053 0.043,-0.096 0.096,-0.096c0.053,0 0.096,0.043 0.096,0.096l0,0.193c0,0.053 -0.043,0.096 -0.096,0.096Zm0,1.349c-0.053,0 -0.096,-0.044 -0.096,-0.096l0,-0.193c0,-0.053 0.043,-0.096 0.096,-0.096c0.053,0 0.096,0.043 0.096,0.096l0,0.193c0,0.053 -0.043,0.096 -0.096,0.096Zm0,1.349c-0.053,0 -0.096,-0.044 -0.096,-0.096l0,-0.193c0,-0.053 0.043,-0.096 0.096,-0.096c0.053,0 0.096,0.043 0.096,0.096l0,0.193c0,0.053 -0.043,0.096 -0.096,0.096Zm0,1.349c-0.053,0 -0.096,-0.044 -0.096,-0.096l0,-0.193c0,-0.053 0.043,-0.096 0.096,-0.096c0.053,0 0.096,0.043 0.096,0.096l0,0.193c0,0.053 -0.043,0.096 -0.096,0.096Zm0,1.349c-0.053,0 -0.096,-0.044 -0.096,-0.096l0,-0.193c0,-0.053 0.043,-0.096 0.096,-0.096c0.053,0 0.096,0.043 0.096,0.096l0,0.193c0,0.053 -0.043,0.096 -0.096,0.096Zm0,1.349c-0.053,0 -0.096,-0.044 -0.096,-0.096l0,-0.193c0,-0.053 0.043,-0.096 0.096,-0.096c0.053,0 0.096,0.043 0.096,0.096l0,0.193c0,0.053 -0.043,0.096 -0.096,0.096Zm0,1.349c-0.053,0 -0.096,-0.044 -0.096,-0.096l0,-0.193c0,-0.053 0.043,-0.096 0.096,-0.096c0.053,0 0.096,0.043 0.096,0.096l0,0.193c0,0.053 -0.043,0.096 -0.096,0.096Zm0,1.349c-0.053,0 -0.096,-0.044 -0.096,-0.096l0,-0.193c0,-0.053 0.043,-0.096 0.096,-0.096c0.053,0 0.096,0.043 0.096,0.096l0,0.193c0,0.053 -0.043,0.096 -0.096,0.096Z" style="fill:#ffdcb3;fill-rule:nonzero;"/></g><g><path d="M44.357,39.207c0.153,-0.317 0.39,-0.584 0.581,-0.877c0.081,-0.136 0.19,-0.245 0.326,-0.326c0.014,-0.006 0.028,-0.012 0.042,-0.017c-0.049,-0.153 -0.06,-0.32 -0.008,-0.498c0.034,-0.115 0.061,-0.054 -0.024,-0.161c-0.103,-0.129 -0.186,-0.253 -0.31,-0.372c-0.238,-0.23 -0.464,-0.399 -0.77,-0.536c-0.532,-0.241 -1.128,-0.329 -1.715,-0.358c-0.036,0.058 -0.076,0.111 -0.125,0.158c-0.088,0.084 -0.165,0.177 -0.246,0.267c-0.121,0.325 -0.23,0.657 -0.279,0.995c-0.033,0.223 -0.03,0.459 0.018,0.679c0.043,0.194 0.132,0.35 0.212,0.412c0.114,0.087 0.229,0.126 0.439,0.19c0.22,0.067 0.443,0.119 0.664,0.183c0.273,0.079 0.544,0.168 0.82,0.235c0.128,0.031 0.248,0.035 0.37,0.036c0.002,-0.003 0.003,-0.006 0.004,-0.009Z" style="fill:#ffdcb3;fill-rule:nonzero;"/><path d="M47.944,38.947c-0.298,-0.186 -0.695,-0.432 -1.059,-0.354c-0.33,0.071 -0.613,0.313 -0.768,0.608c-0.175,0.332 -0.279,0.904 -0.104,1.251c0.181,0.36 0.543,0.725 0.89,0.926c0.371,0.213 0.908,0.416 1.304,0.186c0.498,-0.288 0.972,-0.739 0.919,-1.356c-0.035,-0.408 -0.772,-1.006 -1.181,-1.261Z" style="fill:#ffdcb3;fill-rule:nonzero;"/><path d="M44.403,55.444c-0.18,0 -0.356,-0.05 -0.511,-0.148l-12.478,-7.851c-0.218,-0.137 -0.371,-0.352 -0.429,-0.604c-0.057,-0.251 -0.013,-0.509 0.124,-0.726l13.927,-22.13c0.14,-0.221 0.357,-0.373 0.613,-0.429c0.252,-0.054 0.506,-0.008 0.719,0.131l12.475,7.844c0.45,0.285 0.588,0.884 0.306,1.335l-11.714,18.613c-0.053,0.084 -0.166,0.11 -0.251,0.057c-0.084,-0.053 -0.11,-0.166 -0.057,-0.251l11.714,-18.613c0.175,-0.282 0.089,-0.656 -0.192,-0.834l-12.478,-7.845c-0.133,-0.087 -0.29,-0.116 -0.445,-0.082c-0.16,0.035 -0.295,0.13 -0.382,0.268l-13.927,22.128c-0.085,0.135 -0.113,0.295 -0.078,0.452c0.036,0.156 0.131,0.29 0.269,0.376l12.477,7.852c0.135,0.084 0.294,0.113 0.452,0.078c0.157,-0.036 0.29,-0.131 0.376,-0.268l0.328,-0.517c0.054,-0.085 0.168,-0.11 0.251,-0.056c0.085,0.054 0.11,0.166 0.056,0.251l-0.327,0.515c-0.135,0.218 -0.35,0.371 -0.602,0.429c-0.071,0.016 -0.144,0.024 -0.217,0.024Z" style="fill:#ffdcb3;fill-rule:nonzero;"/><path d="M40.496,48.998c-0.033,0 -0.066,-0.009 -0.096,-0.028l-6.293,-3.959c-0.218,-0.138 -0.37,-0.352 -0.427,-0.605c-0.058,-0.252 -0.013,-0.511 0.124,-0.73l11.571,-18.39c0.285,-0.451 0.881,-0.587 1.334,-0.303l4.304,2.708l-0.194,0.309l-4.305,-2.71c-0.282,-0.178 -0.654,-0.091 -0.832,0.19l-11.571,18.39c-0.086,0.136 -0.114,0.297 -0.078,0.454c0.036,0.157 0.131,0.292 0.268,0.377l6.292,3.959c0.085,0.053 0.111,0.166 0.057,0.252c-0.034,0.054 -0.093,0.084 -0.154,0.084Z" style="fill:#ffdcb3;fill-rule:nonzero;"/><path d="M46.438,51.059c-0.033,0 -0.066,-0.009 -0.096,-0.028c-0.085,-0.053 -0.111,-0.165 -0.058,-0.25l11.234,-17.853c0.177,-0.282 0.093,-0.655 -0.189,-0.832l-4.306,-2.709c-0.084,-0.053 -0.11,-0.165 -0.057,-0.251c0.053,-0.084 0.166,-0.111 0.251,-0.057l4.306,2.709c0.451,0.285 0.587,0.882 0.304,1.333l-11.234,17.854c-0.034,0.055 -0.093,0.085 -0.154,0.085Z" style="fill:#ffdcb3;fill-rule:nonzero;"/><path d="M52.878,30.166l0.005,0l-0.005,0Zm-1.347,-2.262c-0.105,0 -0.211,0.013 -0.315,0.036c-0.369,0.084 -0.682,0.305 -0.882,0.626c-0.414,0.659 -0.216,1.532 0.444,1.947c0.658,0.414 1.532,0.216 1.947,-0.444c0.414,-0.659 0.216,-1.532 -0.444,-1.947c-0.228,-0.144 -0.486,-0.218 -0.749,-0.218Zm-0.006,3.188c-0.323,0 -0.65,-0.088 -0.943,-0.272c-0.828,-0.522 -1.078,-1.62 -0.557,-2.449c0.253,-0.401 0.646,-0.68 1.109,-0.786c0.463,-0.105 0.939,-0.024 1.34,0.229c0.829,0.522 1.078,1.621 0.557,2.449c-0.337,0.535 -0.916,0.829 -1.506,0.829Z" style="fill:#ffdcb3;fill-rule:nonzero;"/><path d="M50.993,29.832l-0.004,0c-0.1,-0.003 -0.18,-0.086 -0.177,-0.186l0.033,-1.319c0.003,-0.101 0.068,-0.191 0.186,-0.177c0.1,0.003 0.18,0.086 0.177,0.187l-0.033,1.319c-0.003,0.099 -0.084,0.177 -0.182,0.177Z" style="fill:#ffdcb3;fill-rule:nonzero;"/><path d="M50.421,29.474c-0.065,0 -0.13,-0.036 -0.161,-0.099c-0.046,-0.089 -0.01,-0.2 0.079,-0.245l1.175,-0.601c0.089,-0.043 0.198,-0.01 0.245,0.079c0.046,0.09 0.01,0.2 -0.079,0.245l-1.175,0.601c-0.027,0.013 -0.055,0.019 -0.083,0.019Z" style="fill:#ffdcb3;fill-rule:nonzero;"/><path d="M51.296,30.041c-0.033,0 -0.067,-0.009 -0.097,-0.028c-0.084,-0.053 -0.11,-0.165 -0.057,-0.251l0.62,-0.986c0.053,-0.084 0.166,-0.11 0.25,-0.057c0.085,0.054 0.111,0.166 0.058,0.251l-0.62,0.986c-0.034,0.054 -0.093,0.084 -0.154,0.084Z" style="fill:#ffdcb3;fill-rule:nonzero;"/><path d="M51.659,30.27c-0.033,0 -0.066,-0.009 -0.097,-0.028c-0.084,-0.053 -0.11,-0.166 -0.057,-0.252l0.621,-0.986c0.053,-0.084 0.166,-0.111 0.25,-0.057c0.085,0.053 0.111,0.166 0.057,0.252l-0.62,0.986c-0.034,0.054 -0.093,0.085 -0.154,0.085Z" style="fill:#ffdcb3;fill-rule:nonzero;"/><path d="M52.023,30.499c-0.033,0 -0.066,-0.009 -0.097,-0.028c-0.084,-0.053 -0.11,-0.166 -0.057,-0.252l0.62,-0.986c0.053,-0.084 0.166,-0.11 0.252,-0.057c0.084,0.053 0.11,0.166 0.056,0.252l-0.62,0.986c-0.034,0.054 -0.093,0.085 -0.154,0.085Z" style="fill:#ffdcb3;fill-rule:nonzero;"/><path d="M36.514,48.339c-0.213,0.334 -0.552,0.491 -0.843,0.309l-0.224,-0.146l0.745,-1.188c0,0 0.073,0.036 0.23,0.133c0.291,0.182 0.339,0.497 0.091,0.891Zm0.018,-1.11c-0.272,-0.17 -0.478,-0.279 -0.478,-0.279l-1.007,1.595l0.455,0.285c0.479,0.297 0.951,0.206 1.285,-0.328c0.34,-0.533 0.231,-0.964 -0.255,-1.273Z" style="fill:#ffdcb3;fill-rule:nonzero;"/><path d="M37.526,47.872l-1,1.601l0.909,0.57c0.054,-0.048 0.091,-0.103 0.115,-0.139c0.018,-0.037 0.037,-0.073 0.037,-0.073c0,0 -0.394,-0.218 -0.668,-0.394l0.328,-0.527c0.158,0.103 0.539,0.345 0.539,0.345c0.042,-0.024 0.11,-0.108 0.115,-0.121c0.024,-0.037 0.036,-0.073 0.036,-0.073c0,0 -0.382,-0.225 -0.57,-0.34l0.303,-0.479c0.273,0.17 0.601,0.4 0.601,0.4c0.079,-0.054 0.121,-0.103 0.14,-0.133c0.018,-0.031 0.036,-0.054 0.036,-0.054l-0.922,-0.583Z" style="fill:#ffdcb3;fill-rule:nonzero;"/><path d="M38.836,49.957l-0.412,-0.255l0.685,-0.66l-0.273,0.915Zm0.158,-1.164l-1.468,1.31l0.273,0.17l0.442,-0.4l0.521,0.327l-0.164,0.576l0.267,0.17l0.527,-1.898l-0.4,-0.255Z" style="fill:#ffdcb3;fill-rule:nonzero;"/><path d="M40.053,49.462l-0.146,-0.092c-0.042,0.043 -0.072,0.082 -0.089,0.11c-0.027,0.043 -0.049,0.093 -0.049,0.093c0,0 0.123,0.068 0.315,0.185c-0.016,-0.098 -0.019,-0.197 -0.031,-0.296Z" style="fill:#ffdcb3;fill-rule:nonzero;"/><path d="M40.186,50.09c-0.028,-0.067 -0.054,-0.136 -0.074,-0.207l-0.832,1.323l0.266,0.166l0.712,-1.132c-0.026,-0.049 -0.049,-0.099 -0.071,-0.15Z" style="fill:#ffdcb3;fill-rule:nonzero;"/><path d="M40.631,51.037l-0.459,0.73l0.267,0.168l0.397,-0.631c-0.077,-0.084 -0.149,-0.171 -0.205,-0.267Z" style="fill:#ffdcb3;fill-rule:nonzero;"/><path d="M41.576,52.104l-0.013,0.013l-0.237,0.375l-0.267,-0.163l0.261,-0.419l0.018,-0.03c0.031,0.036 0.061,0.066 0.091,0.097c0.049,0.048 0.091,0.091 0.146,0.127Z" style="fill:#ffdcb3;fill-rule:nonzero;"/><path d="M46.151,32.486c-0.374,0 -0.721,0.043 -1.004,0.124c-1.219,0.354 -2.259,1.26 -2.852,2.488c-0.048,0.1 -0.089,0.217 -0.132,0.337c-0.077,0.216 -0.156,0.439 -0.28,0.608l-0.048,0.06c-0.105,0.091 -0.191,0.154 -0.278,0.215c-0.08,0.046 -0.147,0.078 -0.213,0.11c-0.08,0.039 -0.16,0.077 -0.231,0.123c-0.163,0.105 -0.3,0.254 -0.397,0.432c-0.156,0.217 -0.218,0.436 -0.204,0.713c0.009,0.222 0.079,0.433 0.151,0.657c0.171,0.528 -0.132,1.102 -0.333,1.482l-0.1,0.185c-0.196,0.362 -0.399,0.736 -0.403,1.128c-0.004,0.284 0.103,0.553 0.196,0.757c0.134,0.291 0.189,0.513 0.237,0.797c0.088,0.516 0.188,1.101 0.505,1.538c0.207,0.287 0.394,0.511 0.633,0.673c0.221,0.151 0.426,0.255 0.623,0.314c0.481,0.145 1.016,0.069 1.533,-0.004c0.174,-0.025 0.347,-0.049 0.518,-0.066c0.107,-0.011 0.211,-0.024 0.313,-0.038c0.196,-0.027 0.401,-0.054 0.624,-0.056c0.269,-0.002 0.609,-0.029 0.858,-0.22c0.019,-0.016 0.038,-0.031 0.056,-0.047c0.209,-0.121 0.342,-0.242 0.442,-0.393c0.076,-0.116 0.142,-0.233 0.205,-0.349c0.134,-0.241 0.272,-0.49 0.491,-0.676c0.295,-0.165 0.589,-0.248 0.841,-0.312l0.135,-0.034c0.006,-0.001 0.048,-0.007 0.054,-0.008c0.232,-0.031 0.45,-0.06 0.653,-0.147c0.255,-0.108 0.427,-0.258 0.54,-0.471c0.004,-0.008 0.009,-0.014 0.014,-0.022c0.118,-0.163 0.193,-0.352 0.217,-0.546c0.011,-0.084 0.011,-0.172 0.011,-0.262c0.001,-0.073 0.001,-0.146 0.004,-0.22c0.021,-0.124 0.04,-0.227 0.066,-0.332c0.017,-0.048 0.029,-0.073 0.043,-0.098c0.1,-0.185 0.266,-0.354 0.427,-0.516c0.089,-0.091 0.178,-0.178 0.247,-0.265c0.851,-1.066 1.219,-2.395 1.009,-3.648c-0.155,-0.924 -0.95,-2.278 -1.964,-2.856c-0.138,-0.094 -0.263,-0.166 -0.382,-0.222c-0.144,-0.11 -0.263,-0.19 -0.391,-0.263c-0.668,-0.462 -1.615,-0.668 -2.434,-0.668Zm-3.508,13.187c-0.244,0 -0.487,-0.026 -0.727,-0.099c-0.235,-0.071 -0.471,-0.19 -0.723,-0.362c-0.299,-0.204 -0.524,-0.486 -0.722,-0.76c-0.367,-0.506 -0.474,-1.135 -0.569,-1.69c-0.043,-0.253 -0.091,-0.451 -0.208,-0.705c-0.11,-0.238 -0.234,-0.556 -0.23,-0.912c0.005,-0.482 0.23,-0.897 0.447,-1.299l0.097,-0.181c0.172,-0.325 0.432,-0.817 0.319,-1.171c-0.087,-0.266 -0.167,-0.51 -0.18,-0.782c-0.016,-0.36 0.069,-0.661 0.261,-0.923c0.112,-0.211 0.293,-0.407 0.508,-0.546c0.083,-0.053 0.175,-0.098 0.268,-0.143c0.059,-0.029 0.121,-0.058 0.179,-0.091c0.063,-0.045 0.141,-0.104 0.217,-0.165l0.011,-0.019c0.091,-0.124 0.161,-0.321 0.229,-0.512c0.048,-0.133 0.094,-0.263 0.147,-0.374c0.637,-1.321 1.76,-2.297 3.08,-2.679c0.999,-0.29 2.67,-0.149 3.732,0.585c0.133,0.075 0.268,0.166 0.39,0.266c0.1,0.041 0.242,0.123 0.382,0.22c1.109,0.631 1.958,2.076 2.13,3.103c0.227,1.354 -0.167,2.789 -1.083,3.936c-0.076,0.095 -0.173,0.194 -0.272,0.294c-0.143,0.143 -0.29,0.293 -0.364,0.431c-0.034,0.111 -0.053,0.206 -0.069,0.302c-0.002,0.046 -0.002,0.112 -0.002,0.178c0,0.105 -0.001,0.209 -0.013,0.307c-0.03,0.252 -0.126,0.494 -0.277,0.705c-0.152,0.281 -0.386,0.486 -0.714,0.625c-0.248,0.105 -0.5,0.139 -0.745,0.173l-0.15,0.034c-0.23,0.058 -0.497,0.133 -0.725,0.257c-0.138,0.123 -0.255,0.333 -0.377,0.555c-0.068,0.123 -0.139,0.25 -0.221,0.373c-0.131,0.199 -0.311,0.362 -0.534,0.486l0.001,0c0.007,0 -0.019,0.021 -0.045,0.042c-0.337,0.258 -0.753,0.294 -1.078,0.296c-0.2,0.002 -0.383,0.026 -0.579,0.053c-0.106,0.014 -0.213,0.029 -0.325,0.04c-0.166,0.016 -0.334,0.04 -0.502,0.064c-0.318,0.045 -0.641,0.091 -0.963,0.091Z" style="fill:#ffdcb3;fill-rule:nonzero;"/><path d="M47.13,38.71c-0.24,0 -0.514,0.125 -0.735,0.341c-0.248,0.241 -0.38,0.539 -0.352,0.799c0.022,0.207 0.152,0.394 0.32,0.617l0.332,0.442c0.167,0.222 0.357,0.473 0.61,0.588c0.225,0.103 0.514,0.094 0.771,-0.02c0.235,-0.105 0.453,-0.295 0.633,-0.553c0.127,-0.181 0.266,-0.449 0.202,-0.698c-0.029,-0.118 -0.105,-0.23 -0.182,-0.334c-0.225,-0.305 -0.49,-0.578 -0.787,-0.814c-0.281,-0.222 -0.505,-0.335 -0.729,-0.363c-0.026,-0.004 -0.055,-0.006 -0.083,-0.006Zm0.522,3.222c-0.175,0 -0.345,-0.034 -0.498,-0.104c-0.337,-0.153 -0.567,-0.457 -0.75,-0.702l-0.332,-0.441c-0.159,-0.211 -0.357,-0.474 -0.392,-0.798c-0.038,-0.369 0.133,-0.778 0.461,-1.097c0.33,-0.322 0.748,-0.482 1.12,-0.436c0.378,0.051 0.698,0.275 0.907,0.439c0.322,0.256 0.61,0.553 0.853,0.883c0.099,0.134 0.198,0.282 0.243,0.461c0.076,0.303 -0.013,0.647 -0.257,0.996c-0.218,0.311 -0.489,0.544 -0.783,0.675c-0.183,0.082 -0.38,0.123 -0.572,0.123Z" style="fill:#ffdcb3;fill-rule:nonzero;"/><path d="M42.944,36.387c-0.04,0 -0.08,0.003 -0.118,0.011c-0.251,0.051 -0.433,0.291 -0.541,0.484c-0.155,0.275 -0.232,0.555 -0.224,0.809c0.008,0.283 0.126,0.547 0.315,0.705c0.213,0.178 0.522,0.24 0.795,0.295l0.541,0.108c0.273,0.054 0.498,0.09 0.696,0.022c0.245,-0.088 0.457,-0.336 0.567,-0.664c0.111,-0.327 0.091,-0.665 -0.052,-0.882c-0.16,-0.245 -0.443,-0.402 -0.643,-0.499c-0.34,-0.166 -0.702,-0.286 -1.075,-0.357c-0.086,-0.017 -0.176,-0.031 -0.262,-0.031Zm1.525,2.605l0.005,0l-0.005,0Zm-0.31,0.231c-0.185,0 -0.363,-0.035 -0.519,-0.067l-0.541,-0.108c-0.3,-0.06 -0.673,-0.135 -0.957,-0.372c-0.268,-0.224 -0.434,-0.588 -0.446,-0.974c-0.009,-0.32 0.084,-0.665 0.27,-0.998c0.21,-0.372 0.481,-0.601 0.787,-0.663c0.181,-0.036 0.357,-0.012 0.52,0.018c0.404,0.078 0.795,0.208 1.165,0.389c0.238,0.115 0.579,0.307 0.788,0.627c0.205,0.313 0.239,0.76 0.092,1.198c-0.145,0.432 -0.441,0.765 -0.79,0.889c-0.123,0.045 -0.248,0.06 -0.37,0.06Z" style="fill:#ffdcb3;fill-rule:nonzero;"/><path d="M43.81,40.125l0.005,0l-0.005,0Zm0.513,0.416c0.012,0 0.023,0.001 0.033,0.003c0.111,0.03 0.175,0.138 0.153,0.252c-0.021,0.102 -0.044,0.25 -0.013,0.357c0.022,0.073 0.101,0.143 0.176,0.138c0.05,-0.011 0.11,-0.066 0.165,-0.15c0.199,-0.311 0.228,-0.816 0.141,-1.125c-0.038,-0.136 -0.103,-0.169 -0.149,-0.181c-0.22,-0.061 -0.635,0.171 -0.893,0.421c-0.041,0.041 -0.078,0.079 -0.106,0.116c-0.068,0.089 -0.105,0.161 -0.116,0.226c-0.009,0.053 0.005,0.105 0.024,0.119c0.039,0.03 0.117,0.029 0.214,0c0.078,-0.024 0.134,-0.064 0.227,-0.132c0.035,-0.026 0.094,-0.044 0.144,-0.044Zm0.33,1.116c-0.243,0 -0.446,-0.195 -0.507,-0.402c-0.02,-0.069 -0.028,-0.14 -0.029,-0.21c-0.019,0.008 -0.039,0.015 -0.06,0.021c-0.218,0.064 -0.402,0.044 -0.537,-0.056c-0.134,-0.1 -0.198,-0.286 -0.164,-0.476c0.023,-0.125 0.081,-0.246 0.185,-0.382c0.037,-0.049 0.086,-0.103 0.144,-0.158c0.236,-0.229 0.799,-0.63 1.239,-0.511c0.14,0.038 0.323,0.144 0.406,0.434c0.11,0.391 0.081,1.004 -0.185,1.419c-0.111,0.173 -0.25,0.28 -0.401,0.31c-0.031,0.006 -0.059,0.009 -0.089,0.009Z" style="fill:#ffdcb3;fill-rule:nonzero;"/><path d="M47.721,43.475c-0.019,0 -0.039,-0.003 -0.059,-0.01c-0.076,-0.026 -0.151,-0.055 -0.223,-0.089c-0.126,-0.059 -0.251,-0.13 -0.375,-0.2c-0.296,-0.17 -0.573,-0.329 -0.869,-0.304c-0.061,0.006 -0.121,0.019 -0.181,0.038c-0.097,0.03 -0.192,0.073 -0.287,0.115c-0.119,0.052 -0.237,0.103 -0.358,0.138c-0.118,0.036 -0.229,0.058 -0.339,0.048c-0.216,-0.006 -0.407,-0.091 -0.531,-0.155c-0.068,-0.033 -0.134,-0.072 -0.201,-0.111c-0.148,-0.087 -0.272,-0.16 -0.394,-0.235c-0.193,-0.117 -0.386,-0.235 -0.577,-0.355c-0.191,-0.12 -0.381,-0.242 -0.571,-0.368c-0.119,-0.078 -0.238,-0.157 -0.36,-0.238c-0.081,-0.056 -0.148,-0.101 -0.21,-0.15c-0.174,-0.131 -0.292,-0.263 -0.369,-0.41c-0.05,-0.097 -0.084,-0.203 -0.105,-0.327c-0.021,-0.122 -0.025,-0.25 -0.029,-0.378c-0.006,-0.173 -0.011,-0.337 -0.062,-0.479c-0.106,-0.288 -0.372,-0.472 -0.653,-0.665c-0.118,-0.081 -0.237,-0.164 -0.345,-0.253c-0.062,-0.051 -0.121,-0.105 -0.178,-0.161c-0.069,-0.073 -0.068,-0.187 0.003,-0.258c0.072,-0.069 0.186,-0.068 0.257,0.003c0.047,0.048 0.096,0.093 0.148,0.136c0.1,0.082 0.21,0.158 0.32,0.233c0.315,0.218 0.641,0.442 0.784,0.826c0.074,0.213 0.081,0.413 0.088,0.606c0.004,0.112 0.007,0.224 0.026,0.332c0.014,0.085 0.036,0.156 0.068,0.218c0.051,0.098 0.136,0.19 0.267,0.289c0.059,0.045 0.118,0.086 0.176,0.125c0.134,0.091 0.252,0.17 0.372,0.247c0.188,0.124 0.375,0.244 0.564,0.364c0.189,0.119 0.379,0.236 0.571,0.352c0.122,0.074 0.244,0.146 0.366,0.218c0.083,0.048 0.143,0.083 0.204,0.114c0.153,0.078 0.268,0.113 0.379,0.116c0.079,0 0.144,-0.009 0.226,-0.033c0.107,-0.03 0.21,-0.076 0.314,-0.122c0.107,-0.047 0.215,-0.094 0.325,-0.129c0.086,-0.026 0.169,-0.044 0.255,-0.052c0.402,-0.038 0.751,0.159 1.084,0.35c0.116,0.066 0.231,0.132 0.349,0.186c0.061,0.029 0.123,0.054 0.186,0.075c0.094,0.033 0.145,0.135 0.113,0.231c-0.026,0.076 -0.096,0.123 -0.172,0.123Z" style="fill:#ffdcb3;fill-rule:nonzero;"/><path d="M44.378,43.717c-0.075,0 -0.148,-0.006 -0.22,-0.018c-0.126,-0.019 -0.251,-0.058 -0.369,-0.115c-0.114,-0.053 -0.219,-0.117 -0.324,-0.181l-0.072,-0.046c-0.083,-0.053 -0.166,-0.106 -0.254,-0.154c-0.086,-0.048 -0.17,-0.096 -0.252,-0.146c-0.173,-0.103 -0.344,-0.212 -0.514,-0.322l-0.066,-0.043c-0.134,-0.088 -0.267,-0.185 -0.395,-0.288c-0.063,-0.05 -0.12,-0.105 -0.17,-0.163c-0.198,-0.227 -0.318,-0.519 -0.357,-0.866c-0.009,-0.07 -0.014,-0.141 -0.014,-0.213c-0.011,-0.444 0.079,-0.891 0.258,-1.292c0.041,-0.092 0.15,-0.134 0.24,-0.091c0.091,0.04 0.133,0.148 0.091,0.24c-0.156,0.351 -0.235,0.744 -0.227,1.135c0.001,0.06 0.005,0.12 0.013,0.179c0.031,0.275 0.122,0.499 0.27,0.67c0.036,0.042 0.078,0.081 0.125,0.119c0.119,0.096 0.242,0.186 0.37,0.27l0.056,0.038c0.169,0.108 0.337,0.215 0.508,0.317c0.08,0.049 0.16,0.094 0.24,0.14c0.093,0.051 0.183,0.108 0.273,0.164l0.069,0.045c0.092,0.057 0.186,0.113 0.287,0.161c0.088,0.042 0.178,0.07 0.27,0.084c0.237,0.039 0.498,-0.008 0.778,-0.136c0.326,-0.15 0.603,-0.348 0.835,-0.595c0.068,-0.073 0.183,-0.077 0.257,-0.007c0.073,0.069 0.076,0.184 0.008,0.257c-0.263,0.28 -0.579,0.505 -0.936,0.67c-0.275,0.125 -0.534,0.188 -0.779,0.188Z" style="fill:#ffdcb3;fill-rule:nonzero;"/><path d="M43.972,44.123c-0.068,0 -0.134,-0.005 -0.198,-0.014c-0.127,-0.019 -0.249,-0.056 -0.364,-0.111c-0.11,-0.051 -0.213,-0.113 -0.316,-0.176l-0.066,-0.042c-0.082,-0.053 -0.165,-0.105 -0.251,-0.153c-0.081,-0.045 -0.163,-0.091 -0.243,-0.14c-0.169,-0.101 -0.335,-0.207 -0.501,-0.312l-0.066,-0.046c-0.128,-0.083 -0.258,-0.179 -0.383,-0.28c-0.061,-0.049 -0.117,-0.105 -0.165,-0.161c-0.671,-0.78 -0.218,-1.85 0.112,-2.631l0.1,-0.237c0.037,-0.093 0.143,-0.138 0.237,-0.099c0.093,0.038 0.138,0.144 0.1,0.237l-0.1,0.24c-0.31,0.733 -0.696,1.644 -0.171,2.254c0.036,0.041 0.074,0.079 0.119,0.115c0.115,0.093 0.235,0.181 0.359,0.263l0.056,0.038c0.163,0.103 0.326,0.208 0.493,0.308c0.078,0.046 0.155,0.091 0.233,0.133c0.093,0.053 0.181,0.108 0.27,0.164l0.064,0.041c0.09,0.055 0.181,0.11 0.278,0.156c0.083,0.039 0.171,0.066 0.262,0.079c0.23,0.034 0.486,-0.014 0.762,-0.144c0.444,-0.211 0.795,-0.544 1.177,-0.928c0.07,-0.072 0.186,-0.071 0.257,-0.001c0.071,0.071 0.071,0.186 0.001,0.257c-0.406,0.408 -0.782,0.764 -1.265,0.994c-0.28,0.131 -0.541,0.195 -0.786,0.195Z" style="fill:#ffdcb3;fill-rule:nonzero;"/><path d="M42.982,43.083c-0.034,0 -0.068,-0.009 -0.097,-0.028c-0.085,-0.053 -0.11,-0.165 -0.057,-0.251l0.442,-0.702c0.054,-0.084 0.166,-0.11 0.251,-0.057c0.085,0.053 0.11,0.166 0.057,0.251l-0.442,0.702c-0.034,0.054 -0.094,0.084 -0.153,0.084Z" style="fill:#ffdcb3;fill-rule:nonzero;"/><path d="M42.411,42.724c-0.034,0 -0.068,-0.009 -0.098,-0.028c-0.084,-0.053 -0.11,-0.166 -0.056,-0.251l0.446,-0.708c0.053,-0.084 0.166,-0.11 0.251,-0.057c0.085,0.053 0.11,0.166 0.057,0.251l-0.446,0.708c-0.035,0.054 -0.094,0.084 -0.154,0.084Z" style="fill:#ffdcb3;fill-rule:nonzero;"/><path d="M41.879,42.303c-0.034,0 -0.067,-0.009 -0.097,-0.028c-0.085,-0.053 -0.11,-0.166 -0.057,-0.251l0.419,-0.667c0.053,-0.084 0.166,-0.11 0.25,-0.057c0.085,0.054 0.111,0.166 0.058,0.252l-0.419,0.666c-0.034,0.054 -0.094,0.084 -0.154,0.084Z" style="fill:#ffdcb3;fill-rule:nonzero;"/><path d="M41.564,41.536c-0.033,0 -0.066,-0.009 -0.097,-0.028c-0.084,-0.053 -0.11,-0.166 -0.057,-0.251l0.329,-0.523c0.053,-0.084 0.166,-0.11 0.252,-0.057c0.084,0.053 0.11,0.166 0.057,0.252l-0.33,0.523c-0.034,0.054 -0.093,0.084 -0.154,0.084Z" style="fill:#ffdcb3;fill-rule:nonzero;"/><path d="M43.56,43.43c-0.033,0 -0.067,-0.009 -0.098,-0.028c-0.084,-0.054 -0.11,-0.166 -0.056,-0.251l0.437,-0.697c0.053,-0.084 0.165,-0.111 0.251,-0.057c0.084,0.054 0.11,0.166 0.057,0.252l-0.437,0.695c-0.034,0.055 -0.094,0.085 -0.154,0.085Z" style="fill:#ffdcb3;fill-rule:nonzero;"/><path d="M44.187,43.701c-0.033,0 -0.067,-0.009 -0.098,-0.028c-0.084,-0.053 -0.11,-0.165 -0.056,-0.251l0.394,-0.627c0.054,-0.085 0.166,-0.111 0.252,-0.057c0.084,0.053 0.11,0.166 0.057,0.251l-0.395,0.628c-0.034,0.054 -0.094,0.084 -0.154,0.084Z" style="fill:#ffdcb3;fill-rule:nonzero;"/><path d="M45.081,43.545c-0.033,0 -0.067,-0.009 -0.096,-0.028c-0.085,-0.053 -0.111,-0.165 -0.058,-0.25l0.237,-0.377c0.053,-0.085 0.166,-0.111 0.25,-0.057c0.085,0.053 0.111,0.165 0.057,0.25l-0.237,0.377c-0.034,0.056 -0.093,0.085 -0.154,0.085Z" style="fill:#ffdcb3;fill-rule:nonzero;"/><path d="M42.267,43.289c-0.033,0 -0.066,-0.008 -0.096,-0.028c-0.085,-0.053 -0.111,-0.165 -0.058,-0.25l0.294,-0.467c0.053,-0.086 0.166,-0.111 0.25,-0.058c0.085,0.053 0.111,0.166 0.058,0.25l-0.294,0.467c-0.034,0.055 -0.093,0.085 -0.154,0.085Z" style="fill:#ffdcb3;fill-rule:nonzero;"/><path d="M41.762,42.94c-0.033,0 -0.068,-0.009 -0.098,-0.028c-0.084,-0.054 -0.11,-0.166 -0.057,-0.251l0.297,-0.471c0.055,-0.083 0.166,-0.11 0.251,-0.056c0.085,0.054 0.11,0.166 0.057,0.251l-0.296,0.471c-0.035,0.055 -0.094,0.085 -0.154,0.085Z" style="fill:#ffdcb3;fill-rule:nonzero;"/><path d="M41.357,42.433c-0.033,0 -0.066,-0.009 -0.097,-0.028c-0.084,-0.053 -0.11,-0.166 -0.057,-0.251l0.307,-0.487c0.053,-0.084 0.166,-0.11 0.252,-0.056c0.084,0.053 0.11,0.165 0.056,0.251l-0.307,0.487c-0.034,0.054 -0.093,0.085 -0.154,0.085Z" style="fill:#ffdcb3;fill-rule:nonzero;"/><path d="M43.107,43.796c-0.033,0 -0.066,-0.009 -0.097,-0.028c-0.084,-0.053 -0.11,-0.166 -0.057,-0.252l0.294,-0.466c0.053,-0.084 0.165,-0.11 0.25,-0.056c0.085,0.053 0.111,0.165 0.057,0.251l-0.294,0.466c-0.034,0.054 -0.093,0.085 -0.154,0.085Z" style="fill:#ffdcb3;fill-rule:nonzero;"/><path d="M43.653,44.079c-0.033,0 -0.066,-0.009 -0.097,-0.028c-0.084,-0.053 -0.11,-0.166 -0.057,-0.25l0.281,-0.447c0.054,-0.084 0.166,-0.11 0.252,-0.057c0.084,0.053 0.11,0.166 0.056,0.251l-0.281,0.447c-0.034,0.054 -0.093,0.085 -0.154,0.085Z" style="fill:#ffdcb3;fill-rule:nonzero;"/><path d="M44.303,44.082c-0.033,0 -0.067,-0.009 -0.097,-0.028c-0.084,-0.054 -0.11,-0.166 -0.057,-0.251l0.215,-0.341c0.054,-0.084 0.165,-0.111 0.25,-0.057c0.085,0.054 0.111,0.166 0.058,0.251l-0.215,0.341c-0.034,0.054 -0.093,0.085 -0.154,0.085Z" style="fill:#ffdcb3;fill-rule:nonzero;"/><path d="M42.684,43.546c-0.033,0 -0.066,-0.009 -0.097,-0.028c-0.084,-0.053 -0.11,-0.165 -0.057,-0.25l0.294,-0.466c0.053,-0.084 0.166,-0.11 0.251,-0.057c0.084,0.053 0.11,0.166 0.057,0.251l-0.293,0.466c-0.034,0.054 -0.093,0.084 -0.154,0.084Z" style="fill:#ffdcb3;fill-rule:nonzero;"/><path d="M42.351,36.653c-0.049,0 -0.097,-0.019 -0.133,-0.058c-0.069,-0.073 -0.065,-0.188 0.008,-0.257c0.237,-0.222 0.412,-0.485 0.599,-0.763l0.07,-0.105c0.111,-0.165 0.195,-0.334 0.25,-0.506c0.024,-0.075 0.033,-0.161 0.044,-0.253c0.011,-0.108 0.023,-0.218 0.06,-0.328c0.032,-0.096 0.136,-0.147 0.23,-0.115c0.095,0.032 0.146,0.136 0.114,0.23c-0.024,0.073 -0.033,0.159 -0.043,0.251c-0.013,0.106 -0.023,0.215 -0.059,0.326c-0.066,0.204 -0.165,0.405 -0.295,0.597l-0.07,0.104c-0.19,0.283 -0.385,0.576 -0.653,0.826c-0.034,0.033 -0.08,0.049 -0.124,0.049Z" style="fill:#ffdcb3;fill-rule:nonzero;"/><path d="M49.047,40.855c-0.012,0 -0.024,-0.001 -0.036,-0.004c-0.099,-0.021 -0.162,-0.117 -0.142,-0.215c0.018,-0.089 0.04,-0.178 0.067,-0.265c0.26,-0.812 0.662,-1.345 1.232,-1.633c0.088,-0.046 0.198,-0.01 0.244,0.081c0.046,0.089 0.009,0.199 -0.081,0.243c-0.478,0.242 -0.821,0.706 -1.048,1.419c-0.024,0.074 -0.041,0.151 -0.058,0.228c-0.018,0.086 -0.093,0.146 -0.178,0.146Z" style="fill:#ffdcb3;fill-rule:nonzero;"/><path d="M45.799,38.092c-0.039,0 -0.078,-0.013 -0.111,-0.038c-0.079,-0.061 -0.094,-0.175 -0.033,-0.255c0.229,-0.298 0.374,-0.668 0.407,-1.042c0.009,-0.1 0.099,-0.178 0.197,-0.165c0.1,0.009 0.174,0.096 0.165,0.197c-0.039,0.444 -0.21,0.882 -0.481,1.233c-0.036,0.046 -0.089,0.071 -0.144,0.071Z" style="fill:#ffdcb3;fill-rule:nonzero;"/><path d="M46.346,38.103c-0.036,0 -0.071,-0.011 -0.102,-0.032c-0.083,-0.056 -0.105,-0.17 -0.048,-0.252c0.163,-0.24 0.418,-0.414 0.7,-0.479c0.097,-0.026 0.195,0.038 0.218,0.136c0.023,0.098 -0.038,0.196 -0.136,0.218c-0.194,0.045 -0.369,0.165 -0.481,0.33c-0.035,0.051 -0.092,0.079 -0.15,0.079Z" style="fill:#ffdcb3;fill-rule:nonzero;"/><path d="M41.643,61.892c-0.046,0 -0.091,-0.017 -0.126,-0.051c-0.263,-0.253 -0.519,-0.513 -0.768,-0.778l-0.086,-0.093c-0.33,-0.352 -0.569,-0.641 -0.637,-1.146l-0.034,-0.239c-0.071,-0.48 -0.152,-1.025 -0.056,-1.481c0.069,-0.326 0.334,-0.664 0.809,-1.034c1.34,-1.044 3.021,-1.418 4.336,-1.626c0.947,-0.15 2.031,-0.248 2.931,0.504c1.027,0.855 1.879,1.588 2.7,2.379l0.295,0.285c0.795,0.773 1.615,1.573 2.641,1.936c0.094,0.034 0.145,0.138 0.111,0.232c-0.033,0.095 -0.139,0.146 -0.232,0.111c-1.101,-0.389 -1.951,-1.218 -2.774,-2.019l-0.293,-0.285c-0.814,-0.782 -1.66,-1.509 -2.68,-2.36c-0.705,-0.589 -1.567,-0.595 -2.641,-0.426c-1.271,0.202 -2.894,0.561 -4.168,1.554c-0.399,0.311 -0.626,0.587 -0.677,0.822c-0.082,0.391 -0.006,0.903 0.06,1.353l0.034,0.243c0.054,0.399 0.242,0.625 0.543,0.947l0.084,0.09c0.246,0.262 0.497,0.517 0.755,0.766c0.073,0.07 0.075,0.185 0.005,0.257c-0.036,0.037 -0.083,0.056 -0.131,0.056Z" style="fill:#ffdcb3;fill-rule:nonzero;"/><path d="M41.505,65.09c-0.052,0 -0.104,-0.022 -0.14,-0.066c-0.072,-0.088 -0.141,-0.178 -0.205,-0.27c-0.188,-0.265 -0.439,-0.672 -0.469,-1.145c-0.037,-0.583 0.205,-1.292 0.617,-1.804c0.063,-0.079 0.134,-0.154 0.209,-0.227c0.185,-0.178 0.393,-0.334 0.594,-0.484l0.198,-0.148c0.406,-0.314 0.826,-0.638 1.329,-0.832c0.44,-0.171 0.879,-0.192 1.384,-0.066c0.221,0.056 0.457,0.14 0.763,0.272c0.488,0.21 1.053,0.479 1.549,0.879c0.275,0.225 0.52,0.483 0.755,0.732c0.141,0.148 0.281,0.296 0.428,0.437c0.327,0.313 0.615,0.519 0.91,0.648c0.185,0.081 0.359,0.176 0.532,0.272c0.15,0.083 0.301,0.166 0.462,0.24c0.091,0.041 0.131,0.149 0.089,0.241c-0.041,0.091 -0.15,0.13 -0.242,0.089c-0.168,-0.077 -0.327,-0.163 -0.485,-0.25c-0.164,-0.091 -0.328,-0.181 -0.503,-0.258c-0.335,-0.146 -0.658,-0.374 -1.017,-0.718c-0.151,-0.145 -0.295,-0.297 -0.439,-0.449c-0.238,-0.253 -0.463,-0.491 -0.721,-0.7c-0.46,-0.373 -0.998,-0.628 -1.463,-0.829c-0.288,-0.123 -0.507,-0.201 -0.708,-0.252c-0.426,-0.108 -0.797,-0.091 -1.164,0.051c-0.454,0.176 -0.853,0.483 -1.24,0.781l-0.2,0.152c-0.193,0.143 -0.391,0.291 -0.561,0.454c-0.063,0.061 -0.123,0.125 -0.176,0.191c-0.353,0.44 -0.569,1.064 -0.538,1.555c0.018,0.289 0.145,0.593 0.401,0.956c0.06,0.084 0.123,0.168 0.19,0.249c0.064,0.078 0.053,0.192 -0.025,0.256c-0.034,0.028 -0.074,0.041 -0.116,0.041Z" style="fill:#ffdcb3;fill-rule:nonzero;"/><path d="M45.745,57.367c-0.094,0 -0.174,-0.071 -0.181,-0.166c-0.045,-0.556 0.121,-1.128 0.459,-1.571c0.061,-0.08 0.175,-0.096 0.255,-0.034c0.08,0.061 0.096,0.175 0.034,0.254c-0.283,0.373 -0.424,0.854 -0.385,1.322c0.009,0.1 -0.066,0.188 -0.166,0.195c-0.005,0.001 -0.009,0.001 -0.014,0.001Z" style="fill:#ffdcb3;fill-rule:nonzero;"/><path d="M44.953,60.399c-0.039,0 -0.078,-0.016 -0.11,-0.05l-0.043,-0.051c-0.239,-0.292 -0.388,-0.597 -0.446,-0.909c-0.018,-0.099 0.047,-0.194 0.146,-0.212c0.103,-0.02 0.194,0.048 0.212,0.145c0.047,0.252 0.17,0.501 0.368,0.743c0.068,0.073 0.079,0.207 0.005,0.275c-0.039,0.037 -0.088,0.058 -0.133,0.058Z" style="fill:#ffdcb3;fill-rule:nonzero;"/><path d="M43.583,62.942c-0.094,0 -0.173,-0.072 -0.181,-0.166c-0.043,-0.483 -0.004,-0.967 0.114,-1.438c0.024,-0.098 0.125,-0.156 0.222,-0.132c0.098,0.025 0.156,0.124 0.132,0.222c-0.11,0.431 -0.145,0.874 -0.105,1.317c0.009,0.1 -0.065,0.188 -0.165,0.198c-0.006,0.001 -0.01,0.001 -0.016,0.001Z" style="fill:#ffdcb3;fill-rule:nonzero;"/><path d="M45.78,72.2c-0.004,0 -0.009,0 -0.013,-0.001c-0.498,-0.038 -0.98,-0.236 -1.359,-0.559c-0.299,-0.255 -0.523,-0.574 -0.74,-0.882c-0.154,-0.221 -0.299,-0.429 -0.471,-0.616c-0.362,-0.394 -0.815,-0.677 -1.297,-0.975c-0.248,-0.155 -0.506,-0.315 -0.749,-0.492c-0.168,-0.123 -0.382,-0.292 -0.55,-0.509c-0.31,-0.397 -0.452,-0.949 -0.391,-1.516c0.074,-0.698 0.347,-1.277 0.768,-1.631c0.713,-0.6 1.829,-0.495 2.154,-0.447c1.09,0.158 1.995,0.79 2.979,1.539c0.32,0.243 0.683,0.519 0.997,0.835c0.07,0.071 0.07,0.186 -0.001,0.257c-0.073,0.07 -0.188,0.069 -0.258,-0.001c-0.297,-0.297 -0.633,-0.554 -0.959,-0.802c-0.944,-0.718 -1.806,-1.323 -2.811,-1.469c-0.287,-0.041 -1.27,-0.138 -1.867,0.365c-0.47,0.396 -0.603,1.042 -0.641,1.392c-0.051,0.472 0.065,0.929 0.317,1.253c0.141,0.181 0.329,0.329 0.477,0.437c0.232,0.168 0.483,0.325 0.727,0.477c0.481,0.298 0.978,0.607 1.373,1.039c0.187,0.205 0.347,0.432 0.501,0.652c0.212,0.303 0.412,0.59 0.676,0.815c0.321,0.273 0.73,0.442 1.15,0.474c0.1,0.008 0.175,0.095 0.168,0.195c-0.007,0.096 -0.087,0.168 -0.181,0.168Z" style="fill:#ffdcb3;fill-rule:nonzero;"/><path d="M43.765,73.181c-0.054,0 -0.108,-0.024 -0.144,-0.07c-0.671,-0.87 -0.84,-2.096 -0.428,-3.127c0.037,-0.093 0.144,-0.137 0.237,-0.101c0.093,0.038 0.138,0.143 0.101,0.236c-0.364,0.912 -0.216,1.999 0.378,2.768c0.061,0.08 0.046,0.194 -0.033,0.255c-0.033,0.026 -0.072,0.038 -0.111,0.038Z" style="fill:#ffdcb3;fill-rule:nonzero;"/><path d="M46.899,55.777c-0.046,0 -0.091,-0.016 -0.126,-0.05c-0.282,-0.269 -0.566,-0.516 -0.847,-0.733c-0.21,-0.162 -0.42,-0.318 -0.635,-0.468c-0.75,-0.509 -1.557,-0.947 -2.248,-1.31l-0.053,-0.027c-0.522,-0.277 -1.062,-0.563 -1.538,-0.93c-0.089,-0.07 -0.171,-0.14 -0.254,-0.217c-0.054,-0.048 -0.123,-0.111 -0.193,-0.181c-0.127,-0.132 -0.241,-0.272 -0.342,-0.418c-0.046,-0.071 -0.083,-0.133 -0.122,-0.2l-0.043,-0.071c-0.098,-0.191 -0.165,-0.35 -0.212,-0.509c-0.103,-0.347 -0.089,-0.633 0.042,-0.901c0.045,-0.091 0.155,-0.126 0.243,-0.083c0.091,0.044 0.128,0.153 0.083,0.243c-0.09,0.183 -0.096,0.38 -0.02,0.637c0.04,0.136 0.098,0.275 0.181,0.434l0.038,0.064c0.038,0.063 0.073,0.123 0.111,0.183c0.088,0.125 0.19,0.251 0.3,0.366c0.06,0.061 0.123,0.119 0.176,0.165c0.078,0.072 0.153,0.136 0.233,0.199c0.451,0.348 0.976,0.626 1.485,0.896l0.053,0.027c0.699,0.367 1.519,0.811 2.285,1.332c0.222,0.155 0.437,0.314 0.651,0.479c0.29,0.225 0.584,0.479 0.875,0.758c0.073,0.069 0.075,0.185 0.006,0.257c-0.036,0.038 -0.083,0.056 -0.131,0.056Z" style="fill:#ffdcb3;fill-rule:nonzero;"/><path d="M46.433,76.142c-0.054,0 -0.108,-0.024 -0.145,-0.071c-0.061,-0.08 -0.045,-0.195 0.034,-0.255c0.635,-0.486 1.28,-0.996 1.917,-1.518c0.442,-0.361 0.906,-0.75 1.288,-1.19c0.137,-0.161 0.267,-0.337 0.383,-0.523c0.196,-0.319 0.33,-0.645 0.401,-0.967c0.05,-0.242 0.096,-0.339 0.19,-0.531c0.165,-0.344 0.432,-0.533 0.692,-0.715c0.093,-0.066 0.186,-0.131 0.272,-0.202c0.262,-0.222 0.473,-0.517 0.678,-0.802l0.043,-0.061c0.155,-0.218 0.317,-0.446 0.432,-0.683c0.062,-0.118 0.113,-0.235 0.164,-0.353c0.095,-0.218 0.194,-0.444 0.345,-0.646c0.243,-0.324 0.554,-0.548 0.855,-0.767c0.487,-0.352 0.907,-0.657 0.989,-1.311c0.034,-0.264 0.006,-0.531 -0.023,-0.814c-0.01,-0.094 -0.019,-0.188 -0.027,-0.283c-0.034,-0.354 -0.044,-0.815 0.181,-1.208c0.058,-0.105 0.134,-0.204 0.21,-0.303c0.065,-0.086 0.132,-0.171 0.182,-0.263c0.298,-0.566 0.09,-1.416 -0.203,-2.023c-0.153,-0.305 -0.294,-0.586 -0.44,-0.86c-0.484,-0.921 -0.962,-1.743 -1.465,-2.514c-0.356,-0.543 -0.734,-1.073 -1.125,-1.577c-0.163,-0.211 -0.352,-0.383 -0.585,-0.578l-0.158,-0.13c-0.14,-0.115 -0.282,-0.232 -0.42,-0.361c-0.747,-0.681 -1.523,-1.332 -2.303,-1.936c-0.479,-0.364 -0.97,-0.721 -1.459,-1.061l-0.057,-0.036c-0.038,-0.023 -0.073,-0.046 -0.107,-0.072c-0.215,-0.135 -0.446,-0.269 -0.675,-0.402l-0.15,-0.088c-0.161,-0.099 -0.298,-0.182 -0.427,-0.277c-1.05,-0.722 -2.34,-1.141 -3.571,-1.507c-0.001,0 -0.063,-0.018 -0.063,-0.019c-0.193,-0.06 -0.411,-0.104 -0.631,-0.126c-0.28,-0.029 -0.523,0.12 -0.678,0.25c-0.063,0.054 -0.113,0.108 -0.145,0.163c-0.056,0.094 -0.082,0.215 -0.101,0.321c-0.036,0.213 -0.058,0.429 -0.062,0.643c-0.001,0.101 -0.077,0.183 -0.185,0.178c-0.101,-0.002 -0.18,-0.085 -0.178,-0.185c0.004,-0.233 0.028,-0.468 0.068,-0.699c0.027,-0.149 0.063,-0.306 0.147,-0.446c0.054,-0.089 0.128,-0.173 0.223,-0.253c0.299,-0.25 0.628,-0.368 0.948,-0.334c0.244,0.024 0.487,0.073 0.703,0.141l0.006,0.191l0.052,-0.173c1.203,0.358 2.579,0.803 3.677,1.558c0.126,0.092 0.253,0.17 0.381,0.248l0.17,0.1c0.232,0.136 0.467,0.272 0.698,0.418c0.038,0.028 0.065,0.044 0.093,0.062l0.069,0.044c0.496,0.344 0.992,0.705 1.476,1.073c0.789,0.61 1.572,1.268 2.328,1.956c0.135,0.126 0.271,0.237 0.405,0.347l0.159,0.133c0.253,0.209 0.458,0.398 0.64,0.635c0.397,0.51 0.781,1.048 1.142,1.6c0.509,0.78 0.994,1.613 1.482,2.543c0.147,0.276 0.289,0.559 0.431,0.842c0.176,0.363 0.668,1.518 0.212,2.382c-0.061,0.111 -0.138,0.212 -0.215,0.313c-0.066,0.084 -0.131,0.168 -0.181,0.259c-0.176,0.307 -0.165,0.696 -0.136,0.999c0.008,0.094 0.016,0.186 0.026,0.277c0.03,0.291 0.061,0.592 0.022,0.897c-0.101,0.81 -0.628,1.191 -1.136,1.561c-0.28,0.202 -0.568,0.411 -0.778,0.69c-0.127,0.167 -0.212,0.364 -0.303,0.573c-0.055,0.126 -0.11,0.252 -0.173,0.372c-0.126,0.258 -0.297,0.498 -0.461,0.729l-0.043,0.061c-0.218,0.304 -0.442,0.617 -0.74,0.87c-0.096,0.079 -0.197,0.15 -0.297,0.22c-0.231,0.163 -0.449,0.316 -0.555,0.538c-0.106,0.218 -0.139,0.287 -0.18,0.486c-0.079,0.364 -0.229,0.728 -0.447,1.083c-0.127,0.203 -0.267,0.394 -0.417,0.569c-0.401,0.463 -0.878,0.864 -1.333,1.235c-0.64,0.524 -1.289,1.038 -1.926,1.526c-0.033,0.026 -0.072,0.037 -0.111,0.037Z" style="fill:#ffdcb3;fill-rule:nonzero;"/><path d="M41.704,77.325c-0.049,0 -0.099,-0.02 -0.135,-0.06c-0.516,-0.568 -1.014,-1.203 -1.483,-1.886c-0.233,-0.347 -0.453,-0.697 -0.655,-1.042c-0.325,-0.562 -0.721,-1.312 -0.911,-2.142c-0.12,-0.538 -0.267,-1.539 0.101,-2.225c0.096,-0.178 0.196,-0.353 0.298,-0.528c0.195,-0.34 0.38,-0.661 0.533,-1.016c0.116,-0.269 0.197,-0.566 0.248,-0.907c0.077,-0.578 0.038,-1.175 -0.003,-1.808c-0.046,-0.713 -0.093,-1.451 0.04,-2.163l0.012,-0.056c0.015,-0.073 0.032,-0.149 0.053,-0.222c0.102,-0.419 0.261,-0.835 0.414,-1.237c0.161,-0.421 0.312,-0.818 0.408,-1.228c0.023,-0.098 0.118,-0.16 0.218,-0.135c0.098,0.023 0.159,0.121 0.136,0.218c-0.101,0.434 -0.265,0.862 -0.422,1.275c-0.15,0.392 -0.304,0.797 -0.403,1.2c-0.02,0.071 -0.034,0.139 -0.048,0.205l-0.011,0.052c-0.125,0.663 -0.078,1.377 -0.034,2.068c0.04,0.622 0.081,1.266 0,1.882c-0.056,0.375 -0.146,0.702 -0.275,1.001c-0.16,0.373 -0.359,0.719 -0.551,1.053c-0.1,0.172 -0.197,0.343 -0.292,0.519c-0.324,0.604 -0.155,1.581 -0.068,1.973c0.179,0.782 0.56,1.501 0.871,2.04c0.198,0.338 0.414,0.681 0.642,1.019c0.458,0.669 0.946,1.291 1.452,1.848c0.067,0.074 0.061,0.189 -0.014,0.257c-0.034,0.031 -0.078,0.047 -0.121,0.047Z" style="fill:#ffdcb3;fill-rule:nonzero;"/><path d="M44.449,92.379c-0.076,0 -0.147,-0.049 -0.173,-0.125c-0.942,-2.859 -1.799,-5.847 -2.543,-8.884c-0.447,-1.842 -0.857,-3.724 -1.221,-5.592c-0.158,-0.82 -0.31,-1.646 -0.455,-2.472c-0.017,-0.099 0.049,-0.193 0.148,-0.211c0.104,-0.016 0.193,0.049 0.211,0.148c0.145,0.824 0.296,1.647 0.454,2.464c0.361,1.863 0.77,3.739 1.217,5.575c0.743,3.026 1.596,6.006 2.536,8.857c0.031,0.094 -0.021,0.197 -0.116,0.23c-0.019,0.005 -0.038,0.008 -0.057,0.008Z" style="fill:#ffdcb3;fill-rule:nonzero;"/><path d="M61.511,90.432c-0.068,0 -0.133,-0.038 -0.164,-0.104c-1.167,-2.444 -2.951,-4.571 -4.677,-6.63c-0.691,-0.824 -1.406,-1.675 -2.075,-2.54c-0.536,-0.694 -0.986,-1.319 -1.372,-1.909c-0.49,-0.747 -0.951,-1.533 -1.41,-2.404c-0.766,-1.459 -1.426,-2.953 -1.915,-4.093c-0.04,-0.093 0.003,-0.199 0.095,-0.239c0.09,-0.039 0.199,0.003 0.238,0.096c0.488,1.133 1.144,2.62 1.904,4.067c0.452,0.86 0.907,1.636 1.392,2.374c0.382,0.583 0.825,1.2 1.355,1.886c0.665,0.859 1.377,1.708 2.065,2.529c1.742,2.076 3.541,4.222 4.727,6.707c0.043,0.091 0.005,0.2 -0.086,0.243c-0.025,0.012 -0.051,0.018 -0.078,0.018Z" style="fill:#ffdcb3;fill-rule:nonzero;"/><path d="M42.94,50.218c0.006,0.109 -0.018,0.218 -0.048,0.327c-0.133,0.406 -0.436,0.794 -0.861,0.867c-0.2,0.036 -0.406,0 -0.6,-0.079c-0.018,-0.006 -0.042,-0.019 -0.06,-0.024c-0.304,-0.133 -0.643,-0.388 -0.91,-0.698c-0.084,-0.103 -0.163,-0.212 -0.23,-0.32c-0.066,-0.116 -0.121,-0.237 -0.158,-0.352c-0.018,-0.073 -0.036,-0.139 -0.036,-0.212c-0.018,-0.091 -0.012,-0.182 0.006,-0.272c0.03,-0.176 0.115,-0.346 0.273,-0.504c0.054,-0.054 0.115,-0.103 0.181,-0.133c0.273,-0.158 0.595,-0.133 0.909,-0.012c0.091,0.036 0.176,0.073 0.267,0.121c0.218,0.115 0.424,0.267 0.6,0.418c0.11,0.085 0.206,0.176 0.285,0.255c0.176,0.175 0.358,0.376 0.382,0.618Z" style="fill:#ffdcb3;fill-rule:nonzero;"/><path d="M31.786,68.393c-0.356,0 -0.66,-0.117 -0.864,-0.345c-0.115,-0.128 -0.2,-0.295 -0.247,-0.484c-0.051,-0.186 -0.078,-0.377 -0.078,-0.564c-0.025,-1.478 1.412,-2.884 2.77,-3.268c0.907,-0.253 1.852,-0.169 2.764,-0.088c0.629,0.056 1.279,0.116 1.906,0.058c0.656,-0.065 1.281,-0.248 1.855,-0.544c0.089,-0.045 0.2,-0.01 0.246,0.078c0.046,0.089 0.01,0.2 -0.078,0.245c-0.616,0.317 -1.285,0.513 -1.988,0.583c-0.658,0.059 -1.327,0 -1.973,-0.058c-0.921,-0.081 -1.789,-0.16 -2.633,0.076c-1.228,0.346 -2.528,1.6 -2.505,2.914c0,0.158 0.023,0.316 0.066,0.476c0.034,0.136 0.091,0.249 0.166,0.333c0.267,0.299 0.779,0.253 1.167,0.115c0.264,-0.098 0.515,-0.229 0.746,-0.39c0.194,-0.14 0.398,-0.37 0.328,-0.558c-0.106,-0.29 -0.692,-0.174 -0.808,-0.146c-0.102,0.021 -0.195,-0.04 -0.218,-0.138c-0.022,-0.098 0.04,-0.196 0.138,-0.218c0.64,-0.146 1.088,-0.008 1.229,0.375c0.121,0.321 -0.051,0.688 -0.459,0.981c-0.258,0.18 -0.538,0.327 -0.832,0.434c-0.245,0.089 -0.482,0.132 -0.698,0.132Z" style="fill:#ffdcb3;fill-rule:nonzero;"/><path d="M37.754,83.995c-0.822,0 -1.698,-0.039 -2.496,-0.295c-0.429,-0.137 -0.847,-0.328 -1.25,-0.512c-0.766,-0.35 -1.489,-0.68 -2.277,-0.68c-0.378,0 -0.745,0.078 -1.133,0.16c-0.281,0.059 -0.573,0.121 -0.868,0.15c-1.314,0.139 -2.687,-0.384 -3.584,-1.362c-0.897,-0.979 -1.297,-2.397 -1.044,-3.698c0.057,-0.283 0.142,-0.559 0.223,-0.826c0.117,-0.383 0.228,-0.744 0.265,-1.122c0.047,-0.508 -0.043,-1.008 -0.138,-1.538c-0.068,-0.38 -0.138,-0.773 -0.154,-1.172c-0.07,-1.797 0.894,-3.294 2.947,-4.576l0.393,-0.24c0.701,-0.429 1.426,-0.872 2.018,-1.418c0.073,-0.068 0.188,-0.064 0.257,0.011c0.068,0.073 0.063,0.188 -0.011,0.257c-0.616,0.57 -1.358,1.023 -2.074,1.461l-0.39,0.239c-1.932,1.206 -2.841,2.596 -2.777,4.252c0.015,0.372 0.083,0.753 0.149,1.121c0.096,0.531 0.193,1.08 0.142,1.638c-0.042,0.415 -0.163,0.811 -0.28,1.194c-0.079,0.258 -0.161,0.526 -0.215,0.79c-0.231,1.189 0.136,2.485 0.957,3.381c0.82,0.896 2.074,1.373 3.278,1.245c0.277,-0.027 0.559,-0.086 0.83,-0.143c0.39,-0.083 0.792,-0.168 1.208,-0.168c0.867,0 1.661,0.362 2.428,0.713c0.395,0.18 0.802,0.366 1.211,0.498c0.924,0.295 1.994,0.282 2.938,0.273l0.381,-0.004c0.972,-0.004 1.997,-0.223 2.987,-0.433l0.196,-0.041c0.103,-0.019 0.196,0.042 0.217,0.14c0.021,0.098 -0.042,0.195 -0.141,0.217l-0.196,0.041c-1.008,0.214 -2.051,0.436 -3.06,0.441l-0.379,0.004c-0.182,0.003 -0.369,0.004 -0.558,0.004Z" style="fill:#ffdcb3;fill-rule:nonzero;"/><path d="M40.851,97.982c-0.382,0 -0.774,-0.075 -1.136,-0.221c-0.223,-0.086 -0.419,-0.198 -0.578,-0.332c-0.485,-0.411 -0.718,-1.135 -0.608,-1.887c0.059,-0.377 0.158,-0.718 0.293,-1.013c0.633,-1.442 2.145,-2.392 4.044,-2.538c0.482,-0.039 0.991,-0.03 1.6,0.025c0.715,0.068 1.44,0.197 2.141,0.322c1.626,0.29 3.307,0.591 4.903,0.121c0.563,-0.163 1.134,-0.449 1.698,-0.852c0.195,-0.14 0.384,-0.291 0.573,-0.44c0.288,-0.227 0.584,-0.461 0.902,-0.663c0.847,-0.526 1.906,-0.84 3.152,-0.932c0.77,-0.06 1.541,0.102 2.287,0.255c0.339,0.07 0.677,0.14 1.015,0.189l0.399,0.054c1.809,0.195 3.667,-0.066 5.363,-0.758l0.33,-0.136c0.991,-0.405 2.115,-0.864 2.757,-1.715c0.464,-0.615 1.025,-1.832 0.185,-2.494c-0.262,-0.207 -0.633,-0.267 -0.991,-0.325l-0.09,-0.014c-1.309,-0.225 -2.215,-0.721 -2.695,-1.477c-0.422,-0.648 -0.486,-1.429 -0.547,-2.185c-0.017,-0.204 -0.033,-0.407 -0.056,-0.606c-0.118,-1.022 -0.665,-2.165 -1.848,-2.315c-1.323,-0.169 -2.679,0.67 -3.374,1.184c-0.206,0.153 -0.407,0.313 -0.61,0.472c-0.659,0.521 -1.34,1.058 -2.144,1.364c-0.902,0.343 -1.741,0.273 -2.55,0.205c-0.179,-0.016 -0.359,-0.031 -0.539,-0.041c-0.1,-0.007 -0.176,-0.092 -0.171,-0.192c0.006,-0.101 0.093,-0.174 0.193,-0.171c0.184,0.011 0.366,0.027 0.548,0.042c0.805,0.068 1.566,0.131 2.39,-0.182c0.752,-0.287 1.382,-0.783 2.048,-1.31c0.204,-0.161 0.409,-0.324 0.618,-0.478c0.738,-0.548 2.189,-1.436 3.635,-1.253c1.392,0.175 2.03,1.476 2.164,2.633c0.024,0.203 0.041,0.411 0.058,0.62c0.058,0.71 0.116,1.444 0.489,2.018c0.425,0.667 1.248,1.108 2.449,1.315l0.089,0.014c0.385,0.063 0.822,0.133 1.158,0.399c0.929,0.731 0.609,2.033 -0.12,2.999c-0.703,0.931 -1.876,1.41 -2.911,1.832l-0.329,0.136c-1.753,0.715 -3.672,0.987 -5.546,0.782l-0.406,-0.055c-0.347,-0.051 -0.698,-0.123 -1.037,-0.192c-0.72,-0.148 -1.469,-0.301 -2.187,-0.25c-1.186,0.088 -2.19,0.384 -2.984,0.877c-0.302,0.191 -0.591,0.421 -0.871,0.641c-0.193,0.152 -0.385,0.305 -0.586,0.449c-0.597,0.428 -1.205,0.733 -1.807,0.906c-1.68,0.494 -3.404,0.186 -5.068,-0.112c-0.695,-0.123 -1.413,-0.251 -2.112,-0.317c-0.586,-0.054 -1.077,-0.062 -1.538,-0.024c-1.763,0.135 -3.161,1.003 -3.74,2.322c-0.123,0.268 -0.212,0.577 -0.266,0.919c-0.071,0.491 0.018,1.16 0.484,1.556c0.129,0.109 0.285,0.198 0.476,0.271c0.345,0.138 0.717,0.2 1.081,0.195c0.359,-0.008 0.859,-0.186 1.078,-0.472c0.106,-0.139 0.138,-0.288 0.096,-0.456c-0.047,-0.207 -0.258,-0.35 -0.447,-0.401c-0.235,-0.07 -0.502,-0.053 -0.759,-0.036c-0.115,-0.001 -0.186,-0.07 -0.193,-0.17c-0.007,-0.101 0.069,-0.187 0.17,-0.194c0.277,-0.017 0.59,-0.038 0.883,0.05c0.354,0.096 0.631,0.359 0.7,0.667c0.066,0.271 0.011,0.535 -0.161,0.76c-0.299,0.391 -0.909,0.605 -1.358,0.615c-0.029,0.001 -0.058,0.001 -0.086,0.001Z" style="fill:#ffdcb3;fill-rule:nonzero;"/><path d="M55.011,59.889c-0.046,0 -0.093,-0.018 -0.128,-0.053c-0.071,-0.071 -0.073,-0.186 -0.003,-0.257c0.441,-0.447 0.944,-0.765 1.204,-0.915c0.255,-0.141 0.523,-0.258 0.783,-0.371c0.516,-0.225 1.003,-0.436 1.366,-0.811c0.748,-0.764 0.709,-2.1 -0.084,-2.917c-0.045,-0.044 -0.093,-0.091 -0.141,-0.136c-0.148,-0.139 -0.301,-0.283 -0.42,-0.467c-0.283,-0.441 -0.28,-0.949 -0.277,-1.441c0.002,-0.322 0.004,-0.628 -0.069,-0.912c-0.139,-0.549 -0.598,-1.053 -1.2,-1.315c-0.516,-0.224 -1.15,-0.296 -1.884,-0.217c-0.954,0.105 -1.588,0.143 -2.515,-0.335l-2.267,-1.158c-0.091,-0.048 -0.159,-0.084 -0.232,-0.115c-0.092,-0.04 -0.135,-0.146 -0.096,-0.239c0.04,-0.092 0.145,-0.133 0.239,-0.096c0.082,0.036 0.16,0.076 0.237,0.117l2.284,1.168c0.839,0.431 1.398,0.395 2.312,0.297c0.796,-0.088 1.491,-0.004 2.068,0.243c0.713,0.31 1.24,0.894 1.407,1.56c0.084,0.329 0.082,0.671 0.08,1.003c-0.003,0.459 -0.005,0.893 0.218,1.24c0.095,0.148 0.225,0.27 0.363,0.4c0.051,0.048 0.102,0.096 0.151,0.146c0.946,0.974 0.984,2.51 0.087,3.427c-0.412,0.426 -0.956,0.662 -1.481,0.891c-0.252,0.11 -0.513,0.222 -0.749,0.354c-0.242,0.14 -0.713,0.437 -1.123,0.854c-0.035,0.036 -0.083,0.055 -0.13,0.055Z" style="fill:#ffdcb3;fill-rule:nonzero;"/><path d="M51.792,55.165c-0.061,0 -0.12,-0.03 -0.155,-0.086c-0.053,-0.085 -0.026,-0.197 0.059,-0.25l0.162,-0.1c0.222,-0.135 0.432,-0.263 0.631,-0.426c0.262,-0.222 0.441,-0.427 0.563,-0.645c0.217,-0.409 0.228,-0.93 0.029,-1.392l-0.066,-0.155c-0.127,-0.305 -0.258,-0.62 -0.509,-0.783c-0.454,-0.297 -1.061,-0.283 -1.648,-0.276c-0.23,0.005 -0.457,0.008 -0.671,-0.004c-0.414,-0.026 -1.463,-0.146 -2.268,-0.693c-0.082,-0.056 -0.104,-0.17 -0.048,-0.253c0.056,-0.083 0.17,-0.104 0.253,-0.048c0.506,0.344 1.285,0.579 2.085,0.63c0.205,0.012 0.421,0.008 0.641,0.004c0.645,-0.014 1.305,-0.024 1.853,0.335c0.345,0.223 0.506,0.608 0.646,0.947l0.064,0.151c0.242,0.563 0.227,1.202 -0.044,1.71c-0.144,0.261 -0.35,0.499 -0.65,0.751c-0.221,0.18 -0.451,0.32 -0.673,0.457l-0.161,0.098c-0.029,0.018 -0.063,0.027 -0.096,0.027Z" style="fill:#ffdcb3;fill-rule:nonzero;"/><path d="M38.812,34.401c-0.066,0 -0.131,-0.037 -0.163,-0.101c-0.033,-0.064 -0.055,-0.128 -0.069,-0.194c-0.167,-0.496 -0.121,-1.079 0.13,-1.581c0.115,-0.231 0.269,-0.434 0.419,-0.632c0.141,-0.187 0.275,-0.364 0.375,-0.558c0.152,-0.29 0.228,-0.613 0.309,-0.956c0.047,-0.201 0.095,-0.403 0.158,-0.6c0.325,-0.979 1.168,-1.483 2.262,-1.355l0.052,0.006c0.024,0.002 0.048,0.003 0.073,0.007c0.1,0.014 0.169,0.106 0.155,0.205c-0.014,0.099 -0.109,0.168 -0.205,0.155l-0.049,-0.004c-0.024,-0.002 -0.048,-0.004 -0.073,-0.008c-0.933,-0.112 -1.595,0.282 -1.869,1.108c-0.06,0.185 -0.105,0.377 -0.15,0.569c-0.083,0.349 -0.168,0.711 -0.34,1.04c-0.115,0.222 -0.264,0.419 -0.41,0.611c-0.145,0.191 -0.283,0.374 -0.382,0.574c-0.206,0.411 -0.245,0.905 -0.106,1.323c0.014,0.055 0.026,0.089 0.045,0.128c0.045,0.089 0.008,0.199 -0.081,0.244c-0.026,0.013 -0.054,0.019 -0.081,0.019Z" style="fill:#ffdcb3;fill-rule:nonzero;"/><path d="M70.105,79.707c-0.456,0.001 -0.899,-0.128 -1.262,-0.37c-0.466,-0.31 -0.879,-0.923 -0.685,-1.534c0.084,-0.248 0.36,-0.542 0.676,-0.609c0.198,-0.044 0.389,0.015 0.528,0.165c0.299,0.315 0.105,1.032 -0.11,1.284c-0.065,0.078 -0.181,0.086 -0.257,0.021c-0.076,-0.066 -0.086,-0.181 -0.02,-0.257c0.147,-0.171 0.243,-0.671 0.121,-0.799c-0.052,-0.057 -0.11,-0.074 -0.186,-0.057c-0.171,0.036 -0.359,0.227 -0.407,0.366c-0.13,0.409 0.173,0.873 0.541,1.117c0.402,0.268 0.923,0.368 1.431,0.277c0.336,-0.064 0.64,-0.207 0.878,-0.413c0.631,-0.532 0.849,-1.501 0.511,-2.256c-0.311,-0.68 -1.029,-1.21 -2.135,-1.575c-0.427,-0.141 -0.806,-0.23 -1.158,-0.272c-0.997,-0.12 -2.024,0.103 -3.018,0.322c-1.086,0.238 -2.21,0.485 -3.332,0.295c-0.441,-0.076 -0.869,-0.217 -1.282,-0.355c-0.616,-0.205 -1.195,-0.389 -1.813,-0.389c-0.944,0.009 -1.77,0.487 -2.647,0.992c-0.714,0.412 -1.454,0.839 -2.275,0.999c-0.315,0.061 -0.639,0.081 -0.953,0.1c-0.431,0.026 -0.838,0.051 -1.22,0.173c-0.094,0.032 -0.199,-0.022 -0.228,-0.118c-0.031,-0.095 0.021,-0.197 0.117,-0.228c0.426,-0.137 0.875,-0.165 1.31,-0.191c0.302,-0.018 0.614,-0.037 0.906,-0.094c0.761,-0.149 1.474,-0.559 2.163,-0.957c0.877,-0.506 1.785,-1.03 2.822,-1.04c0.657,-0.02 1.314,0.2 1.933,0.406c0.401,0.133 0.815,0.271 1.228,0.342c1.053,0.179 2.093,-0.05 3.193,-0.292c1.023,-0.225 2.083,-0.457 3.14,-0.327c0.376,0.045 0.779,0.138 1.229,0.287c1.204,0.399 1.996,0.994 2.351,1.77c0.404,0.899 0.143,2.052 -0.605,2.683c-0.285,0.247 -0.648,0.419 -1.048,0.494c-0.145,0.027 -0.292,0.039 -0.437,0.039Z" style="fill:#ffdcb3;fill-rule:nonzero;"/><path d="M34.786,79.846c-0.747,0 -1.407,-0.213 -1.896,-0.631c-0.189,-0.164 -0.349,-0.355 -0.503,-0.54c-0.165,-0.197 -0.321,-0.383 -0.507,-0.536c-0.442,-0.36 -1.059,-0.503 -1.606,-0.37c-0.22,0.053 -0.432,0.145 -0.657,0.243c-0.365,0.159 -0.75,0.317 -1.163,0.308c-0.896,-0.044 -1.524,-0.919 -1.593,-1.706c-0.056,-0.707 0.22,-1.479 0.794,-2.236c0.327,-0.434 0.668,-0.762 1.041,-1.001c0.362,-0.233 0.765,-0.389 1.156,-0.54c0.511,-0.197 0.993,-0.383 1.373,-0.727c0.173,-0.158 0.318,-0.347 0.472,-0.547c0.214,-0.277 0.436,-0.563 0.742,-0.771c0.489,-0.339 1.085,-0.404 1.662,-0.467l0.273,-0.031c2.019,-0.245 3.976,-1.291 5.366,-2.868c0.066,-0.076 0.181,-0.083 0.257,-0.016c0.075,0.067 0.083,0.181 0.016,0.257c-1.449,1.643 -3.488,2.734 -5.595,2.989l-0.278,0.031c-0.532,0.058 -1.081,0.118 -1.496,0.405c-0.26,0.176 -0.453,0.428 -0.659,0.694c-0.157,0.203 -0.319,0.413 -0.516,0.593c-0.43,0.391 -0.967,0.598 -1.486,0.797c-0.374,0.145 -0.759,0.294 -1.09,0.508c-0.337,0.215 -0.647,0.514 -0.949,0.914c-0.363,0.478 -0.783,1.21 -0.722,1.986c0.056,0.633 0.548,1.339 1.246,1.372c0.336,0.021 0.66,-0.128 1.003,-0.278c0.228,-0.1 0.466,-0.203 0.717,-0.263c0.656,-0.156 1.392,0.013 1.922,0.442c0.212,0.176 0.387,0.384 0.554,0.585c0.153,0.181 0.296,0.354 0.462,0.498c0.725,0.623 1.917,0.717 3.188,0.252c0.48,-0.176 0.951,-0.409 1.406,-0.635c0.591,-0.294 1.202,-0.596 1.856,-0.788c0.354,-0.1 0.722,-0.169 1.093,-0.207c0.109,-0.006 0.19,0.063 0.2,0.163c0.009,0.1 -0.063,0.189 -0.163,0.2c-0.351,0.035 -0.697,0.101 -1.03,0.194c-0.621,0.181 -1.217,0.477 -1.794,0.763c-0.464,0.23 -0.944,0.468 -1.442,0.65c-0.574,0.21 -1.136,0.314 -1.657,0.314Z" style="fill:#ffdcb3;fill-rule:nonzero;"/><path d="M43.193,104.467c-0.736,0 -1.412,-0.067 -2.049,-0.203c-0.75,-0.162 -1.508,-0.349 -2.241,-0.529c-0.71,-0.175 -1.421,-0.351 -2.137,-0.508c-0.845,-0.188 -1.805,-0.402 -2.567,-0.965c-1.053,-0.772 -1.583,-2.208 -1.287,-3.492c0.414,-1.791 1.922,-2.357 3.382,-2.904c0.417,-0.156 0.85,-0.318 1.239,-0.505c0.437,-0.211 0.862,-0.496 1.337,-0.897c0.531,-0.462 1.031,-0.998 1.457,-1.463c0.066,-0.073 0.183,-0.08 0.257,-0.011c0.074,0.068 0.079,0.182 0.01,0.257c-0.432,0.472 -0.939,1.016 -1.487,1.494c-0.501,0.422 -0.951,0.723 -1.417,0.949c-0.404,0.193 -0.844,0.359 -1.269,0.518c-1.432,0.536 -2.786,1.043 -3.155,2.645c-0.263,1.146 0.209,2.427 1.149,3.117c0.7,0.518 1.62,0.722 2.43,0.902c0.718,0.157 1.432,0.333 2.146,0.509c0.73,0.18 1.486,0.367 2.23,0.527c0.892,0.19 1.87,0.24 2.991,0.155c1.732,-0.135 3.314,-0.539 4.701,-1.201c0.438,-0.209 0.784,-0.554 1.151,-0.918c0.167,-0.166 0.335,-0.332 0.512,-0.487c0.751,-0.648 1.421,-1.08 2.113,-1.359c1.326,-0.538 2.777,-0.531 4.186,-0.525c1.233,0.004 2.516,0.011 3.684,-0.359c1.024,-0.322 1.729,-0.909 2.613,-1.702c0.62,-0.552 1.563,-0.874 2.882,-0.986c0.962,-0.082 1.985,-0.355 2.881,-0.766c0.94,-0.431 1.773,-1.111 2.409,-1.968c0.526,-0.709 0.855,-1.551 1.173,-2.364c0.095,-0.244 0.19,-0.486 0.291,-0.727c0.193,-0.466 0.467,-0.924 0.758,-1.407c0.594,-0.993 1.209,-2.019 1.06,-3.088c-0.141,-0.992 -0.576,-1.947 -1.224,-2.688c-0.274,-0.317 -0.594,-0.605 -0.902,-0.885c-0.394,-0.357 -0.802,-0.725 -1.131,-1.162c-0.424,-0.561 -0.8,-1.262 -1.033,-1.922c-0.034,-0.095 0.016,-0.199 0.111,-0.232c0.096,-0.033 0.2,0.017 0.233,0.111c0.219,0.627 0.576,1.292 0.979,1.824c0.309,0.411 0.686,0.751 1.084,1.113c0.317,0.287 0.645,0.583 0.933,0.916c0.693,0.792 1.158,1.814 1.309,2.876c0.166,1.196 -0.481,2.279 -1.108,3.326c-0.283,0.472 -0.55,0.917 -0.735,1.36c-0.099,0.237 -0.193,0.477 -0.287,0.719c-0.327,0.836 -0.665,1.7 -1.22,2.448c-0.672,0.907 -1.554,1.627 -2.55,2.081c-0.933,0.429 -1.999,0.713 -3.001,0.799c-1.222,0.103 -2.121,0.404 -2.672,0.894c-0.917,0.824 -1.651,1.434 -2.746,1.779c-1.223,0.386 -2.528,0.38 -3.795,0.376c-1.432,-0.006 -2.788,-0.014 -4.048,0.498c-0.653,0.264 -1.291,0.676 -2.01,1.297c-0.17,0.148 -0.332,0.309 -0.494,0.469c-0.372,0.37 -0.757,0.752 -1.251,0.988c-1.427,0.682 -3.053,1.098 -4.829,1.236c-0.363,0.029 -0.711,0.042 -1.047,0.042Z" style="fill:#ffdcb3;fill-rule:nonzero;"/></g></g><g id="Frames-sin-fondo" serif:id="Frames sin fondo"></g></svg>